<svg width="1920" height="1080" viewBox="0 0 1920 1080" fill="none" xmlns="http://www.w3.org/2000/svg">
<rect width="1920" height="1080" fill="#FFFCEC"/>
<ellipse cx="978.5" cy="975.5" rx="668.5" ry="57.5" fill="#FFD130"/>
<ellipse cx="978.5" cy="975.5" rx="668.5" ry="57.5" fill="#FFD130"/>
<g clip-path="url(#clip0_783_284)">
<path d="M934.842 714.01C931.996 715.464 929.679 717.767 928.216 720.597C927.426 722.248 926.976 724.039 926.891 725.866C925.387 748.723 930.204 764.07 930.204 764.07C932.994 772.922 937.008 781.346 942.129 789.1C945.879 790.536 956.321 793.942 968.63 790.418C987.711 784.957 995.171 767.469 996.125 765.131C988.349 747.18 977.724 730.587 964.655 715.986C960.78 712.078 955.589 709.732 950.08 709.399C948.074 711.291 945.653 712.692 943.008 713.492C940.363 714.293 937.567 714.47 934.842 714.01Z" fill="#EFDECA" stroke="black" stroke-width="5" stroke-miterlimit="10"/>
<path d="M942.898 714.393C947.118 712.786 949.9 709.823 949.111 707.775C948.322 705.726 944.261 705.368 940.041 706.974C935.821 708.58 933.039 711.543 933.828 713.592C934.617 715.641 938.678 715.999 942.898 714.393Z" fill="black"/>
<path d="M942.129 795.687V869.006L937.651 958.345C935.905 958.769 934.383 959.831 933.388 961.319C932.393 962.807 931.997 964.613 932.279 966.378C932.561 968.143 933.5 969.738 934.91 970.847C936.32 971.955 938.098 972.496 939.89 972.362L953.392 972.217C956.084 971.819 958.609 970.678 960.68 968.923C962.919 966.947 964.761 963.884 965.98 951.139C966.64 943.913 966.862 936.654 966.643 929.402C966.51 923.381 966.219 918.388 965.98 914.911C972.571 923.324 980.655 930.468 989.831 935.989C1010.37 948.286 1030.52 948.827 1039.52 948.504C1039.74 953.554 1039.96 958.604 1040.18 963.654C1036.11 965.794 1034.38 969.931 1035.55 972.875C1036.45 975.161 1038.86 976.116 1039.52 976.353L1058.73 976.169C1060.22 975.884 1061.59 975.2 1062.71 974.193C1065.43 971.657 1065.36 967.724 1065.36 964.312C1065.36 960.209 1065.49 954.34 1066.02 946.528C1067.26 944.749 1073.46 936.278 1085.24 934.013C1092.26 932.712 1099.52 933.876 1105.77 937.306C1110.41 871.285 1114.18 848.132 1117.04 841.796C1118.4 838.82 1119.51 835.736 1120.35 832.574C1121.72 827.417 1122.39 822.1 1122.34 816.765C1121.84 813.604 1120.57 811.219 1119.02 810.837C1118.59 810.726 1118.13 810.726 1117.7 810.837C1116.37 811.252 1116.04 812.873 1115.71 812.813C1114.94 812.682 1117.08 803.921 1114.39 802.274C1113.3 801.616 1111.67 802.274 1110.41 802.933C1108.8 795.684 1105.12 789.051 1099.81 783.831C1097.92 782.013 1093.12 777.389 1091.2 778.561C1088.38 780.281 1095.84 791.992 1095.17 810.179C1094.88 818.61 1093.01 824.011 1091.86 824.011C1090.71 824.011 1090.95 819.058 1087.22 816.765C1085.79 815.883 1083.25 815.073 1081.92 816.107C1079.45 818.083 1083.74 824.512 1083.91 832.574C1084 836.599 1085.58 847.065 1079.94 854.311C1077.72 849.845 1071.04 838.331 1064.03 831.915C1052.02 820.909 1043.58 822.628 1030.25 810.837C1024.14 805.436 1020.39 800.193 1014.34 791.735C1009.4 784.82 1004.97 777.555 1001.09 769.998C1000.43 772.1 994.204 790.839 974.593 797.663C958.606 803.262 944.872 796.998 942.129 795.687Z" fill="#EFDECA" stroke="black" stroke-width="5" stroke-miterlimit="10"/>
<path d="M943.786 714.998C943.786 714.998 945.773 725.537 936.498 730.806" stroke="black" stroke-width="3" stroke-miterlimit="10"/>
<path d="M943.786 714.497C943.786 714.497 949.04 723.857 959.56 722.006" stroke="black" stroke-width="3" stroke-miterlimit="10"/>
<path d="M938.34 730.806C938.174 731.577 936.769 738.638 941.467 743.651C946.389 748.92 954.446 748.097 959.355 745.627C960.422 745.093 968.842 740.7 967.968 733.112C967.425 728.389 963.662 724.292 958.461 722.902C953.262 722.638 948.364 720.398 944.779 716.644C944.085 721.893 941.845 726.821 938.34 730.806Z" fill="#FF473E" stroke="black" stroke-width="3" stroke-miterlimit="10"/>
<path d="M945.455 718.37L954.055 735.747" stroke="black" stroke-width="3" stroke-miterlimit="10"/>
<path d="M942.129 789.101V795.687C948.404 798.316 955.212 799.444 962.005 798.981C964.284 798.816 980.397 797.387 991.819 783.831C995.397 779.564 998.099 774.641 999.769 769.34L996.125 764.156C995.463 766.527 991.011 780.926 975.918 788.442C959.62 796.557 944.183 790.016 942.129 789.101Z" fill="#CC5200" stroke="black" stroke-width="5" stroke-miterlimit="10"/>
<path d="M978.337 795.687L980.887 801.945" stroke="black" stroke-width="5" stroke-miterlimit="10"/>
<path d="M973.606 804.29L987.287 797.532L983.749 807.998L973.606 804.29Z" fill="#633B1F" stroke="black" stroke-width="3" stroke-miterlimit="10"/>
<path d="M926.6 747.55C924.287 750.646 921.419 754.658 918.278 759.459C915.449 763.794 913.296 767.614 909.003 775.268C904.544 783.172 903.391 785.675 903.703 789.101C904.039 791.992 905.187 794.731 907.015 797.005C915.562 808.585 940.321 806.885 942.129 806.753C944.024 797.354 942.533 791.11 940.804 787.124C939.605 784.365 938.631 783.482 935.504 777.244C933.492 773.405 931.722 769.445 930.204 765.388C928.174 759.637 926.961 753.634 926.6 747.55Z" fill="#331B0B" stroke="black" stroke-width="5" stroke-miterlimit="10"/>
<path d="M974.593 726.525C979.139 726.871 983.655 727.531 988.109 728.501C992.422 729.43 996.801 731.063 1005.65 734.047C1014.31 736.965 1016.83 737.999 1018.9 740.772C1020.6 743.142 1021.6 745.941 1021.77 748.848C1023.21 762.68 1006.79 775.907 1005.06 777.27C1001.03 770.282 997.868 764.584 995.781 760.803C990.063 750.429 987.983 746.213 983.855 739.725C980.119 733.81 976.733 729.278 974.593 726.525Z" fill="#331B0B" stroke="black" stroke-width="5" stroke-miterlimit="10"/>
<path d="M965.98 914.252C965.98 914.252 958.03 902.395 956.042 895.808Z" fill="#FFFBF5"/>
<path d="M965.98 914.252C965.98 914.252 958.03 902.395 956.042 895.808" stroke="black" stroke-width="3" stroke-miterlimit="10"/>
</g>
<g clip-path="url(#clip1_783_284)">
<path d="M1231.79 739.949C1231.28 753.851 1232.12 760.114 1233.11 763.119L1235.1 769.078C1232.51 773.579 1226.3 785.853 1229.8 799.53C1235.23 820.714 1260.32 830.591 1278.76 830.644C1299.68 830.704 1314.16 818.132 1318.45 814.094C1321.73 811.085 1324.42 807.493 1326.39 803.502C1333.33 789.302 1328.17 775.241 1327.05 772.388C1324.73 766.57 1321.11 761.362 1316.47 757.161C1316.7 752.53 1316.7 747.89 1316.47 743.259C1316.22 738.466 1315.74 734.038 1315.14 730.019C1306.13 732.126 1297.88 736.712 1291.33 743.259L1249.98 745.576L1231.79 739.949Z" fill="#FFFCF8" stroke="black" stroke-width="5" stroke-miterlimit="10"/>
<path d="M1233.11 741.273C1239.27 745.569 1243.72 751.897 1245.68 759.147" stroke="black" stroke-width="3" stroke-miterlimit="10"/>
<path d="M1313.16 731.343C1313.16 731.343 1303.23 742.597 1303.9 748.555" stroke="black" stroke-width="3" stroke-miterlimit="10"/>
<path d="M1260.56 782.649C1259.79 784.807 1256.33 785.561 1253.95 785.297C1250.07 784.866 1246.08 781.417 1246.67 778.677C1247.2 776.227 1251.3 774.632 1254.61 775.367C1258.28 776.187 1261.49 780.06 1260.56 782.649Z" fill="black"/>
<path d="M1299.79 774.539C1300.61 776.677 1298.47 779.504 1296.49 780.861C1293.27 783.066 1287.99 783.052 1286.66 780.59C1285.47 778.385 1287.56 774.479 1290.52 772.897C1293.85 771.13 1298.81 771.97 1299.79 774.539Z" fill="black"/>
<path d="M1281.73 784.734C1281.86 786.376 1278.79 787.958 1274.88 788.269C1270.97 788.58 1267.68 787.501 1267.55 785.859C1267.42 784.218 1270.49 782.635 1274.4 782.324C1278.31 782.013 1281.58 783.092 1281.73 784.734Z" fill="black"/>
<path d="M1274.93 787.283C1274.93 787.283 1277.28 800.47 1265.2 801.185" stroke="black" stroke-width="3" stroke-miterlimit="10"/>
<path d="M1274.13 796.882C1274.13 796.882 1280.74 800.854 1284.71 800.854" stroke="black" stroke-width="3" stroke-miterlimit="10"/>
<path d="M1304.71 784.635C1304.71 784.635 1322.39 776.512 1342.49 777.439" stroke="black" stroke-width="3" stroke-miterlimit="10"/>
<path d="M1307.31 789.659C1307.31 789.659 1332.45 782.649 1342.77 785.409" stroke="black" stroke-width="3" stroke-miterlimit="10"/>
<path d="M1307.95 794.75C1307.95 794.75 1335.6 791.606 1342.6 794.75" stroke="black" stroke-width="3" stroke-miterlimit="10"/>
<path d="M1252.36 790.944C1252.36 790.944 1233.11 788.104 1214.08 794.618" stroke="black" stroke-width="3" stroke-miterlimit="10"/>
<path d="M1251.3 796.491C1251.3 796.491 1225.2 796.802 1216.06 802.35" stroke="black" stroke-width="3" stroke-miterlimit="10"/>
<path d="M1252.07 801.562C1252.07 801.562 1224.66 806.282 1218.81 811.28" stroke="black" stroke-width="3" stroke-miterlimit="10"/>
<path d="M1254.59 777.138C1254.64 776.592 1254.09 776.094 1253.36 776.026C1252.63 775.958 1252 776.345 1251.95 776.891C1251.9 777.437 1252.45 777.935 1253.18 778.003C1253.9 778.072 1254.54 777.684 1254.59 777.138Z" fill="white"/>
<path d="M1290.77 776.676C1291.43 776.357 1291.77 775.698 1291.53 775.205C1291.29 774.712 1290.56 774.571 1289.9 774.89C1289.25 775.209 1288.91 775.868 1289.15 776.362C1289.39 776.855 1290.11 776.996 1290.77 776.676Z" fill="white"/>
<path d="M1229.14 793.572C1213.53 817.733 1206.1 846.285 1207.97 874.998C1207.97 874.998 1187.57 893.415 1189.83 917.638C1192.09 941.861 1223.33 971.4 1223.33 971.4L1237.7 969.189C1237.16 970.134 1236.94 971.232 1237.08 972.313C1237.48 975.067 1240.24 976.226 1240.39 976.285C1245.25 976.464 1250.12 976.242 1254.94 975.623C1259.91 975.101 1264.79 973.99 1269.5 972.313C1270.89 971.804 1272.02 971.327 1272.8 970.989C1274.05 969.868 1274.99 968.437 1275.51 966.84C1276.03 965.244 1276.13 963.538 1275.78 961.893L1286.03 959.735C1285.69 960.397 1283.72 964.244 1285.37 968.341C1285.66 969.043 1286.74 971.486 1290.66 973.637C1294.22 975.623 1298.99 976.683 1315.8 974.299C1318.93 973.856 1322.98 973.22 1327.71 972.313L1334.99 965.031L1357.37 963.84L1382.55 957.749C1385.33 951.917 1394.75 930.342 1387.91 903.465C1380.74 875.283 1360.61 860.626 1355.5 857.124C1354.55 831.604 1346.03 806.944 1331.02 786.29C1330.1 792.44 1327.14 805.958 1315.8 816.08C1313.18 818.393 1310.29 820.392 1307.2 822.038C1287.52 832.571 1250.89 833.358 1235.76 812.108C1233.55 809.016 1230.13 803.118 1229.14 793.572Z" fill="#FFFCF8" stroke="black" stroke-width="5" stroke-miterlimit="10"/>
<path d="M1338.96 927.297C1342.7 916.275 1346.49 905.821 1349.54 892.211C1352.28 879.997 1354.17 868.517 1355.5 857.972" stroke="black" stroke-width="5" stroke-miterlimit="10"/>
<path d="M1292.24 881.321L1288.02 958.411" stroke="black" stroke-width="3" stroke-miterlimit="10"/>
<path d="M1260.9 889.563C1260.9 889.563 1279.42 927.297 1275.45 961.059" stroke="black" stroke-width="3" stroke-miterlimit="10"/>
<path d="M1207.97 874.999C1209.2 884.438 1210.9 893.809 1213.09 903.074C1213.93 906.658 1214.87 910.319 1215.91 914.057C1221.23 933.093 1228.54 951.512 1237.74 969.003" stroke="black" stroke-width="5" stroke-miterlimit="10"/>
<path d="M1214.59 904.127C1233.71 904.484 1247.19 908.966 1247.66 914.057C1248.11 918.876 1236.97 925.112 1221.72 929.21" fill="#CE7000"/>
<path d="M1214.59 904.127C1233.71 904.484 1247.19 908.966 1247.66 914.057C1248.11 918.876 1236.97 925.112 1221.72 929.21" stroke="black" stroke-width="5" stroke-miterlimit="10"/>
<path d="M1355.01 855.317C1355.28 854.993 1355.58 854.569 1355.5 854.476C1355.08 854.019 1346.23 862.076 1336.97 869.04C1321.49 880.665 1319.36 878.308 1311.17 886.253C1305.22 892.025 1297.21 899.771 1297.28 910.747C1297.35 922.802 1306.86 931.07 1309.85 933.434C1309.93 933.487 1310.01 933.524 1310.1 933.541C1310.19 933.559 1310.29 933.557 1310.38 933.535C1310.47 933.514 1310.55 933.474 1310.63 933.418C1310.7 933.362 1310.76 933.29 1310.81 933.209C1312.8 929.084 1316.2 925.811 1320.4 923.987C1328.52 920.604 1336.05 924.556 1338.43 926.046C1338.52 926.093 1338.61 926.12 1338.71 926.125C1338.81 926.13 1338.91 926.112 1339 926.073C1339.09 926.035 1339.17 925.976 1339.24 925.901C1339.31 925.826 1339.35 925.738 1339.38 925.642C1348.38 903.21 1353.65 879.454 1354.98 855.317H1355.01Z" fill="#CE7000" stroke="black" stroke-width="5" stroke-miterlimit="10"/>
<path d="M1265.33 744.04C1264.67 768.495 1267.6 771.335 1269.02 771.653C1269.46 771.742 1269.92 771.698 1270.34 771.527C1272.68 770.521 1271.96 765.006 1271.58 757.777C1271.41 754.467 1271.24 749.674 1271.33 743.729L1265.33 744.04Z" fill="#CE7000" stroke="black" stroke-width="2" stroke-miterlimit="10"/>
<path d="M1274.77 743.59C1273.84 768.038 1276.71 770.918 1278.12 771.249C1278.56 771.347 1279.03 771.307 1279.45 771.136C1281.8 770.163 1281.15 764.642 1280.86 757.406C1280.72 754.096 1280.61 749.297 1280.78 743.359L1274.77 743.59Z" fill="#CE7000" stroke="black" stroke-width="2" stroke-miterlimit="10"/>
<path d="M1277.43 831.306C1257.39 831.002 1243.81 820.714 1239.73 817.404C1240.52 818.679 1241.41 819.897 1242.37 821.052C1250.24 830.591 1263.91 836.178 1277.67 836.132C1276.66 836.715 1275.84 837.559 1275.28 838.575C1274.72 839.59 1274.44 840.739 1274.48 841.898C1274.48 845.374 1276.85 848.187 1279.78 848.187C1282.7 848.187 1285.07 845.374 1285.07 841.898C1285.07 839.157 1283.59 836.834 1281.53 835.94C1286.55 835.546 1291.46 834.325 1296.08 832.326C1301.54 829.899 1306.45 826.387 1310.5 822.005C1300.59 828.199 1289.12 831.427 1277.43 831.306Z" fill="#8FB4FF" stroke="black" stroke-width="3" stroke-miterlimit="10"/>
</g>
<g clip-path="url(#clip2_783_284)">
<path d="M1027.65 841.532V815.928C1031.54 815.874 1035.41 816.637 1038.99 818.169C1044.09 820.399 1048.42 824.078 1051.43 828.747C1057.32 826.572 1063.69 825.978 1069.89 827.022C1076.08 828.066 1081.9 830.712 1086.75 834.696C1088.81 832.959 1091.03 831.41 1093.38 830.069C1097.91 827.49 1102.84 825.702 1107.97 824.78L1102 846.596C1100.08 855.751 1100.08 865.205 1102 874.361C1100.92 880.207 1098.24 885.644 1094.26 890.075C1090.28 894.506 1085.16 897.76 1079.45 899.482C1071.07 902.045 1062.18 902.5 1053.58 900.804C1048.64 899.931 1043.92 898.137 1039.65 895.515C1034.83 892.478 1030.76 888.414 1027.71 883.616C1024.32 878.224 1022.28 872.105 1021.74 865.767C1021.11 857.27 1023.17 848.791 1027.65 841.532Z" fill="#494949" stroke="black" stroke-width="5" stroke-miterlimit="10"/>
<path d="M1032.96 820.153C1032.96 820.153 1040.92 830.684 1037.93 839.628Z" fill="#494949"/>
<path d="M1032.96 820.153C1032.96 820.153 1040.92 830.684 1037.93 839.628" stroke="black" stroke-width="3" stroke-miterlimit="10"/>
<path d="M1103.65 829.89C1103.65 829.89 1094.65 839.324 1095.97 843.29Z" fill="#494949"/>
<path d="M1103.65 829.89C1103.65 829.89 1094.65 839.324 1095.97 843.29" stroke="black" stroke-width="3" stroke-miterlimit="10"/>
<path d="M1066.03 869.938C1066.98 867.136 1063.95 863.584 1059.27 862.003C1054.58 860.422 1050.02 861.411 1049.06 864.212C1048.11 867.013 1051.14 870.565 1055.82 872.146C1060.51 873.728 1065.07 872.739 1066.03 869.938Z" fill="black"/>
<path d="M1092.79 867.004C1094.99 864.271 1095.49 861.025 1093.9 859.754C1092.31 858.484 1089.24 859.67 1087.04 862.404C1084.84 865.138 1084.34 868.384 1085.93 869.654C1087.52 870.925 1090.59 869.738 1092.79 867.004Z" fill="black"/>
<path d="M1086.05 876.549C1087.06 877.871 1084.84 883.16 1081.31 883.358C1077.93 883.523 1075.14 878.922 1075.94 877.461C1076.19 876.999 1076.72 876.992 1080.7 876.642C1085.21 876.238 1085.73 876.139 1086.05 876.549Z" fill="black"/>
<path d="M1095.84 875.868C1095.84 875.868 1109.57 872.708 1120.18 876.013" stroke="black" stroke-width="3" stroke-miterlimit="10"/>
<path d="M1095.84 882.333C1095.84 882.333 1119.19 882.955 1121.84 886.591" stroke="black" stroke-width="3" stroke-miterlimit="10"/>
<path d="M1047.55 879.649C1047.55 879.649 1026.32 877.739 1015.38 882.333" stroke="black" stroke-width="3" stroke-miterlimit="10"/>
<path d="M1047 888.904C1047 888.904 1025.66 890.888 1021.02 895.515" stroke="black" stroke-width="3" stroke-miterlimit="10"/>
<path d="M1063.75 867.552C1064.08 867.087 1063.72 866.269 1062.95 865.726C1062.17 865.183 1061.28 865.12 1060.95 865.586C1060.62 866.051 1060.98 866.868 1061.75 867.411C1062.52 867.955 1063.42 868.018 1063.75 867.552Z" fill="white"/>
<path d="M1088.19 865.556C1088.84 864.91 1089.06 864.08 1088.67 863.7C1088.29 863.321 1087.46 863.536 1086.81 864.182C1086.17 864.827 1085.95 865.658 1086.33 866.037C1086.71 866.417 1087.54 866.201 1088.19 865.556Z" fill="white"/>
<path d="M1038.59 894.854L1033.62 976.166C1030.66 977.106 1027.94 978.686 1025.66 980.794C1023.67 982.618 1019.95 986.122 1020.35 990.71C1020.46 992.435 1021.17 994.069 1022.34 995.338C1023.45 996.455 1025.07 997.241 1031.63 997.321C1038.93 997.407 1042.59 997.453 1044.9 995.338C1047.01 993.401 1047.86 990.551 1048.21 989.388C1048.73 987.674 1048.95 985.887 1048.88 984.099C1048.76 980.582 1052.01 970.124 1063 944.838L1079.39 945.096C1079.01 948.475 1077.77 951.702 1075.8 954.477C1073.83 957.252 1071.18 959.483 1068.11 960.962C1067.71 961.193 1063.17 963.884 1062.81 968.895C1062.47 973.443 1065.71 977.964 1070.77 979.472C1078.09 980.604 1085.58 979.204 1091.99 975.505C1093.32 974.408 1095.11 972.61 1095.31 970.217C1095.48 968.181 1094.39 967.361 1093.98 965.589C1093.25 962.356 1095.54 959.289 1101.94 951.707C1106.8 945.955 1109.24 943.113 1109.9 942.451C1119.62 933.448 1133.69 932.119 1140.08 931.914C1143.81 935.348 1148.37 937.759 1153.31 938.91C1158.25 940.062 1163.41 939.916 1168.28 938.485C1170.16 939.649 1171.75 941.233 1172.92 943.113C1174.6 945.892 1175.3 949.148 1174.91 952.368C1174.87 956.769 1173.6 961.074 1171.26 964.806C1168.92 968.539 1165.59 971.555 1161.64 973.522C1155.98 975.36 1153.81 981.243 1155.67 984.76C1157.1 987.471 1161.58 987.821 1164.96 988.026C1169.02 988.277 1176.72 988.026 1186.19 982.777C1193.63 975.168 1199.09 965.864 1202.11 955.673C1203.04 952.427 1203.7 949.111 1204.1 945.757C1202.93 941.864 1201.38 938.099 1199.45 934.519C1195.77 927.7 1190.82 921.643 1184.86 916.67C1191.56 907.25 1195.27 896.036 1195.48 884.49C1195.7 872.943 1192.42 861.599 1186.07 851.937C1190.97 850.403 1202.05 846.199 1210.73 835.357C1224.16 818.586 1221.65 798.72 1220.01 791.065C1218.56 784.249 1215.66 770.711 1203.43 763.3C1196.27 758.963 1188.93 758.553 1184.86 758.672C1182.29 759.023 1180.22 760.557 1179.55 762.639C1179.33 763.414 1179.28 764.226 1179.39 765.022C1179.51 765.819 1179.79 766.584 1180.22 767.266C1182.42 770.625 1187.74 769.977 1190.83 770.572C1200.62 772.456 1211 791.263 1207.41 808.914C1204.44 823.544 1192.32 835.139 1176.9 838.002C1174.64 836.488 1162.62 828.746 1147.05 832.052C1138.8 833.847 1131.35 838.253 1125.82 844.612C1122.99 848.064 1119.14 850.532 1114.82 851.662C1110.49 852.792 1105.92 852.525 1101.76 850.899C1101.19 855.169 1101.03 859.483 1101.28 863.783C1101.69 870.956 1102.96 873.151 1101.94 877.666C1100.85 882.505 1098.12 885.658 1095.31 888.904C1091.55 893.457 1086.78 897.078 1081.38 899.482C1069.68 904.486 1058.38 901.465 1050.87 899.482C1046.63 898.354 1042.52 896.804 1038.59 894.854Z" fill="#494949" stroke="black" stroke-width="5" stroke-miterlimit="10"/>
<path d="M1083.37 929.891L1078.37 947.839" stroke="black" stroke-width="3" stroke-miterlimit="10"/>
<path d="M1114.55 928.569C1113.01 936.978 1109.1 944.776 1103.27 951.046" stroke="black" stroke-width="3" stroke-miterlimit="10"/>
<path d="M1135.77 923.28C1137.36 927.85 1140.24 931.866 1144.06 934.849" stroke="black" stroke-width="3" stroke-miterlimit="10"/>
<path d="M1047 924.603C1047 924.603 1053.9 943.919 1062.34 945.499" stroke="black" stroke-width="3" stroke-miterlimit="10"/>
<path d="M1026.32 988.066C1026.32 988.066 1023.67 994.015 1027.65 997.321Z" fill="#494949"/>
<path d="M1026.32 988.066C1026.32 988.066 1023.67 994.015 1027.65 997.321" stroke="black" stroke-width="3" stroke-miterlimit="10"/>
<path d="M1033.95 988.562C1033.95 988.562 1031.3 994.511 1035.28 997.817Z" fill="#494949"/>
<path d="M1033.95 988.562C1033.95 988.562 1031.3 994.511 1035.28 997.817" stroke="black" stroke-width="3" stroke-miterlimit="10"/>
<path d="M1070.1 969.556C1070.1 970.878 1067.22 978.11 1072.97 980.444Z" fill="#494949"/>
<path d="M1070.1 969.556C1070.1 970.878 1067.22 978.11 1072.97 980.444" stroke="black" stroke-width="3" stroke-miterlimit="10"/>
<path d="M1079.51 968.564C1079.51 969.886 1076.62 977.118 1082.37 979.452Z" fill="#494949"/>
<path d="M1079.51 968.564C1079.51 969.886 1076.62 977.118 1082.37 979.452" stroke="black" stroke-width="3" stroke-miterlimit="10"/>
<path d="M1166.95 976.828C1166.95 976.828 1158.33 984.027 1164.3 988.687Z" fill="#494949"/>
<path d="M1166.95 976.828C1166.95 976.828 1158.33 984.027 1164.3 988.687" stroke="black" stroke-width="3" stroke-miterlimit="10"/>
<path d="M1068.11 902.787C1057.52 903.793 1046.89 901.233 1037.93 895.515C1039.67 897.426 1041.62 899.132 1043.74 900.599C1051.85 906.192 1060.55 906.879 1065.45 906.793C1065.01 907.588 1064.78 908.487 1064.79 909.398C1064.79 911.586 1065.98 913.364 1067.44 913.364C1068.91 913.364 1070.1 911.586 1070.1 909.398C1070.11 908.427 1069.85 907.47 1069.35 906.641C1072.81 906.353 1076.2 905.497 1079.38 904.109C1085.09 901.572 1089.92 897.438 1093.31 892.21C1086.14 898.134 1077.38 901.814 1068.11 902.787Z" fill="#D8D327" stroke="black" stroke-width="3" stroke-miterlimit="10"/>
<path d="M1081.71 882.624C1081.78 883.284 1081.78 883.948 1081.71 884.607C1081.64 885.28 1081.51 885.945 1081.31 886.591" fill="#494949"/>
<path d="M1081.71 882.624C1081.78 883.284 1081.78 883.948 1081.71 884.607C1081.64 885.28 1081.51 885.945 1081.31 886.591" stroke="black" stroke-width="2" stroke-miterlimit="10"/>
</g>
<g clip-path="url(#clip3_783_284)">
<path d="M1229.46 1002.81C1251.44 1002.81 1269.26 985.088 1269.26 963.229C1269.26 941.37 1251.44 923.649 1229.46 923.649C1207.48 923.649 1189.66 941.37 1189.66 963.229C1189.66 985.088 1207.48 1002.81 1229.46 1002.81Z" fill="#E26498" stroke="#19030E" stroke-width="5" stroke-miterlimit="10"/>
<path d="M1203.41 956.421C1198.84 963.423 1195.33 971.05 1192.97 979.061" stroke="#19030E" stroke-width="3" stroke-miterlimit="10"/>
<path d="M1243.39 925.628C1231.45 929.25 1222.35 935.134 1213.54 943.947" stroke="#19030E" stroke-width="3" stroke-miterlimit="10"/>
<path d="M1217.27 948.288C1225.95 939.583 1236.32 932.723 1247.74 928.122" stroke="#19030E" stroke-width="3" stroke-miterlimit="10"/>
<path d="M1195.63 983.441C1198.18 975.761 1201.75 968.455 1206.25 961.718" stroke="#19030E" stroke-width="3" stroke-miterlimit="10"/>
<path d="M1209.16 965.478C1204.65 972.311 1201.21 979.781 1198.94 987.636" stroke="#19030E" stroke-width="3" stroke-miterlimit="10"/>
<path d="M1254 931.565C1251.68 930.576 1249.03 931.235 1247.04 932.555C1237.09 937.832 1227.14 943.109 1219.57 951.236" stroke="#19030E" stroke-width="3" stroke-miterlimit="10"/>
<path d="M1223.87 956.962C1233.19 947.011 1244.61 939.244 1257.32 934.224" stroke="#19030E" stroke-width="3" stroke-miterlimit="10"/>
<path d="M1203.17 991.166C1205.55 983.993 1208.82 977.145 1212.91 970.782" stroke="#19030E" stroke-width="3" stroke-miterlimit="10"/>
<path d="M1216.93 975.703C1213 981.779 1209.64 988.203 1206.9 994.893" stroke="#19030E" stroke-width="3" stroke-miterlimit="10"/>
<path d="M1261.3 939.481C1248.16 943.334 1236.86 951.777 1227.75 961.758" stroke="#19030E" stroke-width="3" stroke-miterlimit="10"/>
<path d="M1252.34 982.029C1260.04 973.766 1265.43 963.64 1267.96 952.661" stroke="#19030E" stroke-width="3" stroke-miterlimit="10"/>
<path d="M1219.51 1000.83C1226.79 999.159 1233.73 996.259 1240.02 992.254" stroke="#19030E" stroke-width="3" stroke-miterlimit="10"/>
<path d="M1244.87 994.84C1239.33 998.322 1233.21 1000.8 1226.8 1002.15" stroke="#19030E" stroke-width="3" stroke-miterlimit="10"/>
<path d="M1269.26 959.561C1267.39 968.697 1263.22 977.21 1257.13 984.299" stroke="#19030E" stroke-width="3" stroke-miterlimit="10"/>
<path d="M1235.46 989.549C1229.31 993.846 1222.57 997.241 1215.45 999.629" stroke="#19030E" stroke-width="3" stroke-miterlimit="10"/>
<path d="M1265.7 946.19C1262.55 958.148 1256.55 969.178 1248.22 978.355" stroke="#19030E" stroke-width="3" stroke-miterlimit="10"/>
<path d="M1195.63 941.698C1195.63 941.698 1210.51 983.474 1249.5 996.766" stroke="#19030E" stroke-width="3" stroke-miterlimit="10"/>
<path d="M1198.94 938.656C1198.94 938.656 1215.53 978.988 1254 993.534C1320.93 993.916 1335.42 996.832 1335.59 999.51C1335.8 1002.77 1315.18 1008.34 1300.43 1010.72C1291.38 1012.19 1276.65 1013.74 1258.64 1019.96C1254.49 1021.4 1249.81 1023.2 1250.02 1024.58C1250.29 1026.35 1258.56 1026.63 1265.94 1026.56L1389.98 1029.01" stroke="#19030E" stroke-width="3" stroke-miterlimit="10"/>
<path d="M1202.4 933.544C1202.4 933.544 1216.29 971.6 1258.36 991.166" stroke="#19030E" stroke-width="3" stroke-miterlimit="10"/>
<path d="M1205.99 930.576C1205.99 930.576 1220.17 963.862 1261.3 987.61" stroke="#19030E" stroke-width="3" stroke-miterlimit="10"/>
<path d="M1264.2 975.802C1264.67 976.693 1265.12 977.596 1265.52 978.5" stroke="#19030E" stroke-width="3" stroke-miterlimit="10"/>
<path d="M1243.3 948.743C1248.61 953.89 1253.46 959.483 1257.8 965.459" stroke="#19030E" stroke-width="3" stroke-miterlimit="10"/>
<path d="M1215.45 925.509C1219.22 928.089 1222.83 930.872 1226.38 933.735" stroke="#19030E" stroke-width="3" stroke-miterlimit="10"/>
<path d="M1247.78 946.012C1252.57 950.492 1256.91 955.438 1260.71 960.775" stroke="#19030E" stroke-width="3" stroke-miterlimit="10"/>
<path d="M1220.3 924.045C1223.79 926.374 1227.16 928.874 1230.47 931.446" stroke="#19030E" stroke-width="3" stroke-miterlimit="10"/>
<path d="M1252.4 943.406C1256.03 947.264 1259.41 951.352 1262.51 955.643" stroke="#19030E" stroke-width="3" stroke-miterlimit="10"/>
<path d="M1226.47 922.99C1229.66 924.643 1232.7 926.542 1235.59 928.669" stroke="#19030E" stroke-width="3" stroke-miterlimit="10"/>
<path d="M1256.4 941.368C1259.22 944.752 1261.84 948.294 1264.31 951.922" stroke="#19030E" stroke-width="3" stroke-miterlimit="10"/>
<path d="M1234.1 923.26C1236.45 923.978 1238.66 925.094 1240.63 926.558" stroke="#19030E" stroke-width="3" stroke-miterlimit="10"/>
<path d="M1210.25 987.214C1214.2 990.811 1218.65 993.829 1223.46 996.179" stroke="#19030E" stroke-width="3" stroke-miterlimit="10"/>
<path d="M1190.24 955.781C1192.7 960.399 1193.34 965.795 1196.52 970.056" stroke="#19030E" stroke-width="3" stroke-miterlimit="10"/>
<path d="M1208.56 991.047C1211.87 994.11 1215.51 996.794 1219.42 999.049" stroke="#19030E" stroke-width="3" stroke-miterlimit="10"/>
<path d="M1190.55 964.021C1191.64 967.431 1193.08 970.722 1194.84 973.843" stroke="#19030E" stroke-width="3" stroke-miterlimit="10"/>
<path d="M1214.21 980.637C1214.49 984.345 1214.87 988.052 1215.45 991.72" stroke="#19030E" stroke-width="3" stroke-miterlimit="10"/>
<path d="M1215.53 926.288C1214.98 931.413 1214.53 937.344 1214.2 942.489" stroke="#19030E" stroke-width="3" stroke-miterlimit="10"/>
<path d="M1218.04 976.831C1218.41 982.597 1218.96 988.345 1219.69 994.075" stroke="#19030E" stroke-width="3" stroke-miterlimit="10"/>
<path d="M1219.18 928.676C1218.79 932.08 1218.51 935.497 1218.22 938.914" stroke="#19030E" stroke-width="3" stroke-miterlimit="10"/>
<path d="M1222.71 980.657C1223.22 985.745 1223.88 990.814 1224.7 995.862" stroke="#19030E" stroke-width="3" stroke-miterlimit="10"/>
<path d="M1222.57 931.09C1222.41 932.845 1222.25 934.6 1222.13 936.368" stroke="#19030E" stroke-width="3" stroke-miterlimit="10"/>
<path d="M1210.77 927.62C1210.22 931.111 1210.04 934.648 1210.22 938.175" stroke="#19030E" stroke-width="3" stroke-miterlimit="10"/>
<path d="M1227.47 984.338C1227.47 984.338 1228.58 993.501 1228.68 993.534" stroke="#19030E" stroke-width="3" stroke-miterlimit="10"/>
<path d="M1247.19 953.182C1242.35 957.498 1237.07 961.307 1231.45 964.548" stroke="#19030E" stroke-width="3" stroke-miterlimit="10"/>
<path d="M1259.31 940.141C1258.78 940.818 1258.25 941.491 1257.71 942.159" stroke="#19030E" stroke-width="3" stroke-miterlimit="10"/>
<path d="M1250.7 956.302C1245.94 960.853 1240.59 964.745 1234.78 967.873" stroke="#19030E" stroke-width="3" stroke-miterlimit="10"/>
<path d="M1262.62 941.46C1261.74 942.889 1260.82 944.29 1259.86 945.662" stroke="#19030E" stroke-width="3" stroke-miterlimit="10"/>
<path d="M1253.01 959.139C1248.32 963.745 1243.09 967.776 1237.44 971.145" stroke="#19030E" stroke-width="3" stroke-miterlimit="10"/>
<path d="M1264.61 944.758C1263.84 945.959 1263.05 947.146 1262.22 948.307" stroke="#19030E" stroke-width="3" stroke-miterlimit="10"/>
<path d="M1254.25 961.758C1250.85 966.435 1246.46 970.315 1241.4 973.124" stroke="#19030E" stroke-width="3" stroke-miterlimit="10"/>
<path d="M1256.65 963.889C1253.62 969.156 1248.97 973.318 1243.39 975.762" stroke="#19030E" stroke-width="3" stroke-miterlimit="10"/>
<path d="M1244.71 950.695C1242.37 952.661 1239.93 954.64 1237.42 956.632C1234.73 958.765 1232.08 960.806 1229.46 962.754" stroke="#19030E" stroke-width="3" stroke-miterlimit="10"/>
<path d="M1196.29 942.779C1196.29 942.779 1192.13 953.994 1193.64 964.548" stroke="#19030E" stroke-width="3" stroke-miterlimit="10"/>
<path d="M1197.62 946.078C1197.62 946.078 1196.66 962.345 1197.8 966.415" stroke="#19030E" stroke-width="3" stroke-miterlimit="10"/>
<path d="M1200.34 951.685C1199.99 954.865 1199.97 958.072 1200.27 961.257" stroke="#19030E" stroke-width="3" stroke-miterlimit="10"/>
</g>
<g clip-path="url(#clip4_783_284)">
<path d="M615.914 799.807C612.465 796.069 597.381 779.739 575.207 780.32C570.44 780.466 565.725 781.357 561.235 782.963C561.103 781.97 560.651 781.046 559.948 780.332C559.245 779.617 558.328 779.149 557.336 778.999C556.559 778.956 555.783 779.116 555.087 779.464C554.39 779.811 553.797 780.334 553.365 780.981C552.346 778.107 551.128 777.751 550.717 777.678C548.381 777.282 545.74 781.694 544.76 784.944C544.005 787.547 543.975 790.306 544.674 792.924C541.936 795.466 539.52 798.332 537.479 801.459C529.861 813.184 530.08 825.048 530.199 829.203C530.861 853.143 549.44 879.903 568.588 880.729C575.783 881.039 584.421 877.75 586.129 877.096C593.231 874.387 597.897 870.939 602.014 867.848C607.23 863.937 615.609 857.562 622.202 846.379C626.219 839.561 629.284 834.382 629.482 827.222C629.813 814.882 621.546 805.911 615.914 799.807Z" fill="#FFEEDC" stroke="black" stroke-width="5" stroke-miterlimit="10"/>
<path d="M530.166 821.607C528.266 826.535 519.529 849.351 515.968 863.223C515.273 865.932 513.982 871.435 516.63 873.793C517.629 874.678 519.939 875.775 521.925 875.114C523.249 874.645 523.811 873.555 524.573 873.793C525.493 874.077 525.188 875.841 525.896 877.096C527.948 880.736 537.857 878.793 539.796 878.417C544.08 877.558 548.191 875.995 551.962 873.793C548.928 871.48 546.178 868.819 543.767 865.866C542.583 864.406 538.631 859.372 535.163 850.012C531.836 840.91 530.145 831.295 530.166 821.607Z" fill="#893E00" stroke="black" stroke-width="4" stroke-miterlimit="10"/>
<path d="M583.229 780.842C588.491 780.366 612.862 778.2 627.219 778.556C630.019 778.629 635.678 778.88 637.227 782.071C637.809 783.28 638.253 785.816 637.054 787.521C636.24 788.683 635.069 788.908 635.069 789.7C635.069 790.665 636.876 790.85 637.888 791.874C640.841 794.84 636.273 803.817 635.373 805.581C633.388 809.461 630.769 812.984 627.623 816.005C623.146 807.337 616.873 799.719 609.22 793.657C601.568 787.594 592.71 783.226 583.236 780.842H583.229Z" fill="#893E00" stroke="black" stroke-width="4" stroke-miterlimit="10"/>
<path d="M577.524 834.158C577.385 834.99 577.034 835.38 572.891 839.443C564.068 848.103 560.149 851.756 560.977 853.315C561.506 854.312 563.426 853.434 564.286 854.636C565.947 856.948 558.839 862.946 560.315 865.205C561.116 866.421 563.843 865.417 564.286 866.526C564.65 867.431 562.962 868.356 560.977 871.811C559.706 874.044 559.613 875.074 559.653 875.775C559.752 877.347 560.593 878.14 560.315 878.417C559.6 879.137 553.444 874.136 553.034 873.793C549.155 870.543 547.216 868.918 545.091 866.526C544.489 865.866 538.472 859.002 535.825 851.333C532.151 840.764 532.403 821.666 543.436 816.078C556.893 809.267 578.848 826.403 577.524 834.158Z" fill="#893E00" stroke="black" stroke-width="4" stroke-miterlimit="10"/>
<path d="M584.805 828.873C587.101 828.662 587.141 827.367 592.086 824.249C597.467 820.867 604.105 818.786 605.489 820.537C606.277 821.527 604.827 822.987 605.595 824.091C607.203 826.442 615.285 821.825 616.906 823.985C617.78 825.154 615.9 827.367 616.787 828.166C617.674 828.966 619.402 827.268 622.897 826.845C626.544 826.429 628.046 827.876 629.158 826.845C630.575 825.524 629.363 822.036 628.496 819.579C627.266 816.19 625.54 813.003 623.373 810.119C617.529 802.06 614.57 798.057 612.24 796.247C602.914 788.967 592.046 789.238 590.762 789.238C586.638 789.39 575.538 789.793 570.905 797.826C567.344 804.022 569.786 811.084 570.905 814.34C573.202 821.025 579.079 829.415 584.805 828.873Z" fill="#893E00" stroke="black" stroke-width="4" stroke-miterlimit="10"/>
<path d="M586.44 829.362C588.505 830.439 589.941 835.895 586.824 838.822C583.554 841.88 577.981 839.641 577.16 837.441C575.982 834.277 583.382 827.77 586.44 829.362Z" fill="black"/>
<path d="M586.248 839.337L588.776 842.745Z" fill="#FEEFD8"/>
<path d="M586.248 839.337L588.776 842.745" stroke="black" stroke-width="2" stroke-miterlimit="10"/>
<path d="M588.286 842.191L582.819 852.04C584.693 852.999 586.807 853.389 588.9 853.16C590.993 852.931 592.973 852.094 594.594 850.753C596.215 849.411 597.406 847.625 598.019 845.614C598.632 843.604 598.64 841.458 598.043 839.443L588.286 842.191Z" fill="#FF473E" stroke="black" stroke-width="2" stroke-miterlimit="10"/>
<path d="M588.928 842.646L592.827 847.31Z" fill="#FEEFD8"/>
<path d="M588.928 842.646L592.827 847.31" stroke="black" stroke-miterlimit="10"/>
<path d="M555.88 844.067C552.895 843.3 551.856 839.244 551.737 837.045C551.684 835.948 551.558 833.596 553.12 832.123C554.947 830.399 557.806 831.066 559.335 831.423C560.864 831.78 563.247 832.335 564.167 834.231C565.444 836.873 563.227 840.295 561.407 841.959C560.679 842.62 558.389 844.727 555.88 844.067Z" fill="black"/>
<path d="M557.005 832.176C557.283 832.33 557.513 832.559 557.667 832.837C557.852 833.29 557.888 833.791 557.769 834.266C557.65 834.741 557.382 835.166 557.005 835.479C556.046 836.325 554.292 836.364 553.696 835.479C553.1 834.594 553.769 833.174 554.761 832.513C555.094 832.31 555.464 832.176 555.849 832.119C556.235 832.061 556.628 832.08 557.005 832.176Z" fill="white"/>
<path d="M587.671 818.997C584.891 817.676 584.666 813.468 584.99 811.288C585.149 810.205 585.486 807.88 587.307 806.744C589.438 805.422 592.105 806.631 593.535 807.279C594.965 807.926 597.189 808.943 597.725 810.991C598.46 813.818 595.613 816.751 593.495 818.02C592.655 818.528 590.001 820.12 587.671 818.997Z" fill="black"/>
<path d="M590.689 807.424C590.942 807.644 591.13 807.93 591.232 808.25C591.332 808.763 591.266 809.296 591.045 809.77C590.824 810.245 590.459 810.637 590.001 810.892C588.842 811.553 587.042 811.255 586.618 810.232C586.195 809.208 587.174 807.84 588.326 807.358C588.703 807.207 589.108 807.135 589.514 807.146C589.921 807.158 590.321 807.252 590.689 807.424Z" fill="white"/>
<path d="M551.962 874.751L517.292 912.107C511.812 917.295 508.205 924.147 507.032 931.594C506.186 937.394 506.87 943.314 509.018 948.769C509.018 936.416 516.557 925.536 527.551 921.685C541.61 916.764 553.623 926.052 554.351 926.64C552.454 920.782 551.889 914.576 552.696 908.474C553.716 901.062 556.595 895.764 558.653 891.959C560.701 888.19 563.142 884.648 565.934 881.39C563.221 880.452 560.569 879.349 557.991 878.087C555.767 876.997 553.755 875.867 551.962 874.751Z" fill="#893E00" stroke="black" stroke-width="5" stroke-miterlimit="10"/>
<path d="M650.001 923.667C650.913 910.959 650.134 898.187 647.684 885.683C646.109 877.71 644.759 870.827 640.735 862.233C637.1 854.469 632.274 847.32 626.431 841.041C624.643 844.53 622.564 847.862 620.216 851.003C616.901 855.356 613.129 859.342 608.964 862.893C604.854 866.386 600.421 869.483 595.726 872.141C591.154 874.917 586.265 877.134 581.164 878.747C576.22 880.259 571.106 881.147 565.941 881.39C560.256 886.948 556.119 893.886 553.935 901.523C551.751 909.16 551.595 917.233 553.484 924.949C542.483 918.145 528.776 918.805 519.608 926.309C509.018 934.983 509.594 948.604 509.68 950.09C510.281 954.474 512.118 958.598 514.975 961.981C520.303 968.045 527.723 969.161 538.141 970.568C547.363 971.804 556.704 971.866 565.941 970.753C566.51 970.753 566.603 977.835 574.545 974.532C574.545 974.532 577.888 978.912 582.832 974.076C583.888 974.831 585.161 975.223 586.459 975.193C586.665 975.193 589.769 975.027 591.093 972.55C591.49 971.802 591.688 970.965 591.669 970.119C593.654 970.053 595.686 969.987 597.712 969.908C600.015 969.822 602.305 969.723 604.589 969.624C604.204 970.406 604.084 971.291 604.245 972.147C604.406 973.003 604.84 973.784 605.483 974.374C606.126 974.963 606.942 975.329 607.811 975.417C608.679 975.505 609.552 975.311 610.301 974.862C611.463 975.656 612.872 976.008 614.272 975.853C614.97 975.761 615.644 975.537 616.258 975.193C617.038 975.711 617.973 975.944 618.905 975.853C619.269 975.807 620.229 975.582 622.215 973.211C623.229 971.982 624.116 970.654 624.862 969.247C631.544 965.912 637.245 960.905 641.41 954.714C645.083 949.133 646.553 943.821 647.625 939.95C648.849 935.491 649.597 930.94 650.001 923.667Z" fill="#FFEEDC" stroke="black" stroke-width="5" stroke-miterlimit="10"/>
<path d="M558.521 939.045C558.521 939.045 564.617 966.975 566.603 970.753Z" fill="#FEEFD8"/>
<path d="M558.521 939.045C558.521 939.045 564.617 966.975 566.603 970.753" stroke="black" stroke-width="3" stroke-miterlimit="10"/>
<path d="M593.74 915.74C595.572 933.607 594.68 951.648 591.093 969.247Z" fill="#FEEFD8"/>
<path d="M593.74 915.74C595.572 933.607 594.68 951.648 591.093 969.247" stroke="black" stroke-width="3" stroke-miterlimit="10"/>
<path d="M610.949 919.043C611.814 935.694 610.253 952.383 606.316 968.587Z" fill="#FEEFD8"/>
<path d="M610.949 919.043C611.814 935.694 610.253 952.383 606.316 968.587" stroke="black" stroke-width="3" stroke-miterlimit="10"/>
<path d="M622.864 971.89C624.234 968.864 625.584 965.555 626.835 961.981C628.798 956.377 630.347 950.636 631.468 944.806" fill="#FEEFD8"/>
<path d="M622.864 971.89C624.234 968.864 625.584 965.555 626.835 961.981C628.798 956.377 630.347 950.636 631.468 944.806" stroke="black" stroke-width="3" stroke-miterlimit="10"/>
<path d="M604.165 867.451L597.712 868.838C595.635 869.187 593.625 869.856 591.755 870.82C589.603 871.989 589.186 872.802 589.107 873.463C589.028 874.123 589.319 874.665 589.769 875.444C592.416 880.068 592.311 879.916 592.416 880.068C594.72 883.279 595.878 884.891 597.712 885.353C598.581 885.564 599.489 885.564 600.359 885.353C601.062 884.734 601.725 884.072 602.345 883.371C604.804 880.551 606.57 877.196 607.501 873.575L613.286 870.582C619.581 870.206 624.201 869.519 625.511 868.838C626.104 868.582 626.578 868.109 626.835 867.517C626.972 867.088 626.972 866.626 626.835 866.196C625.942 863.684 624.835 861.253 623.525 858.93C622.354 856.851 621.026 854.863 619.554 852.984C618.977 852.564 618.283 852.333 617.568 852.324C616.979 852.324 615.338 852.548 612.273 857.609C610.911 859.858 609.765 862.231 608.851 864.697L604.165 867.451Z" fill="#FF3E3E" stroke="black" stroke-width="3" stroke-miterlimit="10"/>
<path d="M612.273 866.196L615.583 863.554" stroke="#820000" stroke-miterlimit="10"/>
<path d="M604.662 871.151L599.638 874.216" stroke="#820000" stroke-miterlimit="10"/>
<path d="M516.299 913.098C513.616 910.945 511.175 908.509 509.018 905.831C505.1 900.938 502.178 895.328 500.414 889.317C500.162 888.656 498.295 883.788 493.133 882.05C490.767 881.28 488.218 881.28 485.852 882.05C481.53 877.585 475.884 875.187 471.952 876.766C466.525 878.939 462.99 889.237 468.643 899.886C466.829 900.771 462.335 903.288 460.038 908.474C457 915.337 459.065 924.037 465.333 930.273C465.922 932.393 469.914 945.929 483.866 952.733C495.873 958.585 507.112 955.494 509.68 954.714C507.287 949.314 506.156 943.441 506.371 937.539C506.887 924.618 513.863 915.892 516.299 913.098Z" fill="#FFEEDC" stroke="black" stroke-width="5" stroke-miterlimit="10"/>
<path d="M604.331 867.517C604.299 868.643 604.52 869.761 604.978 870.79C605.437 871.818 606.12 872.732 606.978 873.463L613.286 870.582C613.286 869.294 612.948 868.029 612.306 866.912C611.664 865.795 610.74 864.865 609.626 864.214L604.331 867.517Z" fill="#FF3E3E" stroke="black" stroke-width="2" stroke-miterlimit="10"/>
</g>
<g clip-path="url(#clip5_783_284)">
<path d="M876.402 820.787C877.931 821.446 885.2 824.92 887.987 832.982C890.51 840.233 889.199 850.832 881.367 855.394C873.668 859.876 862.235 857.042 856.542 847.813C857.259 845.001 857.259 842.056 856.542 839.244C854.264 830.675 845.195 825.803 841.977 824.083C838.76 822.363 836.218 821.598 836.35 821.117C836.509 820.517 840.481 821.354 849.59 822.435C859.646 823.628 864.009 824.597 870.113 823.094C872.287 822.555 874.396 821.782 876.402 820.787Z" fill="#FF473E" stroke="black" stroke-width="4" stroke-miterlimit="10"/>
<path d="M783.72 828.697C759.288 832.287 735.459 839.161 712.884 849.132C712.534 849.29 710.13 850.312 708.25 849.132C706.483 848.018 706.337 845.684 706.264 844.517C705.966 839.673 709.31 834.59 713.546 831.993C715.645 830.675 716.261 831.103 718.843 829.356C719.465 828.935 724.801 825.276 724.139 823.424C723.616 821.928 720.047 821.407 715.605 822.106C720.654 821.356 725.42 819.311 729.435 816.173C730.759 815.099 737.505 809.753 736.055 806.285C735.287 804.453 732.54 803.86 730.759 803.649C736.949 802.205 741.411 797.677 742.013 792.443C742.073 791.929 742.615 786.431 738.703 783.214C734.91 780.096 728.442 780.367 723.477 784.533C723.053 781.599 721.967 780.083 720.829 779.259C712.342 773.109 687.311 795.475 685.206 797.387C684.385 796.207 683.014 794.677 681.108 794.42C677.46 793.932 674.302 798.441 672.501 801.012C669.926 804.69 665.438 812.686 665.219 826.72C661.391 834.761 659.501 843.581 659.701 852.478C659.901 861.374 662.185 870.101 666.371 877.964C648.596 897.627 645.756 925.695 658.599 946.03C673.859 970.182 703.418 971.079 705.602 971.079L759.225 974.375C761.197 975.65 763.494 976.336 765.846 976.352C767.173 976.349 768.491 976.126 769.745 975.693C773.106 976.187 776.538 975.611 779.549 974.045C780.481 974.304 781.459 974.349 782.41 974.178C783.362 974.007 784.262 973.623 785.044 973.056C785.994 972.278 786.691 971.235 787.044 970.061C787.398 968.887 787.393 967.635 787.03 966.464L811.525 967.783C819.634 973.068 829.374 975.289 838.985 974.045C850.118 968.347 862.582 965.73 875.078 966.464C876.841 966.6 878.611 966.6 880.374 966.464C882.961 966.259 885.515 965.76 887.987 964.975C889.893 964.468 891.771 963.865 893.614 963.169C895.296 962.509 896.845 961.85 898.249 961.191L902.221 959.873C903.701 958.875 904.862 957.474 905.566 955.839C906.27 954.203 906.488 952.4 906.193 950.644C905.213 946.228 899.427 944.25 896.924 943.393C888.59 940.546 880.632 943.222 877.064 944.712C880.473 941.42 883.373 937.644 885.67 933.506C889.346 926.822 891.387 919.37 891.628 911.753C893.614 913.21 895.005 913.157 895.6 913.071C898.818 912.61 901.698 907.884 901.559 901.206C900.534 883.937 894.333 867.371 883.757 853.647C882.863 854.267 875.813 858.96 867.134 856.383C862.16 854.837 857.998 851.403 855.549 846.825C843.057 850.642 829.752 850.971 817.085 847.774C804.419 844.577 792.877 837.979 783.72 828.697Z" fill="#FFF8F0" stroke="black" stroke-width="5" stroke-miterlimit="10"/>
<path d="M722.278 908.128C722.278 908.128 751.566 920.362 755.227 947.203" stroke="black" stroke-width="5" stroke-miterlimit="10"/>
<path d="M749.15 947.203C749.15 947.203 773.459 950.315 787.03 966.465" stroke="black" stroke-width="5" stroke-miterlimit="10"/>
<path d="M810.532 916.038C819.09 918.044 827.113 921.868 834.051 927.247C840.989 932.625 846.678 939.433 850.729 947.203L869.795 948.957L882.645 942.517" stroke="black" stroke-width="5" stroke-miterlimit="10"/>
<path d="M890.304 906.48C889.808 916.143 886.432 921.845 884.459 924.548C881.605 928.45 879.864 928.575 879.255 928.562C876.607 928.49 873.992 925.055 872.761 919.861" stroke="black" stroke-width="5" stroke-miterlimit="10"/>
<path d="M785.375 830.345C788.685 834.808 799.84 848.459 819.8 853.68C830.449 856.425 841.636 856.334 852.238 853.416C852.336 856.05 853.262 858.586 854.887 860.667C857.985 864.517 863.744 866.6 868.789 864.622C873.125 862.935 874.972 859.032 875.409 858.03C871.949 858.198 868.501 857.502 865.379 856.005C862.258 854.509 859.561 852.259 857.535 849.461L855.549 847.484L785.375 830.345Z" fill="#C9F2EE" stroke="black" stroke-width="5" stroke-miterlimit="10"/>
<path d="M866.399 823.734C866.399 823.734 879.096 830.549 878.415 839.844" stroke="black" stroke-width="3" stroke-miterlimit="10"/>
<path d="M837.674 759.814L813.842 765.087C810.741 758.29 806.228 752.224 800.601 747.289C794.862 742.313 783.826 735.022 780.079 738.061C778.953 738.971 778.755 740.612 778.755 742.016C779.196 748.827 779.638 755.639 780.079 762.45C777.987 761.745 777.153 762.101 776.769 762.45C775.266 763.815 776.683 768.818 778.755 772.338C779.966 774.401 781.257 775.706 780.741 776.952C780.225 778.198 778.563 777.862 778.093 778.93C777.252 780.861 781.496 784.618 784.051 786.84C788.275 790.518 791.737 792.496 791.333 793.432C791.148 793.853 790.36 793.636 788.685 794.091C786.714 795.101 784.976 796.509 783.581 798.224C781.514 800.815 780.292 803.972 780.079 807.274C779.668 811.229 779.589 818.164 783.389 825.072C784.156 826.463 785.042 827.787 786.037 829.027C794.676 838.337 805.829 844.969 818.159 848.125C830.488 851.282 843.47 850.831 855.549 846.825C856.179 845.811 856.627 844.696 856.873 843.529C857.746 839.277 855.482 835.619 854.225 833.641C848.69 824.782 833.179 820.82 831.716 820.458C840.422 821.585 848.021 822.435 854.225 823.094C862.235 823.931 865.413 824.156 869.451 823.094C876.237 821.315 880.884 817.102 883.512 814.202C884.174 813.629 887.987 810.128 887.987 804.637C887.987 799.654 884.849 795.007 879.984 792.772C880.003 789.652 879.577 786.545 878.719 783.544C877.122 778.066 874.162 773.078 870.113 769.042C868.288 763.618 866.076 758.331 863.493 753.222C863.493 753.222 855.985 738.377 844.294 730.151C841.871 728.444 840.839 728.503 840.322 728.833C839.342 729.452 839.561 731.423 839.66 732.128C840.102 736.303 840.543 740.478 840.984 744.653C840.653 744.574 838.502 744.079 837.012 745.312C835.304 746.723 835.026 749.926 837.012 752.563C835.066 752.391 834.516 753.011 834.364 753.222C833.55 754.369 834.775 757.039 837.674 759.814Z" fill="#FFF8F0" stroke="black" stroke-width="5" stroke-miterlimit="10"/>
<path d="M788.023 759.154C791.359 762.009 794.034 765.549 795.862 769.532C797.691 773.515 798.63 777.846 798.615 782.225" stroke="black" stroke-width="3" stroke-miterlimit="10"/>
<path d="M803.249 797.386C798.893 801.823 797.622 806.529 799.277 808.592C799.588 808.981 800.429 809.799 802.587 809.911C801.667 811.585 801.263 813.259 801.925 813.866C802.66 814.571 804.924 813.978 807.221 811.888" stroke="black" stroke-width="3" stroke-miterlimit="10"/>
<path d="M842.639 789.147C843.235 790.409 843.679 791.736 843.963 793.102C844.44 795.343 844.625 796.563 843.963 797.716C843.096 799.166 841.315 799.542 840.653 799.694C839.078 799.996 837.446 799.764 836.019 799.034C832.199 796.918 831.584 790.821 833.04 786.84C833.391 785.884 834.245 783.544 836.019 783.214C837.555 782.924 839.011 784.282 839.991 785.192C841.136 786.316 842.037 787.662 842.639 789.147Z" fill="black"/>
<path d="M870.444 792.898C870.12 793.049 869.98 792.898 868.458 793.102C866.578 793.333 866.293 793.603 865.81 793.557C863.407 793.339 860.626 786.55 862.5 781.237C863.268 779.081 864.267 778.679 864.486 778.6C866.472 777.895 868.815 780.274 869.12 780.578C873.039 784.533 872.43 791.988 870.444 792.898Z" fill="black"/>
<path d="M853.894 798.375C857.091 796.466 860.546 795.023 864.155 794.091C869.563 792.708 875.204 792.483 880.705 793.431" stroke="black" stroke-width="3" stroke-miterlimit="10"/>
<path d="M870.097 806.966C874.906 806.137 878.469 803.531 878.055 801.146C877.64 798.761 873.405 797.499 868.595 798.328C863.786 799.157 860.223 801.762 860.638 804.148C861.052 806.533 865.287 807.795 870.097 806.966Z" fill="black"/>
<path d="M838.782 787.386C839.189 787.02 839.022 786.175 838.409 785.5C837.796 784.825 836.969 784.575 836.562 784.941C836.156 785.307 836.323 786.151 836.936 786.826C837.549 787.501 838.375 787.752 838.782 787.386Z" fill="white"/>
<path d="M867.225 782.625C867.7 782.352 867.715 781.492 867.258 780.704C866.801 779.915 866.045 779.498 865.57 779.771C865.095 780.044 865.081 780.904 865.538 781.692C865.995 782.48 866.75 782.898 867.225 782.625Z" fill="white"/>
<path d="M774.783 967.453C776.266 967.941 777.596 968.805 778.641 969.961C779.686 971.118 780.41 972.525 780.741 974.045" stroke="black" stroke-width="3" stroke-miterlimit="10"/>
<path d="M766.177 970.749C767.154 970.966 768.064 971.419 768.825 972.067C769.819 972.93 770.515 974.084 770.811 975.363" fill="#FCCE83"/>
<path d="M766.177 970.749C767.154 970.966 768.064 971.419 768.825 972.067C769.819 972.93 770.515 974.084 770.811 975.363" stroke="black" stroke-width="3" stroke-miterlimit="10"/>
<path d="M884.677 956.247C885.802 956.237 886.916 956.466 887.944 956.921C888.972 957.376 889.89 958.046 890.635 958.884C891.593 960.051 892.171 961.481 892.29 962.984" stroke="black" stroke-width="3" stroke-miterlimit="10"/>
<path d="M895.269 950.315C897.338 950.717 899.191 951.851 900.485 953.507C901.78 955.164 902.429 957.23 902.313 959.326" stroke="black" stroke-width="3" stroke-miterlimit="10"/>
</g>
<g clip-path="url(#clip6_783_284)">
<path d="M1384.05 670.055C1383.42 664.756 1384.59 659.399 1387.36 654.841C1390.78 649.423 1395.62 647.048 1398.62 645.58C1402.55 643.66 1406.83 642.536 1411.2 642.272L1418.48 631.689C1419.86 628.838 1422.02 627.316 1423.11 627.72C1424.21 628.123 1424.97 630.941 1423.78 634.335C1424.19 634.139 1424.64 634.038 1425.1 634.038C1425.56 634.038 1426.01 634.139 1426.42 634.335C1427.65 635.069 1428.14 637.113 1427.09 638.965C1426.87 639.627 1426.64 640.288 1426.42 640.949C1426.91 641.041 1427.37 641.251 1427.76 641.563C1428.15 641.874 1428.46 642.276 1428.66 642.734C1428.85 643.192 1428.93 643.691 1428.89 644.188C1428.85 644.684 1428.68 645.162 1428.41 645.58C1428.19 646.241 1427.97 646.903 1427.75 647.564C1431.05 650.371 1433.69 653.872 1435.49 657.817C1436.32 659.656 1440.59 669.135 1436.36 679.315C1434.42 683.879 1431.2 687.784 1427.09 690.56C1415.51 698.353 1395.66 697.393 1387.6 685.672C1386.28 683.76 1383.3 678.674 1384.05 670.055Z" fill="#FFFDE1" stroke="black" stroke-width="5" stroke-miterlimit="10"/>
<path d="M1384.05 670.054C1385.75 672.409 1386.89 675.126 1387.36 677.992C1387.69 679.964 1387.69 681.974 1387.36 683.945C1385.56 685.268 1383.57 686.591 1381.4 687.914C1379.82 688.887 1378.27 689.767 1376.77 690.56L1384.71 679.977L1362.2 676.008C1369.06 672.697 1376.47 670.679 1384.05 670.054Z" fill="#F9D523" stroke="black" stroke-width="3" stroke-miterlimit="10"/>
<path d="M1401.12 670.054C1403.03 670.054 1404.58 668.055 1404.58 665.589C1404.58 663.124 1403.03 661.125 1401.12 661.125C1399.21 661.125 1397.66 663.124 1397.66 665.589C1397.66 668.055 1399.21 670.054 1401.12 670.054Z" fill="black"/>
<path d="M1393.98 693.206C1396.63 694.926 1402.13 696.189 1408.55 696.514C1423.11 697.248 1432.63 685.619 1433.75 684.203L1443.64 677.992L1445.62 687.914L1435.69 687.253C1433.76 690.523 1431.54 693.622 1429.07 696.514C1421.98 704.828 1415.28 708.46 1407.89 713.712C1400.49 718.994 1393.62 724.975 1387.36 731.572C1386.55 724.742 1386.77 717.829 1388.02 711.066C1389.56 702.798 1391.67 697.598 1393.98 693.206Z" fill="#649B54" stroke="black" stroke-width="5" stroke-miterlimit="10"/>
<path d="M1391.34 728.265C1390.92 731.479 1388.92 749.663 1401.85 765.837C1415.32 782.678 1434.57 784.285 1437.68 784.49C1442.43 796.847 1447.09 807.086 1450.92 814.918C1455.22 823.395 1460.09 831.571 1465.49 839.393C1465.49 839.393 1469.01 844.5 1476.08 850.638C1476.08 850.638 1478.87 853.059 1487.33 855.93C1487.44 855.976 1487.55 856 1487.67 856C1487.78 856 1487.89 855.976 1488 855.93C1489.17 855.176 1486.48 849.057 1486.01 847.992C1484.44 844.453 1482.44 841.12 1480.05 838.07C1480.68 838.556 1481.44 838.834 1482.23 838.863C1483.02 838.892 1483.8 838.671 1484.46 838.232C1485.12 837.793 1485.63 837.158 1485.9 836.416C1486.18 835.675 1486.22 834.865 1486.01 834.101C1486.67 834.353 1492.67 836.476 1494.62 834.101C1495.94 832.514 1494.8 829.676 1493.29 826.163C1491.31 821.533 1488.49 815.223 1484.69 807.642C1485.27 808.02 1485.92 808.275 1486.6 808.388C1487.29 808.502 1487.99 808.473 1488.66 808.304C1489.21 808.166 1489.73 807.919 1490.18 807.579C1490.64 807.238 1491.02 806.81 1491.31 806.319C1491.61 805.702 1491.77 805.023 1491.77 804.335C1491.77 803.646 1491.61 802.967 1491.31 802.35L1487.33 796.397L1483.36 790.444C1486.52 792.355 1494.2 796.721 1496.6 794.412C1498.48 792.613 1496.32 787.533 1495.28 785.152C1480.98 752.369 1473.5 736.202 1466.81 725.619C1457.1 710.292 1444.3 698.141 1435.03 687.914C1427.83 698.69 1420.59 704.802 1415.17 708.42C1411.79 710.683 1407.22 713.223 1401.27 718.342C1397.71 721.39 1394.39 724.707 1391.34 728.265Z" fill="#FFFDE1" stroke="black" stroke-width="5" stroke-miterlimit="10"/>
<path d="M1418.48 707.097C1423.26 744.092 1427.59 762.545 1431.47 762.456C1432.7 762.421 1433.89 760.525 1435.03 756.768C1437.95 763.916 1443.36 769.769 1450.26 773.245C1455.09 775.812 1456.92 775.891 1457.54 775.23C1457.94 774.8 1457.71 774.237 1458.2 773.907C1459.32 773.166 1462.3 775.468 1462.84 775.891C1463.24 776.209 1483.63 791.985 1493.29 793.751C1493.7 793.864 1494.12 793.893 1494.53 793.835C1494.94 793.777 1495.34 793.633 1495.7 793.414C1498.22 791.429 1494.44 783.227 1494.44 783.227C1487.32 759.117 1475.94 736.472 1460.85 716.358C1453.32 706.36 1444.9 697.062 1435.69 688.576C1430.84 695.514 1425.05 701.747 1418.48 707.097Z" fill="#FFDC48" stroke="black" stroke-width="5" stroke-miterlimit="10"/>
<path d="M1451.58 762.661C1452.39 765.089 1453.6 767.358 1455.18 769.369C1456.78 771.43 1458.84 773.096 1461.18 774.237" stroke="black" stroke-width="3" stroke-miterlimit="10"/>
<path d="M1469.46 791.105C1470.67 793.725 1472.23 796.172 1474.09 798.381C1476.86 801.647 1480.23 804.343 1484.02 806.319" stroke="black" stroke-width="3" stroke-miterlimit="10"/>
<path d="M1462.18 804.335C1464.82 808.535 1467.9 812.987 1471.44 817.564C1475.56 822.887 1479.98 827.967 1484.69 832.778" stroke="black" stroke-width="3" stroke-miterlimit="10"/>
<path d="M1465.49 820.872C1469.15 826.746 1473.6 832.088 1478.73 836.747" stroke="black" stroke-width="3" stroke-miterlimit="10"/>
<path d="M1448.27 788.459C1424.66 784.933 1406.68 781.732 1383.06 778.206C1382.58 778.385 1377.2 780.468 1375.78 786.144C1375.09 789.074 1375.56 792.155 1377.1 794.743C1387.5 796.999 1397.7 799.056 1407.89 801.093V801.027L1417.82 803.012V803.078C1427.23 804.97 1436.67 806.881 1446.29 808.965L1448.27 788.459Z" fill="#5B3910" stroke="black" stroke-width="5" stroke-miterlimit="10"/>
<path d="M1407.89 801.027V801.093C1407.77 844.178 1407.66 887.262 1407.56 930.346H1416.82L1417.82 803.078V803.012L1407.89 801.027Z" fill="#5B3910" stroke="black" stroke-width="5" stroke-miterlimit="10"/>
<path d="M1447.94 810.288C1452.51 810.288 1456.22 805.253 1456.22 799.043C1456.22 792.832 1452.51 787.798 1447.94 787.798C1443.37 787.798 1439.67 792.832 1439.67 799.043C1439.67 805.253 1443.37 810.288 1447.94 810.288Z" fill="#5B3910" stroke="black" stroke-width="3" stroke-miterlimit="10"/>
<path d="M1427.75 783.167C1424.96 784.38 1422.48 786.186 1420.47 788.459C1417.85 791.45 1416.13 795.119 1415.5 799.043" stroke="#020202" stroke-width="5" stroke-miterlimit="10"/>
<path d="M1433.71 784.49C1433.19 784.682 1427.92 786.752 1426.42 792.428C1426.04 793.994 1425.98 795.621 1426.24 797.212C1426.49 798.803 1427.07 800.326 1427.93 801.689" stroke="#020202" stroke-width="5" stroke-miterlimit="10"/>
<path d="M1424.44 782.506C1421.32 782.114 1418.17 782.752 1415.45 784.323C1412.73 785.894 1410.61 788.311 1409.4 791.204" stroke="#020202" stroke-width="5" stroke-miterlimit="10"/>
<path d="M1398.62 779.198C1397.18 778.442 1395.6 777.992 1393.98 777.875C1392.56 777.776 1390.15 777.611 1388.02 779.198C1386.73 780.199 1385.8 781.592 1385.38 783.167" stroke="#020202" stroke-width="5" stroke-miterlimit="10"/>
<path d="M1405.24 779.198C1404.66 779.112 1398.15 777.876 1394.65 781.183C1392.83 782.936 1391.72 785.287 1391.52 787.798" stroke="#020202" stroke-width="5" stroke-miterlimit="10"/>
<path d="M1407.22 779.198C1405.22 779.484 1403.36 780.412 1401.93 781.844C1400.22 783.623 1399.27 785.995 1399.28 788.459" stroke="#020202" stroke-width="5" stroke-miterlimit="10"/>
<path d="M1404.91 779.198L1419.8 781.183" stroke="#020202" stroke-width="5" stroke-miterlimit="10"/>
</g>
<g clip-path="url(#clip7_783_284)">
<path d="M1321.4 935.001C1318.37 926.28 1322.42 921.221 1318.1 914.659C1316.69 912.542 1314.84 910.746 1312.68 909.389C1310.52 908.032 1308.1 907.144 1305.57 906.785C1302.43 906.395 1299.24 906.849 1296.33 908.097C1294.9 908.99 1288.82 912.973 1287.1 920.565C1285.31 928.439 1288.95 937.042 1296.33 942.219C1298.31 945.389 1301.2 949.726 1304.91 954.687C1309.98 961.466 1314.32 967.293 1320.08 972.404C1324.62 976.44 1332.62 982.306 1345.15 986.185C1344.97 986.394 1340.89 991.165 1342.51 994.059C1343.44 995.706 1345.88 996.159 1350.43 996.027C1358.11 995.738 1365.69 994.186 1372.86 991.434L1413.1 994.715C1421.81 997.714 1431.19 998.17 1440.15 996.027C1443.58 993.614 1446.12 990.16 1447.41 986.185C1454.27 987.149 1460.28 987.759 1465.22 988.153C1472.59 988.744 1484.17 987.543 1484.35 985.528C1484.39 985.102 1483.94 984.472 1481.71 983.56C1476.43 982.247 1470.94 980.716 1465.22 978.966C1460.38 977.483 1455.76 975.952 1451.37 974.373L1403.21 975.029C1392.2 973.933 1383.01 972.404 1376.16 971.092C1353.52 966.722 1346.91 962.699 1343.83 960.593C1337.42 956.203 1323.48 940.999 1321.4 935.001Z" fill="#FFEEDE" stroke="black" stroke-width="5" stroke-miterlimit="10"/>
<path d="M1331.96 948.125C1332.09 947.329 1332.39 946.569 1332.84 945.895C1333.28 945.221 1333.87 944.649 1334.55 944.215C1335.24 943.782 1336.01 943.497 1336.81 943.379C1337.61 943.261 1338.43 943.313 1339.21 943.532C1348.75 921.123 1370.66 906.982 1393.31 908.097C1420.55 909.41 1444.16 932.613 1446.09 962.562C1448.27 963.439 1450.1 965.009 1451.29 967.025C1452.48 969.042 1452.97 971.394 1452.68 973.717C1440.63 974.923 1428.51 975.361 1416.4 975.029C1397.66 974.511 1385.52 972.313 1371.54 969.78C1371.54 969.78 1367.42 969.032 1361.73 967.345C1354.1 965.088 1348.29 963.408 1342.51 959.281C1338.31 956.267 1334.73 952.48 1331.96 948.125Z" fill="#336841" stroke="black" stroke-width="5" stroke-miterlimit="10"/>
<path d="M1366.92 913.347C1368.99 917.073 1371.42 920.59 1374.18 923.846C1378.85 929.358 1385.22 936.891 1392.65 938.282C1402.32 940.1 1414.01 931.563 1421.68 917.94C1412.56 911.661 1401.76 908.234 1390.67 908.097C1382.46 908.06 1374.35 909.854 1366.92 913.347Z" fill="#1E4C29" stroke="black" stroke-width="2" stroke-miterlimit="10"/>
<path d="M1430.58 926.799C1426.95 927.11 1423.38 927.996 1420.03 929.424C1416.73 930.834 1410.97 933.302 1408.24 939.076L1408.15 939.267C1406.02 944.241 1415.95 955.343 1426.63 960.265C1432.21 962.786 1438.32 963.912 1444.44 963.546C1444.56 961.579 1444.56 959.607 1444.44 957.64C1444.09 951.984 1442.75 946.432 1440.48 941.235C1438.1 935.858 1434.75 930.964 1430.58 926.799Z" fill="#1E4C29" stroke="black" stroke-width="2" stroke-miterlimit="10"/>
<path d="M1360.66 917.612C1363.25 919.352 1365.68 921.329 1367.91 923.518C1370.51 926.07 1373.3 928.767 1375.17 932.705C1375.97 934.371 1379.93 942.613 1376.49 948.453C1372.04 955.993 1358.02 954.812 1350.1 951.734C1346.76 950.422 1341.36 948.348 1340.2 943.86C1339.05 939.372 1342.76 934.988 1347.46 929.424C1351.29 924.902 1355.73 920.927 1360.66 917.612Z" fill="#1E4C29" stroke="black" stroke-width="2" stroke-miterlimit="10"/>
<path d="M1387.7 948.453C1384.3 949.741 1380.99 951.276 1377.81 953.047C1371.26 956.688 1360.75 963.834 1361.97 966.827C1362.31 967.654 1363.45 967.89 1364.61 968.139C1378.36 971.046 1390.96 973.159 1392.32 973.389C1395.62 973.94 1396.84 974.255 1400.24 974.701C1404.17 975.3 1408.14 975.52 1412.11 975.357C1416.51 975.121 1418.71 975.114 1419.37 974.045C1420.95 971.473 1416.16 965.823 1411.45 960.265C1409.27 957.633 1406.84 955.216 1404.2 953.047C1400.7 950.205 1398.42 948.401 1394.96 947.797C1392.52 947.398 1390.03 947.624 1387.7 948.453Z" fill="#1E4C29" stroke="black" stroke-width="2" stroke-miterlimit="10"/>
<path d="M1446.09 963.874C1444.82 964.123 1443.5 964.342 1442.13 964.53C1438.63 965.011 1435.1 965.23 1431.57 965.186" fill="#170007"/>
<path d="M1446.09 963.874C1444.82 964.123 1443.5 964.342 1442.13 964.53C1438.63 965.011 1435.1 965.23 1431.57 965.186" stroke="black" stroke-miterlimit="10"/>
<path d="M1301.94 927.455C1304.13 927.455 1305.9 926.721 1305.9 925.815C1305.9 924.909 1304.13 924.174 1301.94 924.174C1299.76 924.174 1297.98 924.909 1297.98 925.815C1297.98 926.721 1299.76 927.455 1301.94 927.455Z" fill="#FFB3B3"/>
<path d="M1299.8 923.19C1300.8 923.19 1301.61 921.5 1301.61 919.417C1301.61 917.333 1300.8 915.643 1299.8 915.643C1298.8 915.643 1297.98 917.333 1297.98 919.417C1297.98 921.5 1298.8 923.19 1299.8 923.19Z" fill="black"/>
<path d="M1288.33 928.872C1289.11 928.623 1289.86 928.309 1290.59 927.934C1291.25 927.589 1291.88 927.178 1292.46 926.707" stroke="black" stroke-miterlimit="10"/>
<path d="M1424.32 984.872C1424.32 984.872 1410.23 988.022 1413.1 994.059" stroke="black" stroke-width="3" stroke-miterlimit="10"/>
<path d="M1346.47 985.528C1348.26 983.754 1350.57 982.602 1353.07 982.247" stroke="black" stroke-width="3" stroke-miterlimit="10"/>
</g>
<path d="M1547.84 370.449C1538.5 393.012 1530.54 363.284 1507.39 353.698C1484.25 344.113 1458.68 352.777 1468.02 330.214C1477.37 307.651 1506.24 291.003 1529.39 300.589C1552.53 310.174 1557.18 347.886 1547.84 370.449Z" fill="#FFD130"/>
<circle cx="1512.71" cy="272.779" r="14.8561" transform="rotate(22.4968 1512.71 272.779)" fill="#FFD130"/>
<circle cx="1472.19" cy="292.979" r="14.8561" transform="rotate(22.4968 1472.19 292.979)" fill="#FFD130"/>
<circle cx="1558.01" cy="291.538" r="14.8561" transform="rotate(22.4968 1558.01 291.538)" fill="#FFD130"/>
<circle cx="1572.39" cy="334.475" r="14.8561" transform="rotate(22.4968 1572.39 334.475)" fill="#FFD130"/>
<path d="M1815.35 866.763C1823.51 876.306 1808.03 873.024 1798.24 881.4C1788.45 889.776 1786.46 903.517 1778.3 893.974C1770.13 884.431 1769.23 867.313 1779.02 858.937C1788.81 850.561 1807.18 857.22 1815.35 866.763Z" fill="#FFD130"/>
<circle cx="1762.38" cy="860.098" r="7.64037" transform="rotate(-40.5511 1762.38 860.098)" fill="#FFD130"/>
<circle cx="1762.2" cy="883.385" r="7.64037" transform="rotate(-40.5511 1762.2 883.385)" fill="#FFD130"/>
<circle cx="1781.54" cy="843.707" r="7.64037" transform="rotate(-40.5511 1781.54 843.707)" fill="#FFD130"/>
<circle cx="1804.58" cy="847.125" r="7.64037" transform="rotate(-40.5511 1804.58 847.125)" fill="#FFD130"/>
<path d="M1624.68 602.338C1625 609.273 1619.37 602.583 1612.25 602.911C1605.14 603.239 1599.6 608.556 1599.28 601.621C1598.96 594.686 1604.39 586.915 1611.5 586.587C1618.61 586.259 1624.36 595.403 1624.68 602.338Z" fill="#FFD130"/>
<circle cx="1603.85" cy="581.444" r="4.2232" transform="rotate(-2.6389 1603.85 581.444)" fill="#FFD130"/>
<circle cx="1595.86" cy="591.536" r="4.2232" transform="rotate(-2.6389 1595.86 591.536)" fill="#FFD130"/>
<circle cx="1617.77" cy="580.802" r="4.2232" transform="rotate(-2.6389 1617.77 580.802)" fill="#FFD130"/>
<circle cx="1626.66" cy="590.117" r="4.2232" transform="rotate(-2.6389 1626.66 590.117)" fill="#FFD130"/>
<path d="M248.146 201.305C263.876 219.689 234.05 213.366 215.192 229.502C196.333 245.638 192.503 272.109 176.773 253.725C161.044 235.341 159.308 202.364 178.166 186.229C197.024 170.093 232.417 182.921 248.146 201.305Z" fill="#FFD130"/>
<circle cx="146.122" cy="188.467" r="14.7184" transform="rotate(-40.5511 146.122 188.467)" fill="#FFD130"/>
<circle cx="145.761" cy="233.327" r="14.7184" transform="rotate(-40.5511 145.761 233.327)" fill="#FFD130"/>
<circle cx="183.025" cy="156.89" r="14.7184" transform="rotate(-40.5511 183.025 156.89)" fill="#FFD130"/>
<circle cx="227.4" cy="163.475" r="14.7184" transform="rotate(-40.5511 227.4 163.475)" fill="#FFD130"/>
<path d="M431.75 481.677C427.681 493.833 422.428 478.558 409.959 474.385C397.489 470.212 384.417 475.683 388.485 463.527C392.553 451.371 407.065 441.598 419.534 445.771C432.004 449.944 435.818 469.521 431.75 481.677Z" fill="#FFD130"/>
<circle cx="409.786" cy="431.819" r="7.79799" transform="rotate(18.503 409.786 431.819)" fill="#FFD130"/>
<circle cx="389.304" cy="443.878" r="7.79799" transform="rotate(18.503 389.304 443.878)" fill="#FFD130"/>
<circle cx="434.188" cy="439.986" r="7.79799" transform="rotate(18.503 434.188 439.986)" fill="#FFD130"/>
<circle cx="443.286" cy="461.943" r="7.79799" transform="rotate(18.503 443.286 461.943)" fill="#FFD130"/>
<path d="M236.107 727.078C240.569 735.268 229.828 730.5 221.427 735.077C213.026 739.655 209.466 749.33 205.004 741.141C200.542 732.952 202.523 720.378 210.923 715.8C219.324 711.223 231.645 718.889 236.107 727.078Z" fill="#FFD130"/>
<circle cx="198.66" cy="714.083" r="5.67341" transform="rotate(-28.5847 198.66 714.083)" fill="#FFD130"/>
<circle cx="194.94" cy="730.971" r="5.67341" transform="rotate(-28.5847 194.94 730.971)" fill="#FFD130"/>
<circle cx="215.1" cy="705.125" r="5.67341" transform="rotate(-28.5847 215.1 705.125)" fill="#FFD130"/>
<circle cx="231.307" cy="711.155" r="5.67341" transform="rotate(-28.5847 231.307 711.155)" fill="#FFD130"/>
<defs>
<clipPath id="clip0_783_284">
<rect width="222" height="272" fill="white" transform="translate(902 706)"/>
</clipPath>
<clipPath id="clip1_783_284">
<rect width="204" height="250" fill="white" transform="translate(1188 728)"/>
</clipPath>
<clipPath id="clip2_783_284">
<rect width="208" height="242" fill="white" transform="translate(1015 757)"/>
</clipPath>
<clipPath id="clip3_783_284">
<rect width="202" height="108" fill="white" transform="translate(1188 922)"/>
</clipPath>
<clipPath id="clip4_783_284">
<rect width="195" height="202" fill="white" transform="translate(457 776)"/>
</clipPath>
<clipPath id="clip5_783_284">
<rect width="259" height="251" fill="white" transform="translate(649 727)"/>
</clipPath>
<clipPath id="clip6_783_284">
<rect width="140" height="306" fill="white" transform="translate(1359 626)"/>
</clipPath>
<clipPath id="clip7_783_284">
<rect width="201" height="94" fill="white" transform="translate(1285 905)"/>
</clipPath>
</defs>
</svg>
