<svg width="20" height="16" viewBox="0 0 20 16" fill="none" xmlns="http://www.w3.org/2000/svg">
<path fill-rule="evenodd" clip-rule="evenodd" d="M10 15C14.9706 15 19 11.866 19 8C19 4.13401 14.9706 1 10 1C5.02944 1 1 4.13401 1 8C1 9.81436 1.8875 11.4675 3.34327 12.7111L1.75 14.8547L5.22326 13.9338C6.6076 14.6094 8.24515 15 10 15Z" fill="white"/>
<path d="M3.34327 12.7111L3.74456 13.0094L4.02326 12.6344L3.66803 12.3309L3.34327 12.7111ZM1.75 14.8547L1.34871 14.5565L0.495265 15.7047L1.87815 15.338L1.75 14.8547ZM5.22326 13.9338L5.44254 13.4844L5.27515 13.4028L5.09511 13.4505L5.22326 13.9338ZM18.5 8C18.5 11.4802 14.8186 14.5 10 14.5V15.5C15.1225 15.5 19.5 12.2518 19.5 8H18.5ZM10 1.5C14.8186 1.5 18.5 4.51981 18.5 8H19.5C19.5 3.7482 15.1225 0.5 10 0.5V1.5ZM1.5 8C1.5 4.51981 5.18136 1.5 10 1.5V0.5C4.87752 0.5 0.5 3.7482 0.5 8H1.5ZM3.66803 12.3309C2.30149 11.1635 1.5 9.64148 1.5 8H0.5C0.5 9.98723 1.47351 11.7714 3.0185 13.0913L3.66803 12.3309ZM2.15129 15.153L3.74456 13.0094L2.94197 12.4128L1.34871 14.5565L2.15129 15.153ZM5.09511 13.4505L1.62185 14.3714L1.87815 15.338L5.3514 14.4171L5.09511 13.4505ZM10 14.5C8.31861 14.5 6.75635 14.1256 5.44254 13.4844L5.00397 14.3831C6.45885 15.0931 8.17168 15.5 10 15.5V14.5Z" fill="#D9D9D9"/>
<circle cx="5" cy="8.00049" r="1" fill="#D9D9D9"/>
<circle cx="10" cy="8.00049" r="1" fill="#D9D9D9"/>
<circle cx="15" cy="8.00049" r="1" fill="#D9D9D9"/>
</svg>
