<svg width="45" height="45" viewBox="0 0 45 45" fill="none" xmlns="http://www.w3.org/2000/svg">
<path d="M2.11035 19.3552H37.6407L37.1214 24.3047C36.3073 32.0634 31.6765 38.9046 24.7758 42.5433H20.1654H15.555C8.31375 38.9155 3.42107 31.8469 2.57588 23.7918L2.11035 19.3552Z" fill="#FFD53F"/>
<path d="M11.7265 1C10.6622 2.30343 8.46985 4.59374 11.0241 6.15786C13.5783 7.72197 11.6133 10.6826 9.95767 11.6136" stroke="#FFD53F" stroke-width="3"/>
<path d="M21.0488 1C19.9845 2.30343 17.7921 4.59374 20.3463 6.15786C22.9006 7.72197 20.9356 10.6826 19.2799 11.6136" stroke="#FFD53F" stroke-width="3"/>
<path d="M30.247 1C29.1828 2.30343 26.9904 4.59374 29.5446 6.15786C32.0988 7.72197 30.1338 10.6826 28.4782 11.6136" stroke="#FFD53F" stroke-width="3"/>
<path d="M0 42.2996H39.9885C39.9885 43.7478 38.8145 44.9218 37.3663 44.9218H2.6222C1.174 44.9218 0 43.7478 0 42.2996Z" fill="#FFD53F"/>
<path fill-rule="evenodd" clip-rule="evenodd" d="M38.0215 21.9775H33.4326V35.0885H38.0215C41.6419 35.0885 44.5769 32.1535 44.5769 28.533C44.5769 24.9125 41.6419 21.9775 38.0215 21.9775ZM38.0219 24.5997H35.3997V32.4663H38.0219C40.1942 32.4663 41.9552 30.7053 41.9552 28.533C41.9552 26.3607 40.1942 24.5997 38.0219 24.5997Z" fill="#FFD53F"/>
</svg>
