<svg width="102" height="169" viewBox="0 0 102 169" fill="none" xmlns="http://www.w3.org/2000/svg">
<ellipse cx="51.1247" cy="51.9963" rx="50.3141" ry="51.9963" fill="#FFD53F"/>
<path d="M62.4775 144.489C57.7485 154.338 43.717 154.315 39.0208 144.45L8.29902 79.9199C5.32804 73.6794 7.75957 66.2051 13.8336 62.9072L42.4858 47.3502C46.3365 45.2595 50.9813 45.2492 54.8413 47.3229L87.0558 64.6297C93.1787 67.9191 95.631 75.443 92.6224 81.7087L62.4775 144.489Z" fill="#FFD53F"/>
<path d="M74.3786 72.4873C74.3786 84.8745 64.6887 72.4873 51.7256 72.4873C38.7626 72.4873 28.2539 81.5101 28.2539 69.123C28.2539 56.7359 38.7626 43.3298 51.7256 43.3298C64.6887 43.3298 74.3786 60.1002 74.3786 72.4873Z" fill="#FFFCEC"/>
<ellipse cx="38.2499" cy="33.5337" rx="7.68744" ry="7.53541" fill="#FFFCEC"/>
<ellipse cx="22.873" cy="50.8654" rx="7.68744" ry="7.53541" fill="#FFFCEC"/>
<ellipse cx="63.6152" cy="33.5346" rx="7.68744" ry="7.53541" fill="#FFFCEC"/>
<ellipse cx="78.9902" cy="50.866" rx="7.68744" ry="7.53541" fill="#FFFCEC"/>
</svg>
