<svg width="182" height="37" viewBox="0 0 182 37" fill="none" xmlns="http://www.w3.org/2000/svg">
<path d="M10 2H24.9428C29.9133 2 33.9428 6.02944 33.9428 11V24.6948C33.9428 29.6654 29.9133 33.6948 24.9428 33.6948H1V11C1 6.02944 5.02944 2 10 2Z" fill="#FFD130" stroke="#482606" stroke-width="2"/>
<circle cx="26.2069" cy="15.9754" r="2.49591" fill="#482606"/>
<path d="M15.3859 13.0367L12.4687 19.2257C11.3747 21.5465 9.08725 25.1959 5.59469 19.7676" stroke="#482606"/>
<ellipse cx="33.8869" cy="20.9676" rx="2.30392" ry="1.53595" fill="#482606"/>
<rect y="34.6953" width="18.4314" height="1.53595" fill="#482606"/>
<path d="M44.7061 8.8877C48.2581 8.53678 50.9437 8.36133 52.7627 8.36133C54.5817 8.36133 56.0212 8.49382 57.0811 8.75879C58.1481 9.02376 59.0254 9.43555 59.7129 9.99414C61.0449 11.0827 61.7109 12.8695 61.7109 15.3545C61.7109 16.4717 61.4997 17.4958 61.0771 18.4268C60.6546 19.3577 60.0781 20.1562 59.3477 20.8223C58.6172 21.4883 57.7614 22.0075 56.7803 22.3799C55.7992 22.7523 54.75 22.9385 53.6328 22.9385L51.7207 22.8955V26H44.7061V8.8877ZM54.3848 12.8193C53.7689 12.8193 52.8665 13.2454 51.6777 14.0977V18.1475L52.9346 17.5352C53.7653 17.127 54.3454 16.7367 54.6748 16.3643C55.2907 15.6696 55.5986 14.9785 55.5986 14.291C55.5986 13.6035 55.3659 13.1488 54.9004 12.9268C54.75 12.8551 54.5781 12.8193 54.3848 12.8193ZM63.5264 8.84473H75.8906V13.7861H70.208V15.1934H75.8691V19.4043H70.208V21.0264H76.2666V26H63.5264V8.84473ZM78.1143 8.84473H94.3564V14.4092H89.5762V26H82.8945V14.4092H78.1143V8.84473ZM101.769 8.8877C105.321 8.53678 108.006 8.36133 109.825 8.36133C111.644 8.36133 113.084 8.49382 114.144 8.75879C115.211 9.02376 116.088 9.43555 116.775 9.99414C118.107 11.0827 118.773 12.8695 118.773 15.3545C118.773 16.4717 118.562 17.4958 118.14 18.4268C117.717 19.3577 117.141 20.1562 116.41 20.8223C115.68 21.4883 114.824 22.0075 113.843 22.3799C112.862 22.7523 111.812 22.9385 110.695 22.9385L108.783 22.8955V26H101.769V8.8877ZM111.447 12.8193C110.831 12.8193 109.929 13.2454 108.74 14.0977V18.1475L109.997 17.5352C110.828 17.127 111.408 16.7367 111.737 16.3643C112.353 15.6696 112.661 14.9785 112.661 14.291C112.661 13.6035 112.428 13.1488 111.963 12.9268C111.812 12.8551 111.641 12.8193 111.447 12.8193ZM127.271 26H120.589V8.84473H127.271V26ZM128.925 26L137.454 9.71484C137.748 9.13477 138.288 8.74805 139.076 8.55469C139.305 8.4974 139.588 8.46875 139.925 8.46875C140.261 8.46875 140.627 8.56543 141.021 8.75879C141.422 8.94499 141.737 9.24219 141.966 9.65039L151.118 26H142.406L141.729 24.3027H137.089L136.509 26H128.925ZM137.615 20.8975H141.085L139.441 16.2568L137.615 20.8975ZM164.771 14.4307C164.306 14.2516 163.808 14.1621 163.278 14.1621C162.19 14.1621 161.241 14.5596 160.432 15.3545C159.63 16.1423 159.229 17.0876 159.229 18.1904C159.229 18.9281 159.372 19.5046 159.658 19.9199C159.945 20.3353 160.335 20.543 160.829 20.543C161.323 20.543 161.868 20.4176 162.462 20.167C163.063 19.9092 163.944 19.3542 165.104 18.502V25.4951C163.579 26.111 161.957 26.4189 160.238 26.4189C158.527 26.4189 156.948 26.0895 155.501 25.4307C153.202 24.3779 151.688 22.7308 150.957 20.4893C150.714 19.723 150.588 18.8779 150.581 17.9541C150.581 17.0303 150.696 16.1458 150.925 15.3008C151.154 14.4557 151.487 13.6751 151.924 12.959C152.798 11.5195 154.022 10.3916 155.598 9.5752C157.18 8.75879 158.992 8.35417 161.033 8.36133C162.587 8.36133 163.833 8.53678 164.771 8.8877V14.4307ZM167.64 8.84473H180.004V13.7861H174.321V15.1934H179.982V19.4043H174.321V21.0264H180.38V26H167.64V8.84473Z" fill="#0D0D0D"/>
</svg>
