<svg width="186" height="37" viewBox="0 0 186 37" fill="none" xmlns="http://www.w3.org/2000/svg">
<path d="M10 2.5H22.8294C28.0761 2.5 32.3294 6.7533 32.3294 12V22.6049C32.3294 27.8516 28.0761 32.1049 22.8294 32.1049H0.5V12C0.5 6.7533 4.7533 2.5 10 2.5Z" fill="#FFD130" stroke="#482606"/>
<ellipse cx="24.6233" cy="15.603" rx="2.34496" ry="2.26703" fill="#482606"/>
<path d="M14.4555 12.932L11.7147 18.5535C10.6869 20.6615 8.53781 23.9762 5.25648 19.0457" stroke="#482606"/>
<ellipse cx="31.8355" cy="20.1353" rx="2.16458" ry="1.39509" fill="#482606"/>
<rect y="32.6055" width="17.3166" height="1.39509" fill="#482606"/>
<path d="M43.7998 8.8877C47.3519 8.53678 50.0374 8.36133 51.8564 8.36133C53.6755 8.36133 55.1149 8.49382 56.1748 8.75879C57.2419 9.02376 58.1191 9.43555 58.8066 9.99414C60.1387 11.0827 60.8047 12.8695 60.8047 15.3545C60.8047 16.4717 60.5934 17.4958 60.1709 18.4268C59.7484 19.3577 59.1719 20.1562 58.4414 20.8223C57.7109 21.4883 56.8551 22.0075 55.874 22.3799C54.8929 22.7523 53.8438 22.9385 52.7266 22.9385L50.8145 22.8955V26H43.7998V8.8877ZM53.4785 12.8193C52.8626 12.8193 51.9603 13.2454 50.7715 14.0977V18.1475L52.0283 17.5352C52.859 17.127 53.4391 16.7367 53.7686 16.3643C54.3844 15.6696 54.6924 14.9785 54.6924 14.291C54.6924 13.6035 54.4596 13.1488 53.9941 12.9268C53.8438 12.8551 53.6719 12.8193 53.4785 12.8193ZM62.6201 8.84473H74.9844V13.7861H69.3018V15.1934H74.9629V19.4043H69.3018V21.0264H75.3604V26H62.6201V8.84473ZM77.208 8.84473H93.4502V14.4092H88.6699V26H81.9883V14.4092H77.208V8.84473ZM100.862 8.8877C104.414 8.53678 107.1 8.36133 108.919 8.36133C110.738 8.36133 112.177 8.49382 113.237 8.75879C114.304 9.02376 115.182 9.43555 115.869 9.99414C117.201 11.0827 117.867 12.8695 117.867 15.3545C117.867 16.4717 117.656 17.4958 117.233 18.4268C116.811 19.3577 116.234 20.1562 115.504 20.8223C114.773 21.4883 113.918 22.0075 112.937 22.3799C111.955 22.7523 110.906 22.9385 109.789 22.9385L107.877 22.8955V26H100.862V8.8877ZM110.541 12.8193C109.925 12.8193 109.023 13.2454 107.834 14.0977V18.1475L109.091 17.5352C109.922 17.127 110.502 16.7367 110.831 16.3643C111.447 15.6696 111.755 14.9785 111.755 14.291C111.755 13.6035 111.522 13.1488 111.057 12.9268C110.906 12.8551 110.734 12.8193 110.541 12.8193ZM119.683 8.84473H126.364V20.833H132.133V26H119.683V8.84473ZM132.831 26L141.36 9.71484C141.654 9.13477 142.195 8.74805 142.982 8.55469C143.212 8.4974 143.494 8.46875 143.831 8.46875C144.168 8.46875 144.533 8.56543 144.927 8.75879C145.328 8.94499 145.643 9.24219 145.872 9.65039L155.024 26H146.312L145.636 24.3027H140.995L140.415 26H132.831ZM141.521 20.8975H144.991L143.348 16.2568L141.521 20.8975ZM168.678 14.4307C168.212 14.2516 167.715 14.1621 167.185 14.1621C166.096 14.1621 165.147 14.5596 164.338 15.3545C163.536 16.1423 163.135 17.0876 163.135 18.1904C163.135 18.9281 163.278 19.5046 163.564 19.9199C163.851 20.3353 164.241 20.543 164.735 20.543C165.229 20.543 165.774 20.4176 166.368 20.167C166.97 19.9092 167.851 19.3542 169.011 18.502V25.4951C167.485 26.111 165.863 26.4189 164.145 26.4189C162.433 26.4189 160.854 26.0895 159.407 25.4307C157.108 24.3779 155.594 22.7308 154.863 20.4893C154.62 19.723 154.494 18.8779 154.487 17.9541C154.487 17.0303 154.602 16.1458 154.831 15.3008C155.06 14.4557 155.393 13.6751 155.83 12.959C156.704 11.5195 157.928 10.3916 159.504 9.5752C161.087 8.75879 162.898 8.35417 164.939 8.36133C166.493 8.36133 167.74 8.53678 168.678 8.8877V14.4307ZM171.546 8.84473H183.91V13.7861H178.228V15.1934H183.889V19.4043H178.228V21.0264H184.286V26H171.546V8.84473Z" fill="#0D0D0D"/>
</svg>
