<svg width="1920" height="1023" viewBox="0 0 1920 1023" fill="none" xmlns="http://www.w3.org/2000/svg">
<rect y="144" width="1920" height="811" fill="white"/>
<path d="M1898.51 777.236C1945.57 829.795 1857.93 813.569 1803.64 862.175C1749.35 910.781 1739.62 988.468 1692.56 935.908C1645.5 883.349 1638.58 787.062 1692.87 738.456C1747.16 689.85 1851.45 724.676 1898.51 777.236Z" fill="#FFFBE3"/>
<ellipse cx="1599.21" cy="747.425" rx="43.2129" ry="42.9162" transform="rotate(-41.8389 1599.21 747.425)" fill="#FFFBE3"/>
<ellipse cx="1600.66" cy="878.615" rx="43.2129" ry="42.9162" transform="rotate(-41.8389 1600.66 878.615)" fill="#FFFBE3"/>
<ellipse cx="1705.46" cy="652.302" rx="43.2129" ry="42.9162" transform="rotate(-41.8389 1705.46 652.302)" fill="#FFFBE3"/>
<ellipse cx="1835.68" cy="668.198" rx="43.2129" ry="42.9162" transform="rotate(-41.8389 1835.68 668.198)" fill="#FFFBE3"/>
<path d="M215.118 419.381C194.281 455.655 187.111 403.293 149.644 381.77C112.177 360.248 66.6259 369.222 87.4631 332.948C108.3 296.674 161.225 274.864 198.692 296.386C236.159 317.909 235.955 383.107 215.118 419.381Z" fill="#FFFBE3"/>
<ellipse cx="176.216" cy="245.321" rx="25.624" ry="25.4481" transform="rotate(29.8747 176.216 245.321)" fill="#FFFBE3"/>
<ellipse cx="102.623" cy="270.548" rx="25.624" ry="25.4481" transform="rotate(29.8747 102.623 270.548)" fill="#FFFBE3"/>
<ellipse cx="249.54" cy="287.441" rx="25.624" ry="25.4481" transform="rotate(29.8747 249.54 287.441)" fill="#FFFBE3"/>
<ellipse cx="264.82" cy="363.72" rx="25.624" ry="25.4481" transform="rotate(29.8747 264.82 363.72)" fill="#FFFBE3"/>
<path d="M1626 38.1988C1651.61 8.7181 1648.76 57.9709 1679.21 84.4218C1709.66 110.873 1753 110.842 1727.39 140.322C1701.78 169.803 1649.38 180.266 1618.93 153.815C1588.48 127.364 1600.39 67.6795 1626 38.1988Z" fill="#FFFBE3"/>
<ellipse cx="1630.34" cy="204.631" rx="23.9195" ry="23.7553" transform="rotate(-139.021 1630.34 204.631)" fill="#FFFBE3"/>
<ellipse cx="1702.29" cy="194.756" rx="23.9195" ry="23.7553" transform="rotate(-139.021 1702.29 194.756)" fill="#FFFBE3"/>
<ellipse cx="1570.75" cy="152.866" rx="23.9195" ry="23.7553" transform="rotate(-139.021 1570.75 152.866)" fill="#FFFBE3"/>
<ellipse cx="1570.47" cy="80.2486" rx="23.9195" ry="23.7553" transform="rotate(-139.021 1570.47 80.2486)" fill="#FFFBE3"/>
</svg>
