<svg width="1920" height="636" viewBox="0 0 1920 636" fill="none" xmlns="http://www.w3.org/2000/svg">
<path fill-rule="evenodd" clip-rule="evenodd" d="M1920 0H0V634H1920V0Z" fill="#FFFCEC"/>
<path d="M338.191 165.434C370.483 162.243 394.897 160.648 411.434 160.648C427.97 160.648 441.056 161.853 450.691 164.262C460.392 166.671 468.367 170.414 474.617 175.492C486.727 185.388 492.781 201.632 492.781 224.223C492.781 234.379 490.861 243.689 487.02 252.152C483.178 260.616 477.938 267.875 471.297 273.93C464.656 279.984 456.876 284.704 447.957 288.09C439.038 291.475 429.5 293.168 419.344 293.168L401.961 292.777V321H338.191V165.434ZM426.18 201.176C420.581 201.176 412.378 205.049 401.57 212.797V249.613L412.996 244.047C420.548 240.336 425.822 236.788 428.816 233.402C434.415 227.087 437.215 220.805 437.215 214.555C437.215 208.305 435.099 204.171 430.867 202.152C429.5 201.501 427.938 201.176 426.18 201.176ZM509.285 165.043H621.688V209.965H570.027V222.758H621.492V261.039H570.027V275.785H625.105V321H509.285V165.043ZM641.902 165.043H789.559V215.629H746.102V321H685.359V215.629H641.902V165.043ZM856.941 165.434C889.233 162.243 913.647 160.648 930.184 160.648C946.72 160.648 959.806 161.853 969.441 164.262C979.142 166.671 987.117 170.414 993.367 175.492C1005.48 185.388 1011.53 201.632 1011.53 224.223C1011.53 234.379 1009.61 243.689 1005.77 252.152C1001.93 260.616 996.688 267.875 990.047 273.93C983.406 279.984 975.626 284.704 966.707 288.09C957.788 291.475 948.25 293.168 938.094 293.168L920.711 292.777V321H856.941V165.434ZM944.93 201.176C939.331 201.176 931.128 205.049 920.32 212.797V249.613L931.746 244.047C939.298 240.336 944.572 236.788 947.566 233.402C953.165 227.087 955.965 220.805 955.965 214.555C955.965 208.305 953.849 204.171 949.617 202.152C948.25 201.501 946.688 201.176 944.93 201.176ZM1088.78 321H1028.04V165.043H1088.78V321ZM1103.82 321L1181.36 172.953C1184.02 167.68 1188.94 164.164 1196.1 162.406C1198.18 161.885 1200.76 161.625 1203.82 161.625C1206.88 161.625 1210.2 162.504 1213.78 164.262C1217.42 165.954 1220.29 168.656 1222.37 172.367L1305.57 321H1226.38L1220.22 305.57H1178.04L1172.76 321H1103.82ZM1182.82 274.613H1214.36L1199.42 232.426L1182.82 274.613ZM1429.7 215.824C1425.46 214.197 1420.94 213.383 1416.12 213.383C1406.23 213.383 1397.6 216.996 1390.24 224.223C1382.95 231.384 1379.3 239.978 1379.3 250.004C1379.3 256.71 1380.61 261.951 1383.21 265.727C1385.82 269.503 1389.36 271.391 1393.86 271.391C1398.35 271.391 1403.3 270.251 1408.7 267.973C1414.17 265.629 1422.18 260.583 1432.72 252.836V316.41C1418.86 322.009 1404.11 324.809 1388.48 324.809C1372.92 324.809 1358.57 321.814 1345.42 315.824C1324.52 306.254 1310.75 291.28 1304.11 270.902C1301.9 263.936 1300.76 256.254 1300.69 247.855C1300.69 239.457 1301.73 231.417 1303.82 223.734C1305.9 216.052 1308.93 208.956 1312.9 202.445C1320.84 189.359 1331.97 179.105 1346.3 171.684C1360.68 164.262 1377.16 160.583 1395.71 160.648C1409.84 160.648 1421.17 162.243 1429.7 165.434V215.824ZM1455.77 165.043H1568.17V209.965H1516.51V222.758H1567.98V261.039H1516.51V275.785H1571.59V321H1455.77V165.043Z" fill="#FFD53F"/>
<path d="M365.477 89.332L370.48 104.891L381.391 90.2617C381.755 89.7695 382.029 89.4505 382.211 89.3047C382.393 89.1589 382.667 89.0859 383.031 89.0859C383.396 89.0859 383.861 89.4779 384.426 90.2617L394.598 104.727L399.52 89.332H415.16L400.887 131.879C400.267 133.702 399.219 134.613 397.742 134.613C396.266 134.613 394.944 133.775 393.777 132.098L381.555 114.461L368.402 132.152C367.217 133.72 365.896 134.504 364.438 134.504C362.979 134.504 361.913 133.592 361.238 131.77L345.871 89.332H365.477ZM437.719 108.746C437.719 107.142 436.971 106.34 435.477 106.34C433.763 106.504 432.651 107.388 432.141 108.992C431.885 109.758 431.703 110.651 431.594 111.672C431.503 112.674 431.357 113.75 431.156 114.898L437.145 113.559L437.664 109.375L437.719 108.746ZM434.027 121.188C434.027 121.188 433.526 121.188 432.523 121.188C432.049 121.188 431.594 121.169 431.156 121.133C431.156 123.302 432.314 124.487 434.629 124.688C435.267 124.742 435.887 124.77 436.488 124.77C438.038 124.77 439.979 124.414 442.312 123.703C444.664 122.992 446.77 121.835 448.629 120.23L450.324 128.734C446.259 132.253 440.116 134.012 431.895 134.012C427.173 134.012 423.117 132.635 419.727 129.883C416.044 126.875 414.203 122.71 414.203 117.387C414.203 113.376 415.242 109.776 417.32 106.586C419.253 103.669 421.868 101.454 425.168 99.9414C428.467 98.4284 432.031 97.6719 435.859 97.6719C440.818 97.6719 444.564 98.7565 447.098 100.926C449.65 103.095 450.917 105.775 450.898 108.965C450.898 112.155 449.376 114.99 446.332 117.469C443.288 119.948 439.186 121.188 434.027 121.188ZM472.227 133H456.723V86.9805H472.227V133ZM498.477 122.637C500.318 122.637 502.979 121.333 506.461 118.727V132.098C500.482 134.358 494.967 134.677 489.918 133.055C484.868 131.432 481.286 128.534 479.172 124.359C478.115 122.245 477.586 119.766 477.586 116.922C477.586 111.198 479.555 106.559 483.492 103.004C487.43 99.4492 492.552 97.6719 498.859 97.6719C501.466 97.6719 503.818 98.0638 505.914 98.8477V109.375C505.422 108.956 504.729 108.746 503.836 108.746C502.943 108.746 501.986 109.029 500.965 109.594C499.944 110.159 499.014 110.915 498.176 111.863C496.243 114.051 495.277 116.302 495.277 118.617C495.296 120.914 495.997 122.208 497.383 122.5C497.747 122.573 498.112 122.618 498.477 122.637ZM536.43 108.691C536.065 108.509 535.591 108.418 535.008 108.418C534.443 108.418 533.814 108.591 533.121 108.938C532.428 109.266 531.745 109.721 531.07 110.305C529.648 111.544 528.454 113.048 527.488 114.816C526.522 116.585 526.039 118.216 526.039 119.711C526.039 121.188 526.604 122.181 527.734 122.691C528.135 122.874 528.628 122.965 529.211 122.965C529.794 122.965 530.405 122.792 531.043 122.445C531.681 122.081 532.319 121.598 532.957 120.996C534.288 119.738 535.454 118.216 536.457 116.43C537.46 114.625 537.961 113.012 537.961 111.59C537.961 110.168 537.451 109.202 536.43 108.691ZM531.125 134.012C525.911 134.012 521.418 132.362 517.645 129.062C513.616 125.562 511.602 121.16 511.602 115.855C511.602 110.533 513.488 106.185 517.262 102.812C521.035 99.4219 525.693 97.7266 531.234 97.7266C536.776 97.7266 541.434 99.3854 545.207 102.703C548.98 106.003 550.876 110.423 550.895 115.965C550.913 119.52 550.01 122.664 548.188 125.398C546.365 128.133 543.931 130.247 540.887 131.742C537.842 133.237 534.589 133.993 531.125 134.012ZM592.539 103.66C595.638 99.7044 599.576 97.7266 604.352 97.7266C605.664 97.7266 607.013 98 608.398 98.5469C609.802 99.0938 611.023 99.8867 612.062 100.926C614.323 103.186 615.453 106.148 615.453 109.812V133H599.594V115.473C599.594 113.23 599.238 111.471 598.527 110.195C597.816 108.901 596.969 108.254 595.984 108.254C595.018 108.236 594.38 108.865 594.07 110.141C593.979 110.505 593.934 110.915 593.934 111.371V133H578.43V115.473C578.43 113.23 578.038 111.471 577.254 110.195C576.488 108.901 575.65 108.254 574.738 108.254C573.28 108.254 572.551 109.43 572.551 111.781V133H556.309V99.0117H565.277L569.188 104.316C570.518 102.311 572.414 100.716 574.875 99.5312C577.354 98.3281 579.879 97.7266 582.449 97.7266C585.785 97.7266 588.547 98.8568 590.734 101.117C591.445 101.846 592.047 102.694 592.539 103.66ZM644.055 108.746C644.055 107.142 643.307 106.34 641.812 106.34C640.099 106.504 638.987 107.388 638.477 108.992C638.221 109.758 638.039 110.651 637.93 111.672C637.839 112.674 637.693 113.75 637.492 114.898L643.48 113.559L644 109.375L644.055 108.746ZM640.363 121.188C640.363 121.188 639.862 121.188 638.859 121.188C638.385 121.188 637.93 121.169 637.492 121.133C637.492 123.302 638.65 124.487 640.965 124.688C641.603 124.742 642.223 124.77 642.824 124.77C644.374 124.77 646.315 124.414 648.648 123.703C651 122.992 653.105 121.835 654.965 120.23L656.66 128.734C652.595 132.253 646.452 134.012 638.23 134.012C633.509 134.012 629.453 132.635 626.062 129.883C622.38 126.875 620.539 122.71 620.539 117.387C620.539 113.376 621.578 109.776 623.656 106.586C625.589 103.669 628.204 101.454 631.504 99.9414C634.803 98.4284 638.367 97.6719 642.195 97.6719C647.154 97.6719 650.9 98.7565 653.434 100.926C655.986 103.095 657.253 105.775 657.234 108.965C657.234 112.155 655.712 114.99 652.668 117.469C649.624 119.948 645.522 121.188 640.363 121.188ZM702.707 130.539C699.243 132.891 695.57 134.066 691.688 134.066C687.823 134.066 684.678 132.973 682.254 130.785C679.829 128.579 678.617 125.617 678.617 121.898V107.68H675.5V99.0117H678.617V89.8242L694.969 88.1562V99.0117H702.707V107.68H694.969V116.266C694.969 118.836 695.543 120.704 696.691 121.871C697.858 123.02 699.863 123.594 702.707 123.594V130.539ZM731.281 108.691C730.917 108.509 730.443 108.418 729.859 108.418C729.294 108.418 728.665 108.591 727.973 108.938C727.28 109.266 726.596 109.721 725.922 110.305C724.5 111.544 723.306 113.048 722.34 114.816C721.374 116.585 720.891 118.216 720.891 119.711C720.891 121.188 721.456 122.181 722.586 122.691C722.987 122.874 723.479 122.965 724.062 122.965C724.646 122.965 725.257 122.792 725.895 122.445C726.533 122.081 727.171 121.598 727.809 120.996C729.139 119.738 730.306 118.216 731.309 116.43C732.311 114.625 732.812 113.012 732.812 111.59C732.812 110.168 732.302 109.202 731.281 108.691ZM725.977 134.012C720.763 134.012 716.27 132.362 712.496 129.062C708.467 125.562 706.453 121.16 706.453 115.855C706.453 110.533 708.34 106.185 712.113 102.812C715.887 99.4219 720.544 97.7266 726.086 97.7266C731.628 97.7266 736.285 99.3854 740.059 102.703C743.832 106.003 745.728 110.423 745.746 115.965C745.764 119.52 744.862 122.664 743.039 125.398C741.216 128.133 738.783 130.247 735.738 131.742C732.694 133.237 729.44 133.993 725.977 134.012Z" fill="#FFD53F"/>
<path d="M230.14 588.363C223.965 602.016 219.598 583.595 205.496 577.218C191.394 570.841 175.464 575.616 181.638 561.962C187.813 548.309 205.927 538.703 220.03 545.08C234.132 551.458 236.314 574.709 230.14 588.363Z" fill="#FFD53F"/>
<ellipse cx="210.251" cy="527.652" rx="9.17847" ry="9.11546" transform="rotate(24.3338 210.251 527.652)" fill="#FFD53F"/>
<ellipse cx="184.885" cy="539.191" rx="9.17847" ry="9.11546" transform="rotate(24.3338 184.885 539.191)" fill="#FFD53F"/>
<ellipse cx="237.849" cy="540.133" rx="9.17847" ry="9.11546" transform="rotate(24.3338 237.849 540.133)" fill="#FFD53F"/>
<ellipse cx="245.934" cy="566.8" rx="9.17847" ry="9.11546" transform="rotate(24.3338 245.934 566.8)" fill="#FFD53F"/>
<path d="M1763.17 82.6937C1773.16 93.8575 1754.55 90.4109 1743.02 100.735C1731.49 111.059 1729.42 127.56 1719.42 116.396C1709.43 105.232 1707.96 84.7809 1719.49 74.4569C1731.02 64.1329 1753.17 71.53 1763.17 82.6937Z" fill="#FFD53F"/>
<ellipse cx="1699.6" cy="76.3619" rx="9.17846" ry="9.11545" transform="rotate(-41.8389 1699.6 76.3619)" fill="#FFD53F"/>
<ellipse cx="1699.9" cy="104.227" rx="9.17846" ry="9.11545" transform="rotate(-41.8389 1699.9 104.227)" fill="#FFD53F"/>
<ellipse cx="1722.16" cy="56.1578" rx="9.17846" ry="9.11545" transform="rotate(-41.8389 1722.16 56.1578)" fill="#FFD53F"/>
<ellipse cx="1749.82" cy="59.5341" rx="9.17846" ry="9.11545" transform="rotate(-41.8389 1749.82 59.5341)" fill="#FFD53F"/>
<g clip-path="url(#clip0_767_7)">
<path d="M852.504 320.658C849.428 322.23 846.923 324.719 845.342 327.777C844.488 329.562 844.001 331.499 843.909 333.473C842.283 358.178 847.49 374.767 847.49 374.767C850.507 384.335 854.846 393.44 860.383 401.822C864.437 403.374 875.725 407.055 889.033 403.246C909.661 397.344 917.726 378.441 918.757 375.913C910.35 356.511 898.863 338.576 884.735 322.794C880.546 318.57 874.934 316.034 868.978 315.674C866.81 317.719 864.192 319.233 861.333 320.099C858.474 320.964 855.451 321.155 852.504 320.658Z" fill="#EFDECA" stroke="black" stroke-width="5" stroke-miterlimit="10"/>
<path d="M861.214 321.071C865.776 319.335 868.783 316.132 867.93 313.918C867.077 311.704 862.687 311.316 858.125 313.053C853.563 314.789 850.556 317.992 851.409 320.206C852.261 322.42 856.651 322.808 861.214 321.071Z" fill="black"/>
<path d="M860.383 408.942V488.191L855.541 584.755C853.653 585.214 852.008 586.361 850.933 587.97C849.857 589.579 849.429 591.531 849.734 593.438C850.038 595.346 851.054 597.07 852.578 598.268C854.102 599.466 856.024 600.051 857.962 599.906L872.559 599.749C875.469 599.319 878.198 598.085 880.438 596.189C882.859 594.053 884.85 590.743 886.168 576.966C886.881 569.156 887.121 561.31 886.884 553.471C886.741 546.964 886.426 541.567 886.168 537.808C893.293 546.902 902.032 554.623 911.953 560.591C934.156 573.883 955.944 574.467 965.671 574.118C965.905 579.577 966.144 585.035 966.387 590.493C961.982 592.807 960.113 597.278 961.374 600.461C962.355 602.931 964.955 603.964 965.671 604.22L986.442 604.021C988.044 603.713 989.531 602.974 990.74 601.885C993.676 599.144 993.605 594.893 993.605 591.205C993.605 586.77 993.741 580.426 994.321 571.982C995.66 570.06 1002.36 560.904 1015.09 558.455C1022.68 557.049 1030.53 558.308 1037.3 562.015C1042.31 490.654 1046.38 465.628 1049.47 458.779C1050.95 455.563 1052.15 452.229 1053.05 448.812C1054.54 443.238 1055.26 437.49 1055.2 431.725C1054.66 428.307 1053.29 425.73 1051.62 425.317C1051.15 425.196 1050.66 425.196 1050.19 425.317C1048.76 425.765 1048.4 427.517 1048.04 427.453C1047.21 427.31 1049.52 417.841 1046.61 416.061C1045.43 415.349 1043.67 416.061 1042.31 416.773C1040.57 408.938 1036.59 401.768 1030.85 396.126C1028.81 394.161 1023.62 389.163 1021.54 390.43C1018.49 392.289 1026.55 404.947 1025.84 424.605C1025.51 433.718 1023.49 439.556 1022.25 439.556C1021.02 439.556 1021.27 434.202 1017.24 431.725C1015.69 430.77 1012.94 429.895 1011.51 431.013C1008.84 433.148 1013.47 440.097 1013.66 448.812C1013.75 453.162 1015.46 464.475 1009.36 472.307C1006.97 467.48 999.743 455.034 992.172 448.1C979.18 436.203 970.055 438.061 955.644 425.317C949.047 419.479 944.993 413.811 938.454 404.67C933.11 397.195 928.322 389.342 924.129 381.175C923.413 383.446 916.68 403.701 895.479 411.077C878.196 417.129 863.348 410.358 860.383 408.942Z" fill="#EFDECA" stroke="black" stroke-width="5" stroke-miterlimit="10"/>
<path d="M862.174 321.726C862.174 321.726 864.322 333.117 854.295 338.813" stroke="black" stroke-width="3" stroke-miterlimit="10"/>
<path d="M862.174 321.184C862.174 321.184 867.854 331.301 879.228 329.301" stroke="black" stroke-width="3" stroke-miterlimit="10"/>
<path d="M856.287 338.813C856.107 339.646 854.589 347.278 859.667 352.696C864.989 358.392 873.698 357.502 879.006 354.832C880.159 354.255 889.263 349.506 888.317 341.305C887.73 336.2 883.662 331.771 878.039 330.269C872.419 329.984 867.123 327.562 863.248 323.505C862.498 329.179 860.076 334.505 856.287 338.813Z" fill="#FF473E" stroke="black" stroke-width="3" stroke-miterlimit="10"/>
<path d="M863.979 325.371L873.275 344.153" stroke="black" stroke-width="3" stroke-miterlimit="10"/>
<path d="M860.383 401.822V408.942C867.167 411.782 874.526 413.002 881.87 412.501C884.334 412.323 901.753 410.778 914.101 396.126C917.97 391.514 920.89 386.193 922.696 380.463L918.757 374.86C918.041 377.423 913.228 392.986 896.911 401.11C879.292 409.881 862.603 402.811 860.383 401.822Z" fill="#CC5200" stroke="black" stroke-width="5" stroke-miterlimit="10"/>
<path d="M899.526 408.942L902.284 415.705" stroke="black" stroke-width="5" stroke-miterlimit="10"/>
<path d="M894.412 418.24L909.203 410.935L905.378 422.248L894.412 418.24Z" fill="#633B1F" stroke="black" stroke-width="3" stroke-miterlimit="10"/>
<path d="M843.594 356.911C841.094 360.257 837.993 364.593 834.598 369.783C831.54 374.468 829.212 378.597 824.571 386.871C819.75 395.414 818.504 398.12 818.841 401.822C819.204 404.947 820.445 407.908 822.422 410.365C831.661 422.882 858.428 421.045 860.383 420.903C862.431 410.743 860.82 403.993 858.95 399.686C857.654 396.703 856.601 395.749 853.22 389.006C851.045 384.857 849.132 380.577 847.49 376.191C845.296 369.976 843.985 363.486 843.594 356.911Z" fill="#331B0B" stroke="black" stroke-width="5" stroke-miterlimit="10"/>
<path d="M895.479 334.185C900.394 334.559 905.276 335.272 910.091 336.321C914.754 337.325 919.488 339.09 929.057 342.315C938.418 345.469 941.14 346.587 943.382 349.585C945.221 352.147 946.296 355.172 946.483 358.313C948.038 373.265 930.289 387.561 928.413 389.035C924.065 381.481 920.641 375.322 918.385 371.236C912.204 360.022 909.955 355.466 905.493 348.453C901.453 342.059 897.793 337.161 895.479 334.185Z" fill="#331B0B" stroke="black" stroke-width="5" stroke-miterlimit="10"/>
<path d="M886.168 537.096C886.168 537.096 877.573 524.28 875.424 517.161L886.168 537.096Z" fill="#FFFBF5"/>
<path d="M886.168 537.096C886.168 537.096 877.573 524.28 875.424 517.161" stroke="black" stroke-width="3" stroke-miterlimit="10"/>
</g>
<g clip-path="url(#clip1_767_7)">
<path d="M1258.14 348.758C1257.65 362.438 1258.47 368.6 1259.45 371.558L1261.4 377.42C1258.85 381.85 1252.73 393.927 1256.19 407.385C1261.54 428.231 1286.26 437.95 1304.42 438.002C1325.03 438.06 1339.31 425.69 1343.53 421.716C1346.76 418.755 1349.41 415.221 1351.35 411.294C1358.2 397.321 1353.11 383.485 1352.01 380.677C1349.72 374.953 1346.15 369.828 1341.58 365.695C1341.81 361.138 1341.81 356.572 1341.58 352.015C1341.34 347.299 1340.87 342.941 1340.27 338.987C1331.39 341.06 1323.26 345.573 1316.81 352.015L1276.07 354.295L1258.14 348.758Z" fill="#FFFCF8" stroke="black" stroke-width="5" stroke-miterlimit="10"/>
<path d="M1259.45 350.061C1265.51 354.288 1269.9 360.514 1271.83 367.649" stroke="black" stroke-width="3" stroke-miterlimit="10"/>
<path d="M1338.32 340.29C1338.32 340.29 1328.54 351.364 1329.19 357.226" stroke="black" stroke-width="3" stroke-miterlimit="10"/>
<path d="M1286.5 390.774C1285.73 392.898 1282.33 393.64 1279.98 393.38C1276.16 392.956 1272.22 389.562 1272.81 386.866C1273.33 384.455 1277.37 382.886 1280.63 383.609C1284.25 384.416 1287.41 388.227 1286.5 390.774Z" fill="black"/>
<path d="M1325.15 382.794C1325.96 384.898 1323.85 387.68 1321.89 389.015C1318.72 391.184 1313.52 391.171 1312.2 388.748C1311.03 386.579 1313.1 382.736 1316.01 381.179C1319.3 379.44 1324.18 380.267 1325.15 382.794Z" fill="black"/>
<path d="M1307.36 392.826C1307.48 394.442 1304.46 395.998 1300.6 396.305C1296.75 396.611 1293.51 395.549 1293.38 393.933C1293.25 392.318 1296.28 390.761 1300.13 390.455C1303.99 390.149 1307.21 391.211 1307.36 392.826Z" fill="black"/>
<path d="M1300.66 395.334C1300.66 395.334 1302.97 408.31 1291.06 409.014" stroke="black" stroke-width="3" stroke-miterlimit="10"/>
<path d="M1299.86 404.78C1299.86 404.78 1306.38 408.688 1310.29 408.688" stroke="black" stroke-width="3" stroke-miterlimit="10"/>
<path d="M1329.99 392.729C1329.99 392.729 1347.42 384.736 1367.22 385.648" stroke="black" stroke-width="3" stroke-miterlimit="10"/>
<path d="M1332.55 397.673C1332.55 397.673 1357.32 390.774 1367.5 393.491" stroke="black" stroke-width="3" stroke-miterlimit="10"/>
<path d="M1333.19 402.682C1333.19 402.682 1360.43 399.588 1367.33 402.682" stroke="black" stroke-width="3" stroke-miterlimit="10"/>
<path d="M1278.41 398.936C1278.41 398.936 1259.45 396.142 1240.69 402.552" stroke="black" stroke-width="3" stroke-miterlimit="10"/>
<path d="M1277.37 404.395C1277.37 404.395 1251.65 404.701 1242.65 410.16" stroke="black" stroke-width="3" stroke-miterlimit="10"/>
<path d="M1278.13 409.385C1278.13 409.385 1251.12 414.03 1245.36 418.948" stroke="black" stroke-width="3" stroke-miterlimit="10"/>
<path d="M1280.61 385.352C1280.66 384.815 1280.12 384.325 1279.4 384.258C1278.68 384.19 1278.06 384.572 1278.01 385.109C1277.96 385.646 1278.5 386.136 1279.22 386.203C1279.94 386.27 1280.56 385.889 1280.61 385.352Z" fill="white"/>
<path d="M1316.26 384.898C1316.91 384.583 1317.24 383.935 1317 383.45C1316.77 382.964 1316.05 382.825 1315.4 383.14C1314.76 383.454 1314.42 384.102 1314.66 384.588C1314.89 385.073 1315.61 385.212 1316.26 384.898Z" fill="white"/>
<path d="M1255.54 401.522C1240.15 425.297 1232.84 453.392 1234.68 481.646C1234.68 481.646 1214.58 499.769 1216.81 523.604C1219.03 547.439 1249.81 576.505 1249.81 576.505L1263.97 574.33C1263.44 575.26 1263.22 576.34 1263.36 577.404C1263.76 580.114 1266.47 581.254 1266.62 581.313C1271.41 581.488 1276.2 581.27 1280.96 580.661C1285.85 580.148 1290.66 579.054 1295.3 577.404C1296.67 576.903 1297.79 576.434 1298.56 576.101C1299.79 574.998 1300.71 573.59 1301.22 572.019C1301.74 570.448 1301.83 568.769 1301.49 567.151L1311.59 565.027C1311.25 565.679 1309.31 569.464 1310.94 573.496C1311.22 574.186 1312.29 576.59 1316.15 578.707C1319.66 580.661 1324.35 581.704 1340.92 579.359C1344 578.922 1348 578.297 1352.66 577.404L1359.83 570.239L1381.88 569.066L1406.69 563.073C1409.42 557.334 1418.71 536.105 1411.97 509.657C1404.91 481.927 1385.07 467.504 1380.03 464.058C1379.1 438.946 1370.7 414.68 1355.92 394.357C1355.01 400.409 1352.1 413.71 1340.92 423.671C1338.34 425.946 1335.49 427.914 1332.45 429.533C1313.06 439.897 1276.97 440.672 1262.05 419.762C1259.88 416.72 1256.51 410.916 1255.54 401.522Z" fill="#FFFCF8" stroke="black" stroke-width="5" stroke-miterlimit="10"/>
<path d="M1363.74 533.108C1367.43 522.262 1371.16 511.976 1374.17 498.583C1376.86 486.565 1378.73 475.269 1380.03 464.892" stroke="black" stroke-width="5" stroke-miterlimit="10"/>
<path d="M1317.71 487.867L1313.55 563.725" stroke="black" stroke-width="3" stroke-miterlimit="10"/>
<path d="M1286.82 495.978C1286.82 495.978 1305.07 533.108 1301.16 566.33" stroke="black" stroke-width="3" stroke-miterlimit="10"/>
<path d="M1234.68 481.646C1235.89 490.935 1237.57 500.156 1239.72 509.273C1240.55 512.799 1241.48 516.402 1242.5 520.08C1247.74 538.812 1254.95 556.935 1264.01 574.147" stroke="black" stroke-width="5" stroke-miterlimit="10"/>
<path d="M1241.2 510.309C1260.04 510.66 1273.32 515.07 1273.79 520.08C1274.22 524.822 1263.25 530.958 1248.22 534.991" fill="#CE7000"/>
<path d="M1241.2 510.309C1260.04 510.66 1273.32 515.07 1273.79 520.08C1274.22 524.822 1263.25 530.958 1248.22 534.991" stroke="black" stroke-width="5" stroke-miterlimit="10"/>
<path d="M1379.56 462.28C1379.82 461.961 1380.12 461.544 1380.03 461.453C1379.62 461.003 1370.91 468.931 1361.78 475.784C1346.52 487.223 1344.43 484.904 1336.36 492.72C1330.5 498.401 1322.61 506.022 1322.67 516.823C1322.74 528.685 1332.11 536.821 1335.06 539.147C1335.13 539.199 1335.22 539.235 1335.31 539.252C1335.4 539.27 1335.49 539.268 1335.58 539.247C1335.67 539.226 1335.75 539.187 1335.83 539.131C1335.9 539.076 1335.96 539.006 1336 538.925C1337.96 534.866 1341.32 531.646 1345.45 529.851C1353.46 526.522 1360.87 530.411 1363.22 531.877C1363.3 531.924 1363.4 531.95 1363.5 531.955C1363.59 531.96 1363.69 531.942 1363.78 531.904C1363.87 531.866 1363.95 531.808 1364.02 531.735C1364.08 531.661 1364.13 531.574 1364.15 531.48C1373.03 509.407 1378.22 486.031 1379.52 462.28H1379.56Z" fill="#CE7000" stroke="black" stroke-width="5" stroke-miterlimit="10"/>
<path d="M1291.2 352.784C1290.55 376.847 1293.43 379.641 1294.83 379.954C1295.26 380.042 1295.72 379.999 1296.13 379.83C1298.43 378.84 1297.73 373.414 1297.35 366.301C1297.18 363.043 1297.01 358.327 1297.1 352.478L1291.2 352.784Z" fill="#CE7000" stroke="black" stroke-width="2" stroke-miterlimit="10"/>
<path d="M1300.5 352.341C1299.58 376.397 1302.4 379.231 1303.8 379.557C1304.23 379.653 1304.69 379.614 1305.1 379.446C1307.42 378.489 1306.78 373.056 1306.5 365.936C1306.36 362.679 1306.25 357.956 1306.42 352.113L1300.5 352.341Z" fill="#CE7000" stroke="black" stroke-width="2" stroke-miterlimit="10"/>
<path d="M1303.12 438.653C1283.37 438.353 1269.99 428.23 1265.97 424.973C1266.75 426.228 1267.62 427.427 1268.57 428.563C1276.33 437.95 1289.79 443.447 1303.35 443.402C1302.36 443.975 1301.55 444.806 1300.99 445.805C1300.44 446.805 1300.17 447.935 1300.21 449.076C1300.21 452.496 1302.55 455.264 1305.43 455.264C1308.31 455.264 1310.64 452.496 1310.64 449.076C1310.64 446.379 1309.19 444.092 1307.15 443.213C1312.1 442.826 1316.94 441.624 1321.49 439.656C1326.87 437.268 1331.7 433.813 1335.7 429.501C1325.94 435.596 1314.63 438.772 1303.12 438.653Z" fill="#8FB4FF" stroke="black" stroke-width="3" stroke-miterlimit="10"/>
</g>
<g clip-path="url(#clip2_767_7)">
<path d="M1015.21 421.649V390.861C1019.89 390.795 1024.54 391.714 1028.84 393.556C1034.98 396.237 1040.18 400.661 1043.81 406.275C1050.89 403.66 1058.55 402.945 1066 404.201C1073.45 405.456 1080.44 408.638 1086.27 413.429C1088.76 411.34 1091.43 409.478 1094.25 407.865C1099.69 404.764 1105.63 402.613 1111.8 401.505L1104.62 427.738C1102.31 438.748 1102.31 450.116 1104.62 461.126C1103.32 468.156 1100.1 474.694 1095.31 480.022C1090.53 485.35 1084.37 489.264 1077.5 491.333C1067.42 494.416 1056.73 494.963 1046.39 492.923C1040.46 491.874 1034.77 489.716 1029.64 486.564C1023.85 482.912 1018.95 478.024 1015.28 472.255C1011.21 465.771 1008.75 458.413 1008.1 450.792C1007.34 440.575 1009.83 430.378 1015.21 421.649Z" fill="#494949" stroke="black" stroke-width="5" stroke-miterlimit="10"/>
<path d="M1021.59 395.941C1021.59 395.941 1031.16 408.604 1027.58 419.36L1021.59 395.941Z" fill="#494949"/>
<path d="M1021.59 395.941C1021.59 395.941 1031.16 408.604 1027.58 419.36" stroke="black" stroke-width="3" stroke-miterlimit="10"/>
<path d="M1106.6 407.65C1106.6 407.65 1095.77 418.994 1097.37 423.764L1106.6 407.65Z" fill="#494949"/>
<path d="M1106.6 407.65C1106.6 407.65 1095.77 418.994 1097.37 423.764" stroke="black" stroke-width="3" stroke-miterlimit="10"/>
<path d="M1061.36 455.807C1062.5 452.438 1058.87 448.167 1053.23 446.266C1047.6 444.364 1042.11 445.553 1040.96 448.922C1039.82 452.29 1043.46 456.562 1049.09 458.463C1054.72 460.364 1060.22 459.175 1061.36 455.807Z" fill="black"/>
<path d="M1093.54 452.28C1096.19 448.992 1096.79 445.089 1094.88 443.561C1092.97 442.034 1089.27 443.461 1086.62 446.748C1083.98 450.035 1083.38 453.939 1085.29 455.466C1087.2 456.994 1090.9 455.567 1093.54 452.28Z" fill="black"/>
<path d="M1085.44 463.757C1086.66 465.347 1083.98 471.706 1079.73 471.945C1075.67 472.144 1072.32 466.611 1073.28 464.854C1073.58 464.298 1074.21 464.29 1079 463.868C1084.43 463.383 1085.05 463.264 1085.44 463.757Z" fill="black"/>
<path d="M1097.21 462.938C1097.21 462.938 1113.72 459.138 1126.48 463.113" stroke="black" stroke-width="3" stroke-miterlimit="10"/>
<path d="M1097.21 470.713C1097.21 470.713 1125.29 471.46 1128.48 475.832" stroke="black" stroke-width="3" stroke-miterlimit="10"/>
<path d="M1039.14 467.485C1039.14 467.485 1013.62 465.188 1000.46 470.713" stroke="black" stroke-width="3" stroke-miterlimit="10"/>
<path d="M1038.48 478.615C1038.48 478.615 1012.82 480.999 1007.23 486.564" stroke="black" stroke-width="3" stroke-miterlimit="10"/>
<path d="M1058.62 452.938C1059.01 452.379 1058.58 451.396 1057.65 450.743C1056.73 450.09 1055.65 450.014 1055.26 450.573C1054.86 451.133 1055.29 452.116 1056.22 452.769C1057.15 453.422 1058.22 453.498 1058.62 452.938Z" fill="white"/>
<path d="M1088.01 450.538C1088.79 449.762 1089.05 448.763 1088.59 448.306C1088.14 447.85 1087.13 448.109 1086.35 448.885C1085.58 449.661 1085.32 450.66 1085.77 451.117C1086.23 451.573 1087.23 451.314 1088.01 450.538Z" fill="white"/>
<path d="M1028.37 485.769L1022.39 583.547C1018.83 584.676 1015.56 586.577 1012.82 589.111C1010.43 591.305 1005.95 595.518 1006.44 601.035C1006.57 603.109 1007.41 605.074 1008.83 606.6C1010.16 607.943 1012.11 608.889 1020 608.985C1028.77 609.088 1033.18 609.144 1035.95 606.6C1038.49 604.271 1039.52 600.844 1039.94 599.445C1040.56 597.384 1040.83 595.235 1040.74 593.086C1040.6 588.857 1044.5 576.281 1057.72 545.874L1077.43 546.184C1076.97 550.248 1075.49 554.129 1073.12 557.465C1070.74 560.802 1067.56 563.485 1063.87 565.263C1063.38 565.541 1057.93 568.777 1057.49 574.802C1057.09 580.271 1060.98 585.709 1067.06 587.521C1075.86 588.883 1084.87 587.2 1092.58 582.752C1094.18 581.432 1096.33 579.27 1096.57 576.392C1096.78 573.944 1095.46 572.958 1094.98 570.827C1094.09 566.94 1096.85 563.252 1104.55 554.134C1110.39 547.218 1113.32 543.8 1114.12 543.005C1125.81 532.178 1142.72 530.58 1150.41 530.333C1154.89 534.462 1160.37 537.361 1166.32 538.746C1172.26 540.131 1178.46 539.955 1184.31 538.235C1186.58 539.635 1188.49 541.54 1189.9 543.8C1191.91 547.141 1192.75 551.057 1192.29 554.929C1192.24 560.222 1190.72 565.398 1187.91 569.886C1185.09 574.375 1181.09 578.002 1176.34 580.367C1169.52 582.577 1166.92 589.652 1169.16 593.881C1170.87 597.14 1176.26 597.561 1180.32 597.808C1185.21 598.11 1194.47 597.808 1205.85 591.496C1214.8 582.346 1221.37 571.158 1224.99 558.903C1226.12 555 1226.92 551.012 1227.39 546.979C1225.99 542.298 1224.12 537.77 1221.8 533.465C1217.37 525.266 1211.42 517.982 1204.25 512.002C1212.32 500.675 1216.77 487.191 1217.03 473.306C1217.29 459.421 1213.35 445.78 1205.71 434.161C1211.61 432.317 1224.92 427.261 1235.36 414.224C1251.51 394.057 1248.5 370.169 1246.53 360.963C1244.77 352.767 1241.3 336.487 1226.59 327.576C1217.97 322.361 1209.15 321.868 1204.25 322.011C1201.17 322.433 1198.67 324.277 1197.87 326.781C1197.61 327.713 1197.55 328.689 1197.68 329.647C1197.82 330.605 1198.16 331.524 1198.67 332.345C1201.32 336.384 1207.72 335.605 1211.43 336.32C1223.21 338.586 1235.69 361.202 1231.37 382.427C1227.8 400.019 1213.23 413.962 1194.68 417.404C1191.96 415.584 1177.52 406.275 1158.79 410.25C1148.87 412.408 1139.91 417.706 1133.26 425.353C1129.86 429.504 1125.23 432.472 1120.03 433.83C1114.83 435.189 1109.33 434.868 1104.32 432.913C1103.64 438.048 1103.45 443.236 1103.75 448.407C1104.24 457.032 1105.77 459.671 1104.55 465.1C1103.24 470.919 1099.95 474.711 1096.57 478.614C1092.05 484.089 1086.32 488.443 1079.82 491.333C1065.76 497.351 1052.16 493.718 1043.13 491.333C1038.03 489.978 1033.09 488.113 1028.37 485.769Z" fill="#494949" stroke="black" stroke-width="5" stroke-miterlimit="10"/>
<path d="M1082.21 527.901L1076.21 549.484" stroke="black" stroke-width="3" stroke-miterlimit="10"/>
<path d="M1119.7 526.311C1117.86 536.423 1113.15 545.799 1106.14 553.339" stroke="black" stroke-width="3" stroke-miterlimit="10"/>
<path d="M1145.23 519.951C1147.14 525.446 1150.6 530.276 1155.2 533.863" stroke="black" stroke-width="3" stroke-miterlimit="10"/>
<path d="M1038.48 521.541C1038.48 521.541 1046.78 544.769 1056.92 546.669" stroke="black" stroke-width="3" stroke-miterlimit="10"/>
<path d="M1013.62 597.855C1013.62 597.855 1010.43 605.01 1015.21 608.985L1013.62 597.855Z" fill="#494949"/>
<path d="M1013.62 597.855C1013.62 597.855 1010.43 605.01 1015.21 608.985" stroke="black" stroke-width="3" stroke-miterlimit="10"/>
<path d="M1022.79 598.452C1022.79 598.452 1019.6 605.606 1024.38 609.581L1022.79 598.452Z" fill="#494949"/>
<path d="M1022.79 598.452C1022.79 598.452 1019.6 605.606 1024.38 609.581" stroke="black" stroke-width="3" stroke-miterlimit="10"/>
<path d="M1066.26 575.597C1066.26 577.187 1062.79 585.884 1069.71 588.69L1066.26 575.597Z" fill="#494949"/>
<path d="M1066.26 575.597C1066.26 577.187 1062.79 585.884 1069.71 588.69" stroke="black" stroke-width="3" stroke-miterlimit="10"/>
<path d="M1077.57 574.405C1077.57 575.995 1074.09 584.691 1081.02 587.497L1077.57 574.405Z" fill="#494949"/>
<path d="M1077.57 574.405C1077.57 575.995 1074.09 584.691 1081.02 587.497" stroke="black" stroke-width="3" stroke-miterlimit="10"/>
<path d="M1182.72 584.342C1182.72 584.342 1172.35 592.998 1179.53 598.603L1182.72 584.342Z" fill="#494949"/>
<path d="M1182.72 584.342C1182.72 584.342 1172.35 592.998 1179.53 598.603" stroke="black" stroke-width="3" stroke-miterlimit="10"/>
<path d="M1063.87 495.308C1051.13 496.518 1038.35 493.439 1027.58 486.564C1029.66 488.862 1032.01 490.913 1034.56 492.677C1044.32 499.402 1054.78 500.229 1060.67 500.125C1060.13 501.081 1059.86 502.162 1059.87 503.258C1059.87 505.889 1061.3 508.027 1063.06 508.027C1064.83 508.027 1066.25 505.889 1066.25 503.258C1066.27 502.09 1065.96 500.94 1065.35 499.943C1069.52 499.596 1073.59 498.567 1077.42 496.898C1084.28 493.847 1090.1 488.876 1094.17 482.589C1085.55 489.713 1075.01 494.138 1063.87 495.308Z" fill="#D8D327" stroke="black" stroke-width="3" stroke-miterlimit="10"/>
<path d="M1080.22 471.062C1080.3 471.855 1080.3 472.654 1080.22 473.447C1080.14 474.257 1079.98 475.056 1079.73 475.832" fill="#494949"/>
<path d="M1080.22 471.062C1080.3 471.855 1080.3 472.654 1080.22 473.447C1080.14 474.257 1079.98 475.056 1079.73 475.832" stroke="black" stroke-width="2" stroke-miterlimit="10"/>
</g>
<g clip-path="url(#clip3_767_7)">
<path d="M1174.85 603.172C1201.28 603.172 1222.71 581.863 1222.71 555.578C1222.71 529.292 1201.28 507.983 1174.85 507.983C1148.42 507.983 1126.99 529.292 1126.99 555.578C1126.99 581.863 1148.42 603.172 1174.85 603.172Z" fill="#E26498" stroke="#19030E" stroke-width="5" stroke-miterlimit="10"/>
<path d="M1143.53 547.391C1138.04 555.812 1133.81 564.983 1130.98 574.615" stroke="#19030E" stroke-width="3" stroke-miterlimit="10"/>
<path d="M1191.6 510.363C1177.25 514.718 1166.31 521.793 1155.71 532.391" stroke="#19030E" stroke-width="3" stroke-miterlimit="10"/>
<path d="M1160.2 537.611C1170.64 527.144 1183.1 518.894 1196.84 513.361" stroke="#19030E" stroke-width="3" stroke-miterlimit="10"/>
<path d="M1134.18 579.882C1137.24 570.647 1141.53 561.862 1146.94 553.761" stroke="#19030E" stroke-width="3" stroke-miterlimit="10"/>
<path d="M1150.44 558.282C1145.03 566.499 1140.88 575.482 1138.16 584.927" stroke="#19030E" stroke-width="3" stroke-miterlimit="10"/>
<path d="M1204.37 517.502C1201.57 516.312 1198.38 517.105 1195.99 518.692C1184.03 525.038 1172.06 531.384 1162.97 541.157" stroke="#19030E" stroke-width="3" stroke-miterlimit="10"/>
<path d="M1168.14 548.042C1179.34 536.075 1193.07 526.735 1208.35 520.699" stroke="#19030E" stroke-width="3" stroke-miterlimit="10"/>
<path d="M1143.24 589.171C1146.1 580.546 1150.04 572.312 1154.96 564.66" stroke="#19030E" stroke-width="3" stroke-miterlimit="10"/>
<path d="M1159.78 570.578C1155.06 577.884 1151.03 585.609 1147.73 593.653" stroke="#19030E" stroke-width="3" stroke-miterlimit="10"/>
<path d="M1213.14 527.021C1197.35 531.654 1183.75 541.807 1172.79 553.809" stroke="#19030E" stroke-width="3" stroke-miterlimit="10"/>
<path d="M1202.37 578.185C1211.63 568.248 1218.11 556.072 1221.16 542.87" stroke="#19030E" stroke-width="3" stroke-miterlimit="10"/>
<path d="M1162.89 600.792C1171.64 598.784 1179.99 595.296 1187.56 590.48" stroke="#19030E" stroke-width="3" stroke-miterlimit="10"/>
<path d="M1193.39 593.59C1186.73 597.777 1179.37 600.753 1171.66 602.379" stroke="#19030E" stroke-width="3" stroke-miterlimit="10"/>
<path d="M1222.71 551.167C1220.47 562.153 1215.45 572.389 1208.13 580.914" stroke="#19030E" stroke-width="3" stroke-miterlimit="10"/>
<path d="M1182.07 587.228C1174.68 592.394 1166.58 596.477 1158.01 599.349" stroke="#19030E" stroke-width="3" stroke-miterlimit="10"/>
<path d="M1218.43 535.088C1214.64 549.468 1207.43 562.732 1197.42 573.767" stroke="#19030E" stroke-width="3" stroke-miterlimit="10"/>
<path d="M1134.18 529.686C1134.18 529.686 1152.06 579.922 1198.95 595.906" stroke="#19030E" stroke-width="3" stroke-miterlimit="10"/>
<path d="M1138.16 526.029C1138.16 526.029 1158.1 574.528 1204.36 592.019C1284.85 592.479 1302.27 595.985 1302.47 599.206C1302.73 603.124 1277.93 609.819 1260.2 612.691C1249.31 614.452 1231.6 616.316 1209.95 623.796C1204.96 625.526 1199.33 627.691 1199.58 629.349C1199.9 631.483 1209.85 631.816 1218.72 631.729L1367.88 634.68" stroke="#19030E" stroke-width="3" stroke-miterlimit="10"/>
<path d="M1142.32 519.882C1142.32 519.882 1159.02 565.644 1209.6 589.171" stroke="#19030E" stroke-width="3" stroke-miterlimit="10"/>
<path d="M1146.63 516.312C1146.63 516.312 1163.69 556.339 1213.14 584.896" stroke="#19030E" stroke-width="3" stroke-miterlimit="10"/>
<path d="M1216.62 570.697C1217.19 571.768 1217.73 572.854 1218.22 573.941" stroke="#19030E" stroke-width="3" stroke-miterlimit="10"/>
<path d="M1191.5 538.158C1197.88 544.348 1203.71 551.073 1208.94 558.259" stroke="#19030E" stroke-width="3" stroke-miterlimit="10"/>
<path d="M1158.01 510.22C1162.54 513.322 1166.88 516.669 1171.15 520.112" stroke="#19030E" stroke-width="3" stroke-miterlimit="10"/>
<path d="M1196.88 534.874C1202.65 540.261 1207.86 546.209 1212.44 552.627" stroke="#19030E" stroke-width="3" stroke-miterlimit="10"/>
<path d="M1163.84 508.459C1168.03 511.259 1172.08 514.266 1176.06 517.359" stroke="#19030E" stroke-width="3" stroke-miterlimit="10"/>
<path d="M1202.44 531.741C1206.81 536.38 1210.87 541.295 1214.6 546.455" stroke="#19030E" stroke-width="3" stroke-miterlimit="10"/>
<path d="M1171.26 507.19C1175.09 509.178 1178.75 511.461 1182.22 514.02" stroke="#19030E" stroke-width="3" stroke-miterlimit="10"/>
<path d="M1207.25 529.29C1210.64 533.359 1213.79 537.619 1216.77 541.981" stroke="#19030E" stroke-width="3" stroke-miterlimit="10"/>
<path d="M1180.44 507.515C1183.26 508.378 1185.92 509.72 1188.28 511.481" stroke="#19030E" stroke-width="3" stroke-miterlimit="10"/>
<path d="M1151.75 584.42C1156.51 588.745 1161.86 592.375 1167.64 595.2" stroke="#19030E" stroke-width="3" stroke-miterlimit="10"/>
<path d="M1127.7 546.622C1130.66 552.175 1131.42 558.663 1135.25 563.788" stroke="#19030E" stroke-width="3" stroke-miterlimit="10"/>
<path d="M1149.73 589.029C1153.7 592.711 1158.08 595.939 1162.78 598.651" stroke="#19030E" stroke-width="3" stroke-miterlimit="10"/>
<path d="M1128.07 556.53C1129.38 560.63 1131.11 564.588 1133.22 568.341" stroke="#19030E" stroke-width="3" stroke-miterlimit="10"/>
<path d="M1156.51 576.511C1156.85 580.969 1157.31 585.427 1158.01 589.838" stroke="#19030E" stroke-width="3" stroke-miterlimit="10"/>
<path d="M1158.1 511.156C1157.45 517.319 1156.91 524.451 1156.51 530.638" stroke="#19030E" stroke-width="3" stroke-miterlimit="10"/>
<path d="M1161.12 571.934C1161.56 578.867 1162.23 585.779 1163.1 592.67" stroke="#19030E" stroke-width="3" stroke-miterlimit="10"/>
<path d="M1162.49 514.028C1162.03 518.121 1161.69 522.23 1161.34 526.339" stroke="#19030E" stroke-width="3" stroke-miterlimit="10"/>
<path d="M1166.74 576.535C1167.35 582.653 1168.15 588.748 1169.13 594.819" stroke="#19030E" stroke-width="3" stroke-miterlimit="10"/>
<path d="M1166.56 516.931C1166.37 519.041 1166.19 521.151 1166.04 523.277" stroke="#19030E" stroke-width="3" stroke-miterlimit="10"/>
<path d="M1152.37 512.759C1151.72 516.956 1151.5 521.209 1151.72 525.45" stroke="#19030E" stroke-width="3" stroke-miterlimit="10"/>
<path d="M1172.46 580.961C1172.46 580.961 1173.79 591.98 1173.92 592.019" stroke="#19030E" stroke-width="3" stroke-miterlimit="10"/>
<path d="M1196.17 543.497C1190.35 548.686 1184.01 553.266 1177.25 557.164" stroke="#19030E" stroke-width="3" stroke-miterlimit="10"/>
<path d="M1210.75 527.814C1210.12 528.629 1209.48 529.438 1208.83 530.242" stroke="#19030E" stroke-width="3" stroke-miterlimit="10"/>
<path d="M1200.4 547.249C1194.68 552.721 1188.24 557.401 1181.26 561.162" stroke="#19030E" stroke-width="3" stroke-miterlimit="10"/>
<path d="M1214.73 529.401C1213.67 531.119 1212.56 532.804 1211.41 534.454" stroke="#19030E" stroke-width="3" stroke-miterlimit="10"/>
<path d="M1203.17 550.659C1197.53 556.198 1191.25 561.045 1184.46 565.096" stroke="#19030E" stroke-width="3" stroke-miterlimit="10"/>
<path d="M1217.13 533.367C1216.2 534.811 1215.24 536.238 1214.25 537.635" stroke="#19030E" stroke-width="3" stroke-miterlimit="10"/>
<path d="M1204.66 553.809C1200.58 559.433 1195.3 564.099 1189.21 567.476" stroke="#19030E" stroke-width="3" stroke-miterlimit="10"/>
<path d="M1207.56 556.371C1203.91 562.705 1198.32 567.709 1191.6 570.649" stroke="#19030E" stroke-width="3" stroke-miterlimit="10"/>
<path d="M1193.2 540.506C1190.37 542.87 1187.45 545.25 1184.42 547.645C1181.2 550.21 1178.01 552.664 1174.85 555.007" stroke="#19030E" stroke-width="3" stroke-miterlimit="10"/>
<path d="M1134.97 530.987C1134.97 530.987 1129.96 544.472 1131.78 557.164" stroke="#19030E" stroke-width="3" stroke-miterlimit="10"/>
<path d="M1136.57 534.953C1136.57 534.953 1135.42 554.515 1136.79 559.409" stroke="#19030E" stroke-width="3" stroke-miterlimit="10"/>
<path d="M1139.84 541.696C1139.42 545.52 1139.39 549.376 1139.76 553.206" stroke="#19030E" stroke-width="3" stroke-miterlimit="10"/>
</g>
<g clip-path="url(#clip4_767_7)">
<path d="M1502.19 340.159C1501.63 335.45 1502.66 330.688 1505.12 326.636C1508.15 321.82 1512.43 319.709 1515.09 318.404C1518.57 316.698 1522.36 315.699 1526.23 315.464L1532.68 306.057C1533.91 303.522 1535.81 302.17 1536.79 302.529C1537.76 302.887 1538.43 305.392 1537.37 308.409C1537.74 308.235 1538.14 308.145 1538.55 308.145C1538.95 308.145 1539.35 308.235 1539.72 308.409C1540.8 309.061 1541.24 310.878 1540.31 312.524C1540.11 313.112 1539.91 313.7 1539.72 314.288C1540.15 314.369 1540.56 314.557 1540.91 314.833C1541.25 315.11 1541.52 315.468 1541.7 315.875C1541.87 316.282 1541.94 316.726 1541.9 317.167C1541.86 317.608 1541.72 318.033 1541.48 318.404C1541.28 318.992 1541.09 319.58 1540.89 320.168C1543.82 322.663 1546.16 325.775 1547.75 329.282C1548.48 330.916 1552.26 339.342 1548.51 348.391C1546.8 352.448 1543.95 355.919 1540.31 358.387C1530.05 365.313 1512.47 364.461 1505.33 354.042C1504.17 352.342 1501.52 347.821 1502.19 340.159Z" fill="#FFFDE1" stroke="black" stroke-width="5" stroke-miterlimit="10"/>
<path d="M1502.19 340.159C1503.7 342.253 1504.7 344.668 1505.12 347.215C1505.41 348.968 1505.41 350.755 1505.12 352.507C1503.52 353.683 1501.76 354.859 1499.84 356.035C1498.44 356.899 1497.06 357.681 1495.74 358.387L1502.78 348.979L1482.84 345.451C1488.91 342.509 1495.47 340.715 1502.19 340.159Z" fill="#F9D523" stroke="black" stroke-width="3" stroke-miterlimit="10"/>
<path d="M1517.31 340.159C1519 340.159 1520.37 338.382 1520.37 336.191C1520.37 333.999 1519 332.222 1517.31 332.222C1515.62 332.222 1514.25 333.999 1514.25 336.191C1514.25 338.382 1515.62 340.159 1517.31 340.159Z" fill="black"/>
<path d="M1510.99 360.739C1513.33 362.268 1518.2 363.391 1523.89 363.679C1536.79 364.331 1545.21 353.995 1546.2 352.736L1554.97 347.215L1556.72 356.035L1547.93 355.447C1546.21 358.354 1544.25 361.108 1542.06 363.679C1535.78 371.07 1529.85 374.298 1523.3 378.966C1516.75 383.662 1510.66 388.978 1505.12 394.842C1504.4 388.771 1504.6 382.626 1505.71 376.614C1507.07 369.265 1508.93 364.643 1510.99 360.739Z" fill="#649B54" stroke="black" stroke-width="5" stroke-miterlimit="10"/>
<path d="M1508.64 391.902C1508.28 394.759 1506.5 410.923 1517.95 425.299C1529.88 440.269 1546.94 441.698 1549.69 441.88C1553.89 452.864 1558.02 461.966 1561.42 468.927C1565.22 476.462 1569.53 483.73 1574.32 490.683C1574.32 490.683 1577.44 495.222 1583.7 500.678C1583.7 500.678 1586.17 502.83 1593.67 505.382C1593.76 505.423 1593.86 505.445 1593.96 505.445C1594.06 505.445 1594.16 505.423 1594.25 505.382C1595.3 504.712 1592.91 499.273 1592.49 498.326C1591.1 495.18 1589.33 492.218 1587.22 489.507C1587.77 489.939 1588.45 490.185 1589.15 490.211C1589.85 490.237 1590.54 490.041 1591.12 489.651C1591.71 489.26 1592.16 488.696 1592.4 488.037C1592.65 487.377 1592.68 486.658 1592.49 485.979C1593.08 486.202 1598.39 488.09 1600.12 485.979C1601.29 484.568 1600.28 482.045 1598.95 478.923C1597.19 474.807 1594.69 469.198 1591.32 462.459C1591.84 462.796 1592.41 463.022 1593.02 463.123C1593.63 463.224 1594.25 463.198 1594.84 463.047C1595.33 462.925 1595.79 462.706 1596.19 462.403C1596.59 462.1 1596.93 461.719 1597.19 461.284C1597.46 460.735 1597.6 460.131 1597.6 459.52C1597.6 458.908 1597.46 458.304 1597.19 457.756L1593.67 452.464L1590.15 447.172C1592.95 448.871 1599.75 452.752 1601.88 450.7C1603.54 449.101 1601.62 444.585 1600.7 442.468C1588.04 413.328 1581.42 398.958 1575.49 389.55C1566.89 375.926 1555.55 365.125 1547.34 356.035C1540.97 365.613 1534.55 371.046 1529.75 374.262C1526.75 376.273 1522.71 378.531 1517.44 383.082C1514.28 385.791 1511.34 388.74 1508.64 391.902Z" fill="#FFFDE1" stroke="black" stroke-width="5" stroke-miterlimit="10"/>
<path d="M1532.68 373.087C1536.92 405.97 1540.75 422.373 1544.19 422.295C1545.28 422.263 1546.33 420.578 1547.34 417.238C1549.93 423.592 1554.72 428.794 1560.83 431.885C1565.1 434.166 1566.73 434.237 1567.28 433.649C1567.63 433.266 1567.43 432.767 1567.87 432.473C1568.85 431.814 1571.49 433.86 1571.97 434.237C1572.33 434.519 1590.38 448.542 1598.94 450.112C1599.3 450.213 1599.67 450.238 1600.04 450.187C1600.41 450.135 1600.76 450.007 1601.07 449.812C1603.31 448.048 1599.96 440.757 1599.96 440.757C1593.65 419.327 1583.58 399.198 1570.21 381.318C1563.54 372.431 1556.08 364.166 1547.93 356.623C1543.63 362.79 1538.5 368.331 1532.68 373.087Z" fill="#FFDC48" stroke="black" stroke-width="5" stroke-miterlimit="10"/>
<path d="M1562 422.477C1562.71 424.634 1563.79 426.652 1565.19 428.439C1566.61 430.271 1568.43 431.752 1570.5 432.766" stroke="black" stroke-width="3" stroke-miterlimit="10"/>
<path d="M1577.83 447.76C1578.91 450.089 1580.29 452.264 1581.94 454.228C1584.39 457.131 1587.37 459.527 1590.74 461.284" stroke="black" stroke-width="3" stroke-miterlimit="10"/>
<path d="M1571.38 459.52C1573.73 463.253 1576.46 467.211 1579.59 471.279C1583.24 476.011 1587.16 480.527 1591.32 484.803" stroke="black" stroke-width="3" stroke-miterlimit="10"/>
<path d="M1574.32 474.219C1577.56 479.441 1581.51 484.19 1586.04 488.331" stroke="black" stroke-width="3" stroke-miterlimit="10"/>
<path d="M1559.07 445.408C1538.15 442.274 1522.23 439.428 1501.31 436.294C1500.88 436.453 1496.12 438.305 1494.86 443.35C1494.25 445.954 1494.67 448.694 1496.03 450.994C1505.24 452.999 1514.28 454.828 1523.3 456.639V456.58L1532.1 458.344V458.403C1540.43 460.084 1548.8 461.783 1557.31 463.636L1559.07 445.408Z" fill="#5B3910" stroke="black" stroke-width="5" stroke-miterlimit="10"/>
<path d="M1523.3 456.58V456.639C1523.2 494.936 1523.1 533.233 1523.01 571.53H1531.22L1532.1 458.403V458.344L1523.3 456.58Z" fill="#5B3910" stroke="black" stroke-width="5" stroke-miterlimit="10"/>
<path d="M1558.78 464.811C1562.83 464.811 1566.11 460.336 1566.11 454.816C1566.11 449.295 1562.83 444.82 1558.78 444.82C1554.73 444.82 1551.45 449.295 1551.45 454.816C1551.45 460.336 1554.73 464.811 1558.78 464.811Z" fill="#5B3910" stroke="black" stroke-width="3" stroke-miterlimit="10"/>
<path d="M1540.89 440.704C1538.43 441.782 1536.22 443.388 1534.44 445.408C1532.12 448.067 1530.6 451.328 1530.04 454.816" stroke="#020202" stroke-width="5" stroke-miterlimit="10"/>
<path d="M1546.17 441.88C1545.71 442.051 1541.04 443.891 1539.72 448.936C1539.38 450.328 1539.32 451.774 1539.55 453.188C1539.78 454.603 1540.29 455.956 1541.06 457.168" stroke="#020202" stroke-width="5" stroke-miterlimit="10"/>
<path d="M1537.96 440.116C1535.2 439.768 1532.41 440.335 1530 441.732C1527.59 443.128 1525.71 445.277 1524.64 447.848" stroke="#020202" stroke-width="5" stroke-miterlimit="10"/>
<path d="M1515.09 437.176C1513.82 436.504 1512.42 436.104 1510.99 436C1509.72 435.912 1507.59 435.765 1505.71 437.176C1504.56 438.065 1503.74 439.304 1503.36 440.704" stroke="#020202" stroke-width="5" stroke-miterlimit="10"/>
<path d="M1520.95 437.176C1520.44 437.1 1514.67 436.001 1511.57 438.94C1509.97 440.498 1508.98 442.588 1508.8 444.82" stroke="#020202" stroke-width="5" stroke-miterlimit="10"/>
<path d="M1522.71 437.176C1520.94 437.43 1519.29 438.255 1518.02 439.528C1516.51 441.109 1515.67 443.217 1515.68 445.408" stroke="#020202" stroke-width="5" stroke-miterlimit="10"/>
<path d="M1520.66 437.176L1533.86 438.94" stroke="#020202" stroke-width="5" stroke-miterlimit="10"/>
</g>
<g clip-path="url(#clip5_767_7)">
<path d="M1389.66 534.874C1386.36 525.318 1390.77 519.774 1386.07 512.584C1384.53 510.264 1382.52 508.296 1380.16 506.809C1377.81 505.322 1375.17 504.35 1372.41 503.956C1368.99 503.529 1365.51 504.025 1362.35 505.394C1360.78 506.372 1354.16 510.736 1352.29 519.055C1350.34 527.683 1354.31 537.11 1362.35 542.783C1364.5 546.256 1367.65 551.009 1371.69 556.444C1377.21 563.872 1381.95 570.257 1388.22 575.858C1393.17 580.28 1401.88 586.708 1415.54 590.957C1415.34 591.188 1410.9 596.415 1412.66 599.586C1413.67 601.39 1416.33 601.887 1421.29 601.743C1429.66 601.426 1437.92 599.725 1445.73 596.71L1489.57 600.305C1499.06 603.591 1509.29 604.09 1519.04 601.743C1522.78 599.098 1525.55 595.314 1526.95 590.957C1534.43 592.014 1540.98 592.683 1546.36 593.114C1554.39 593.762 1567.01 592.446 1567.2 590.238C1567.25 589.771 1566.75 589.081 1564.33 588.081C1558.58 586.643 1552.59 584.966 1546.36 583.048C1541.09 581.423 1536.06 579.745 1531.26 578.015L1478.79 578.734C1466.8 577.533 1456.79 575.858 1449.32 574.42C1424.65 569.631 1417.45 565.224 1414.1 562.916C1407.11 558.105 1391.93 541.446 1389.66 534.874Z" fill="#FFEEDE" stroke="black" stroke-width="5" stroke-miterlimit="10"/>
<path d="M1401.16 549.254C1401.31 548.381 1401.63 547.549 1402.12 546.81C1402.61 546.072 1403.25 545.445 1403.99 544.97C1404.74 544.495 1405.58 544.183 1406.45 544.054C1407.33 543.925 1408.22 543.982 1409.07 544.221C1419.46 519.666 1443.33 504.171 1468.01 505.394C1497.69 506.832 1523.41 532.257 1525.51 565.073C1527.89 566.035 1529.88 567.754 1531.18 569.964C1532.48 572.174 1533.01 574.751 1532.7 577.296C1519.57 578.617 1506.36 579.098 1493.17 578.734C1472.75 578.166 1459.52 575.757 1444.29 572.982C1444.29 572.982 1439.8 572.162 1433.6 570.314C1425.29 567.841 1418.96 566 1412.66 561.478C1408.09 558.175 1404.18 554.026 1401.16 549.254Z" fill="#336841" stroke="black" stroke-width="5" stroke-miterlimit="10"/>
<path d="M1439.26 511.146C1441.51 515.229 1444.16 519.082 1447.17 522.65C1452.25 528.69 1459.2 536.944 1467.29 538.469C1477.83 540.46 1490.57 531.106 1498.92 516.179C1488.98 509.299 1477.22 505.544 1465.14 505.394C1456.19 505.353 1447.35 507.318 1439.26 511.146Z" fill="#1E4C29" stroke="black" stroke-width="2" stroke-miterlimit="10"/>
<path d="M1508.62 525.886C1504.66 526.227 1500.78 527.197 1497.12 528.762C1493.53 530.308 1487.25 533.012 1484.28 539.339L1484.18 539.547C1481.85 544.998 1492.67 557.163 1504.31 562.556C1510.39 565.319 1517.05 566.553 1523.72 566.151C1523.85 563.996 1523.85 561.835 1523.72 559.68C1523.34 553.482 1521.88 547.399 1519.4 541.704C1516.81 535.812 1513.16 530.449 1508.62 525.886Z" fill="#1E4C29" stroke="black" stroke-width="2" stroke-miterlimit="10"/>
<path d="M1432.43 515.82C1435.26 517.726 1437.91 519.892 1440.34 522.291C1443.17 525.088 1446.2 528.043 1448.24 532.357C1449.12 534.183 1453.43 543.214 1449.68 549.614C1444.84 557.875 1429.56 556.581 1420.93 553.209C1417.29 551.771 1411.41 549.499 1410.15 544.58C1408.89 539.662 1412.94 534.859 1418.05 528.762C1422.23 523.807 1427.07 519.452 1432.43 515.82Z" fill="#1E4C29" stroke="black" stroke-width="2" stroke-miterlimit="10"/>
<path d="M1461.9 549.614C1458.19 551.025 1454.58 552.707 1451.12 554.647C1443.99 558.637 1432.53 566.468 1433.87 569.746C1434.23 570.652 1435.47 570.911 1436.74 571.184C1451.72 574.37 1465.44 576.685 1466.93 576.937C1470.53 577.541 1471.86 577.886 1475.56 578.375C1479.84 579.031 1484.17 579.272 1488.5 579.094C1493.28 578.835 1495.68 578.828 1496.4 577.656C1498.13 574.837 1492.91 568.646 1487.78 562.556C1485.4 559.672 1482.75 557.024 1479.87 554.647C1476.06 551.534 1473.57 549.556 1469.81 548.895C1467.15 548.458 1464.43 548.705 1461.9 549.614Z" fill="#1E4C29" stroke="black" stroke-width="2" stroke-miterlimit="10"/>
<path d="M1525.51 566.511C1524.13 566.784 1522.7 567.024 1521.2 567.23C1517.39 567.757 1513.55 567.997 1509.7 567.949" fill="#170007"/>
<path d="M1525.51 566.511C1524.13 566.784 1522.7 567.024 1521.2 567.23C1517.39 567.757 1513.55 567.997 1509.7 567.949" stroke="black" stroke-miterlimit="10"/>
<path d="M1368.46 526.605C1370.84 526.605 1372.77 525.8 1372.77 524.807C1372.77 523.815 1370.84 523.01 1368.46 523.01C1366.08 523.01 1364.15 523.815 1364.15 524.807C1364.15 525.8 1366.08 526.605 1368.46 526.605Z" fill="#FFB3B3"/>
<path d="M1366.12 521.931C1367.21 521.931 1368.1 520.08 1368.1 517.797C1368.1 515.514 1367.21 513.663 1366.12 513.663C1365.03 513.663 1364.15 515.514 1364.15 517.797C1364.15 520.08 1365.03 521.931 1366.12 521.931Z" fill="black"/>
<path d="M1353.63 528.158C1354.48 527.885 1355.3 527.541 1356.09 527.13C1356.81 526.752 1357.5 526.301 1358.13 525.785" stroke="black" stroke-miterlimit="10"/>
<path d="M1501.79 589.52C1501.79 589.52 1486.45 592.971 1489.57 599.586" stroke="black" stroke-width="3" stroke-miterlimit="10"/>
<path d="M1416.98 590.238C1418.92 588.294 1421.44 587.032 1424.16 586.643" stroke="black" stroke-width="3" stroke-miterlimit="10"/>
</g>
<g clip-path="url(#clip6_767_7)">
<path d="M809.449 417.779C811.288 418.571 820.029 422.748 823.381 432.443C826.414 441.162 824.837 453.908 815.42 459.393C806.162 464.783 792.414 461.374 785.567 450.277C786.43 446.896 786.43 443.354 785.567 439.973C782.829 429.668 771.923 423.811 768.054 421.742C764.185 419.673 761.128 418.754 761.287 418.175C761.478 417.454 766.255 418.46 777.209 419.76C789.301 421.195 794.547 422.36 801.887 420.553C804.501 419.905 807.037 418.974 809.449 417.779Z" fill="#FF473E" stroke="black" stroke-width="4" stroke-miterlimit="10"/>
<path d="M698 427.291C668.621 431.607 639.967 439.873 612.821 451.863C612.399 452.053 609.509 453.282 607.248 451.863C605.123 450.523 604.948 447.717 604.86 446.314C604.502 440.488 608.522 434.377 613.617 431.254C616.14 429.669 616.881 430.184 619.985 428.083C620.734 427.576 627.15 423.177 626.354 420.949C625.725 419.15 621.434 418.524 616.093 419.364C622.163 418.462 627.894 416.004 632.723 412.23C634.315 410.938 642.427 404.51 640.683 400.34C639.76 398.137 636.456 397.423 634.315 397.17C641.758 395.434 647.123 389.988 647.848 383.695C647.919 383.076 648.572 376.466 643.867 372.598C639.306 368.848 631.528 369.173 625.558 374.183C625.048 370.656 623.743 368.832 622.374 367.842C612.168 360.446 582.069 387.341 579.537 389.64C578.55 388.221 576.902 386.382 574.609 386.073C570.223 385.486 566.426 390.908 564.261 393.999C561.164 398.422 555.766 408.037 555.504 424.913C550.9 434.582 548.628 445.188 548.868 455.886C549.109 466.585 551.855 477.079 556.889 486.533C535.514 510.178 532.099 543.929 547.543 568.383C565.892 597.426 601.437 598.504 604.064 598.504L668.546 602.467C670.917 604 673.679 604.825 676.506 604.845C678.103 604.841 679.687 604.573 681.195 604.052C685.237 604.647 689.363 603.953 692.985 602.07C694.105 602.382 695.281 602.436 696.426 602.23C697.57 602.024 698.652 601.563 699.592 600.882C700.735 599.945 701.573 598.692 701.998 597.28C702.423 595.869 702.417 594.363 701.981 592.955L731.435 594.54C741.186 600.895 752.899 603.566 764.456 602.07C777.843 595.219 792.832 592.071 807.858 592.955C809.977 593.118 812.107 593.118 814.226 592.955C817.337 592.708 820.408 592.107 823.381 591.164C825.672 590.554 827.931 589.829 830.148 588.992C832.17 588.199 834.033 587.406 835.72 586.614L840.497 585.028C842.276 583.828 843.673 582.145 844.519 580.177C845.366 578.21 845.628 576.042 845.273 573.931C844.095 568.621 837.137 566.243 834.128 565.212C824.106 561.788 814.537 565.006 810.246 566.797C814.345 562.839 817.832 558.298 820.595 553.322C825.015 545.285 827.469 536.324 827.76 527.165C830.148 528.917 831.819 528.853 832.536 528.75C836.405 528.195 839.868 522.512 839.701 514.482C838.469 493.717 831.012 473.796 818.294 457.292C817.22 458.038 808.741 463.681 798.305 460.582C792.324 458.724 787.319 454.594 784.374 449.089C769.352 453.679 753.353 454.074 738.122 450.23C722.891 446.386 709.012 438.451 698 427.291Z" fill="#FFF8F0" stroke="black" stroke-width="5" stroke-miterlimit="10"/>
<path d="M624.117 522.805C624.117 522.805 659.335 537.517 663.738 569.794" stroke="black" stroke-width="5" stroke-miterlimit="10"/>
<path d="M656.43 569.793C656.43 569.793 685.661 573.535 701.981 592.955" stroke="black" stroke-width="5" stroke-miterlimit="10"/>
<path d="M730.241 532.317C740.533 534.73 750.18 539.327 758.523 545.795C766.866 552.264 773.707 560.45 778.579 569.794L801.505 571.902L816.957 564.158" stroke="black" stroke-width="5" stroke-miterlimit="10"/>
<path d="M826.167 520.823C825.57 532.444 821.51 539.3 819.138 542.55C815.707 547.243 813.613 547.393 812.881 547.377C809.696 547.29 806.552 543.16 805.071 536.914" stroke="black" stroke-width="5" stroke-miterlimit="10"/>
<path d="M699.99 429.272C703.971 434.638 717.384 451.054 741.386 457.332C754.191 460.632 767.643 460.523 780.393 457.015C780.511 460.182 781.624 463.232 783.578 465.734C787.303 470.363 794.229 472.868 800.295 470.49C805.509 468.461 807.73 463.768 808.256 462.563C804.094 462.765 799.949 461.928 796.195 460.128C792.441 458.328 789.199 455.623 786.762 452.259L784.374 449.881L699.99 429.272Z" fill="#C9F2EE" stroke="black" stroke-width="5" stroke-miterlimit="10"/>
<path d="M797.421 421.322C797.421 421.322 812.689 429.518 811.87 440.694" stroke="black" stroke-width="3" stroke-miterlimit="10"/>
<path d="M762.88 344.458L734.221 350.8C730.493 342.626 725.066 335.331 718.3 329.398C711.398 323.413 698.128 314.647 693.622 318.301C692.269 319.395 692.03 321.368 692.03 323.057C692.56 331.247 693.091 339.438 693.622 347.629C691.106 346.781 690.103 347.209 689.641 347.629C687.834 349.27 689.538 355.286 692.03 359.519C693.487 362 695.039 363.569 694.418 365.067C693.797 366.565 691.799 366.161 691.234 367.445C690.223 369.768 695.325 374.286 698.398 376.957C703.477 381.38 707.641 383.758 707.155 384.884C706.932 385.391 705.985 385.129 703.971 385.676C701.601 386.891 699.511 388.584 697.833 390.646C695.348 393.762 693.879 397.559 693.622 401.529C693.128 406.285 693.033 414.624 697.602 422.931C698.525 424.604 699.59 426.195 700.786 427.687C711.175 438.883 724.587 446.857 739.413 450.653C754.239 454.449 769.85 453.906 784.374 449.088C785.132 447.87 785.671 446.529 785.966 445.125C787.017 440.013 784.294 435.613 782.782 433.235C776.126 422.582 757.475 417.818 755.715 417.382C766.184 418.738 775.322 419.76 782.782 420.553C792.414 421.56 796.235 421.829 801.091 420.553C809.251 418.413 814.839 413.348 818 409.86C818.796 409.17 823.381 404.961 823.381 398.359C823.381 392.366 819.608 386.778 813.757 384.091C813.78 380.339 813.268 376.603 812.236 372.994C810.316 366.406 806.756 360.408 801.887 355.555C799.693 349.033 797.032 342.676 793.927 336.532C793.927 336.532 784.899 318.681 770.841 308.789C767.927 306.736 766.685 306.807 766.064 307.204C764.886 307.949 765.149 310.319 765.268 311.167C765.799 316.187 766.33 321.207 766.86 326.227C766.462 326.132 763.875 325.538 762.084 327.02C760.03 328.716 759.696 332.569 762.084 335.739C759.743 335.533 759.083 336.278 758.9 336.532C757.92 337.911 759.393 341.121 762.88 344.458Z" fill="#FFF8F0" stroke="black" stroke-width="5" stroke-miterlimit="10"/>
<path d="M703.175 343.666C707.186 347.098 710.403 351.355 712.602 356.145C714.8 360.935 715.93 366.142 715.912 371.408" stroke="black" stroke-width="3" stroke-miterlimit="10"/>
<path d="M721.485 389.639C716.246 394.974 714.718 400.633 716.708 403.115C717.082 403.582 718.093 404.565 720.688 404.7C719.582 406.713 719.096 408.726 719.892 409.456C720.776 410.304 723.499 409.59 726.261 407.078" stroke="black" stroke-width="3" stroke-miterlimit="10"/>
<path d="M768.85 379.731C769.566 381.249 770.1 382.845 770.442 384.487C771.015 387.182 771.238 388.649 770.442 390.036C769.399 391.78 767.258 392.231 766.462 392.414C764.567 392.777 762.605 392.498 760.889 391.621C756.296 389.077 755.556 381.745 757.307 376.957C757.729 375.808 758.756 372.994 760.889 372.597C762.736 372.249 764.487 373.882 765.666 374.975C767.042 376.327 768.126 377.946 768.85 379.731Z" fill="black"/>
<path d="M802.285 384.242C801.895 384.424 801.728 384.242 799.897 384.487C797.636 384.765 797.294 385.09 796.712 385.034C793.823 384.773 790.479 376.608 792.732 370.22C793.656 367.628 794.858 367.144 795.12 367.049C797.509 366.201 800.327 369.062 800.693 369.427C805.406 374.183 804.673 383.148 802.285 384.242Z" fill="black"/>
<path d="M782.384 390.828C786.228 388.533 790.384 386.798 794.723 385.676C801.226 384.013 808.009 383.743 814.625 384.884" stroke="black" stroke-width="3" stroke-miterlimit="10"/>
<path d="M801.868 401.159C807.652 400.162 811.936 397.029 811.437 394.16C810.939 391.292 805.846 389.774 800.063 390.771C794.279 391.768 789.995 394.901 790.494 397.77C790.992 400.638 796.085 402.156 801.868 401.159Z" fill="black"/>
<path d="M764.212 377.614C764.701 377.173 764.5 376.158 763.763 375.346C763.026 374.534 762.032 374.233 761.543 374.673C761.054 375.114 761.255 376.129 761.992 376.941C762.729 377.753 763.723 378.054 764.212 377.614Z" fill="white"/>
<path d="M798.415 371.889C798.986 371.56 799.004 370.526 798.454 369.578C797.904 368.63 796.996 368.128 796.425 368.457C795.854 368.785 795.836 369.819 796.386 370.767C796.935 371.715 797.844 372.217 798.415 371.889Z" fill="white"/>
<path d="M687.253 594.144C689.037 594.73 690.636 595.77 691.892 597.16C693.149 598.55 694.019 600.243 694.418 602.07" stroke="black" stroke-width="3" stroke-miterlimit="10"/>
<path d="M676.904 598.107C678.08 598.368 679.173 598.913 680.089 599.692C681.285 600.73 682.121 602.117 682.477 603.656" fill="#FCCE83"/>
<path d="M676.904 598.107C678.08 598.368 679.173 598.913 680.089 599.692C681.285 600.73 682.121 602.117 682.477 603.656" stroke="black" stroke-width="3" stroke-miterlimit="10"/>
<path d="M819.4 580.669C820.753 580.656 822.093 580.932 823.329 581.479C824.565 582.026 825.668 582.831 826.565 583.839C827.717 585.243 828.411 586.963 828.555 588.77" stroke="black" stroke-width="3" stroke-miterlimit="10"/>
<path d="M832.138 573.535C834.625 574.019 836.853 575.383 838.41 577.374C839.966 579.366 840.747 581.851 840.608 584.37" stroke="black" stroke-width="3" stroke-miterlimit="10"/>
</g>
<g clip-path="url(#clip7_767_7)">
<path d="M514.092 404.628C509.946 400.132 491.807 380.496 465.143 381.195C459.41 381.37 453.741 382.442 448.341 384.373C448.183 383.179 447.64 382.068 446.794 381.209C445.949 380.349 444.847 379.787 443.653 379.606C442.718 379.555 441.786 379.747 440.949 380.165C440.111 380.583 439.397 381.212 438.878 381.99C437.652 378.534 436.188 378.105 435.694 378.018C432.885 377.541 429.709 382.847 428.531 386.756C427.622 389.885 427.586 393.203 428.427 396.351C425.135 399.408 422.23 402.854 419.776 406.614C410.615 420.714 410.877 434.981 411.021 439.977C411.816 468.764 434.158 500.943 457.184 501.936C465.836 502.31 476.222 498.354 478.276 497.567C486.816 494.311 492.427 490.164 497.378 486.446C503.65 481.744 513.726 474.078 521.654 460.63C526.485 452.432 530.17 446.205 530.409 437.594C530.807 422.756 520.866 411.968 514.092 404.628Z" fill="#FFEEDC" stroke="black" stroke-width="5" stroke-miterlimit="10"/>
<path d="M410.981 430.842C408.696 436.768 398.19 464.204 393.908 480.886C393.073 484.143 391.52 490.76 394.704 493.595C395.906 494.66 398.684 495.978 401.072 495.184C402.663 494.62 403.34 493.309 404.255 493.595C405.362 493.937 404.995 496.058 405.847 497.567C408.314 501.944 420.229 499.609 422.561 499.156C427.712 498.123 432.656 496.244 437.191 493.595C433.543 490.814 430.236 487.615 427.337 484.063C425.912 482.308 421.161 476.255 416.99 464.999C412.99 454.054 410.956 442.492 410.981 430.842Z" fill="#893E00" stroke="black" stroke-width="4" stroke-miterlimit="10"/>
<path d="M474.79 381.822C481.118 381.251 510.423 378.645 527.687 379.074C531.054 379.161 537.859 379.463 539.721 383.3C540.422 384.754 540.955 387.804 539.514 389.853C538.535 391.251 537.127 391.522 537.127 392.475C537.127 393.634 539.3 393.857 540.517 395.088C544.067 398.655 538.575 409.45 537.493 411.571C535.106 416.237 531.956 420.474 528.173 424.106C522.789 413.683 515.246 404.522 506.044 397.232C496.842 389.942 486.19 384.689 474.798 381.822H474.79Z" fill="#893E00" stroke="black" stroke-width="4" stroke-miterlimit="10"/>
<path d="M467.93 445.934C467.763 446.935 467.341 447.404 462.358 452.289C451.749 462.703 447.037 467.096 448.032 468.971C448.668 470.17 450.977 469.114 452.011 470.559C454.009 473.339 445.461 480.552 447.236 483.269C448.199 484.73 451.478 483.523 452.011 484.858C452.449 485.946 450.419 487.058 448.032 491.212C446.503 493.897 446.392 495.136 446.44 495.978C446.559 497.869 447.57 498.822 447.236 499.156C446.376 500.022 438.974 494.008 438.481 493.595C433.816 489.687 431.484 487.733 428.929 484.858C428.205 484.063 420.97 475.81 417.787 466.587C413.369 453.878 413.672 430.913 426.94 424.193C443.121 416.003 469.521 436.609 467.93 445.934Z" fill="#893E00" stroke="black" stroke-width="4" stroke-miterlimit="10"/>
<path d="M476.684 439.58C479.446 439.326 479.494 437.769 485.44 434.019C491.91 429.952 499.894 427.45 501.557 429.555C502.504 430.747 500.761 432.502 501.684 433.829C503.618 436.657 513.337 431.104 515.287 433.702C516.337 435.108 514.077 437.769 515.143 438.73C516.21 439.691 518.287 437.649 522.49 437.141C526.875 436.641 528.682 438.38 530.019 437.141C531.722 435.552 530.266 431.358 529.223 428.403C527.744 424.329 525.668 420.495 523.063 417.028C516.035 407.337 512.477 402.523 509.675 400.347C498.461 391.593 485.392 391.919 483.848 391.919C478.889 392.101 465.542 392.586 459.97 402.245C455.688 409.696 458.625 418.188 459.97 422.104C462.732 430.143 469.8 440.231 476.684 439.58Z" fill="#893E00" stroke="black" stroke-width="4" stroke-miterlimit="10"/>
<path d="M478.65 440.167C481.133 441.462 482.86 448.024 479.112 451.543C475.18 455.22 468.478 452.528 467.491 449.882C466.075 446.077 474.973 438.253 478.65 440.167Z" fill="black"/>
<path d="M478.42 452.162L481.46 456.261L478.42 452.162Z" fill="#FEEFD8"/>
<path d="M478.42 452.162L481.46 456.261" stroke="black" stroke-width="2" stroke-miterlimit="10"/>
<path d="M480.871 455.594L474.297 467.438C476.55 468.591 479.092 469.059 481.609 468.784C484.126 468.509 486.507 467.503 488.456 465.89C490.406 464.277 491.838 462.128 492.575 459.711C493.312 457.293 493.322 454.712 492.603 452.289L480.871 455.594Z" fill="#FF473E" stroke="black" stroke-width="2" stroke-miterlimit="10"/>
<path d="M481.644 456.142L486.332 461.75L481.644 456.142Z" fill="#FEEFD8"/>
<path d="M481.644 456.142L486.332 461.75" stroke="black" stroke-miterlimit="10"/>
<path d="M441.902 457.85C438.313 456.928 437.063 452.051 436.92 449.406C436.856 448.087 436.705 445.259 438.583 443.488C440.78 441.415 444.218 442.217 446.057 442.646C447.896 443.075 450.761 443.742 451.867 446.022C453.403 449.199 450.737 453.314 448.548 455.316C447.673 456.11 444.919 458.644 441.902 457.85Z" fill="black"/>
<path d="M443.256 443.552C443.59 443.737 443.866 444.012 444.052 444.346C444.274 444.891 444.317 445.493 444.174 446.064C444.031 446.636 443.709 447.147 443.256 447.523C442.102 448.54 439.992 448.588 439.276 447.523C438.56 446.459 439.364 444.751 440.558 443.957C440.958 443.713 441.402 443.552 441.866 443.482C442.329 443.413 442.802 443.436 443.256 443.552Z" fill="white"/>
<path d="M480.131 427.704C476.788 426.115 476.517 421.055 476.907 418.434C477.098 417.131 477.504 414.335 479.693 412.969C482.256 411.38 485.464 412.834 487.183 413.612C488.902 414.391 491.576 415.614 492.221 418.077C493.104 421.476 489.682 425.003 487.135 426.528C486.124 427.14 482.933 429.054 480.131 427.704Z" fill="black"/>
<path d="M483.76 413.787C484.065 414.052 484.29 414.396 484.413 414.78C484.533 415.398 484.454 416.038 484.188 416.608C483.923 417.179 483.483 417.651 482.932 417.957C481.539 418.752 479.375 418.394 478.865 417.163C478.356 415.932 479.534 414.288 480.919 413.708C481.373 413.526 481.859 413.44 482.348 413.453C482.836 413.467 483.317 413.581 483.76 413.787Z" fill="white"/>
<path d="M437.191 494.747L395.501 539.668C388.911 545.907 384.574 554.146 383.164 563.101C382.146 570.075 382.969 577.194 385.552 583.754C385.552 568.9 394.617 555.817 407.838 551.186C424.743 545.268 439.189 556.436 440.064 557.143C437.783 550.1 437.103 542.637 438.075 535.299C439.3 526.386 442.763 520.016 445.238 515.44C447.701 510.908 450.635 506.648 453.993 502.731C450.731 501.603 447.541 500.277 444.442 498.759C441.768 497.448 439.348 496.09 437.191 494.747Z" fill="#893E00" stroke="black" stroke-width="5" stroke-miterlimit="10"/>
<path d="M555.083 553.569C556.179 538.288 555.243 522.929 552.297 507.894C550.403 498.306 548.779 490.029 543.94 479.694C539.569 470.359 533.766 461.762 526.74 454.212C524.589 458.406 522.089 462.414 519.266 466.19C515.28 471.425 510.744 476.218 505.736 480.489C500.793 484.689 495.463 488.412 489.817 491.61C484.32 494.947 478.441 497.614 472.307 499.553C466.362 501.371 460.212 502.439 454.001 502.731C447.165 509.414 442.19 517.758 439.563 526.941C436.937 536.125 436.75 545.832 439.021 555.11C425.793 546.928 409.31 547.722 398.286 556.746C385.551 567.176 386.244 583.556 386.347 585.343C387.07 590.615 389.278 595.573 392.715 599.641C399.122 606.933 408.044 608.276 420.572 609.968C431.661 611.453 442.893 611.528 454.001 610.19C454.685 610.19 454.797 618.706 464.348 614.734C464.348 614.734 468.367 620 474.313 614.186C475.582 615.093 477.113 615.564 478.674 615.528C478.921 615.528 482.654 615.33 484.246 612.351C484.723 611.451 484.961 610.445 484.938 609.428C487.326 609.348 489.769 609.269 492.205 609.173C494.975 609.07 497.729 608.951 500.475 608.832C500.012 609.772 499.867 610.837 500.061 611.866C500.255 612.895 500.777 613.835 501.55 614.543C502.323 615.252 503.305 615.692 504.349 615.798C505.393 615.904 506.443 615.67 507.343 615.131C508.741 616.086 510.435 616.509 512.119 616.322C512.958 616.211 513.768 615.942 514.507 615.528C515.444 616.151 516.569 616.432 517.69 616.322C518.128 616.267 519.282 615.997 521.67 613.145C522.889 611.667 523.955 610.07 524.854 608.379C532.888 604.368 539.744 598.347 544.752 590.903C549.169 584.191 550.936 577.804 552.225 573.15C553.698 567.788 554.597 562.315 555.083 553.569Z" fill="#FFEEDC" stroke="black" stroke-width="5" stroke-miterlimit="10"/>
<path d="M445.078 572.061C445.078 572.061 452.409 605.646 454.796 610.19L445.078 572.061Z" fill="#FEEFD8"/>
<path d="M445.078 572.061C445.078 572.061 452.409 605.646 454.796 610.19" stroke="black" stroke-width="3" stroke-miterlimit="10"/>
<path d="M487.43 544.037C489.633 565.521 488.559 587.215 484.246 608.379L487.43 544.037Z" fill="#FEEFD8"/>
<path d="M487.43 544.037C489.633 565.521 488.559 587.215 484.246 608.379" stroke="black" stroke-width="3" stroke-miterlimit="10"/>
<path d="M508.123 548.008C509.162 568.031 507.286 588.099 502.552 607.584L508.123 548.008Z" fill="#FEEFD8"/>
<path d="M508.123 548.008C509.162 568.031 507.286 588.099 502.552 607.584" stroke="black" stroke-width="3" stroke-miterlimit="10"/>
<path d="M522.45 611.556C524.098 607.918 525.721 603.939 527.226 599.641C529.587 592.902 531.449 585.999 532.797 578.988" fill="#FEEFD8"/>
<path d="M522.45 611.556C524.098 607.918 525.721 603.939 527.226 599.641C529.587 592.902 531.449 585.999 532.797 578.988" stroke="black" stroke-width="3" stroke-miterlimit="10"/>
<path d="M499.966 485.97L492.205 487.638C489.708 488.057 487.292 488.861 485.042 490.021C482.455 491.427 481.954 492.404 481.858 493.198C481.763 493.993 482.113 494.644 482.654 495.581C485.838 501.142 485.711 500.959 485.838 501.142C488.608 505.002 490.001 506.94 492.205 507.497C493.251 507.75 494.343 507.75 495.389 507.497C496.234 506.753 497.031 505.957 497.777 505.113C500.734 501.722 502.857 497.688 503.977 493.333L510.933 489.735C518.503 489.282 524.058 488.456 525.634 487.638C526.348 487.329 526.917 486.761 527.226 486.049C527.391 485.532 527.391 484.977 527.226 484.46C526.152 481.44 524.821 478.516 523.246 475.723C521.838 473.223 520.241 470.833 518.471 468.573C517.777 468.068 516.942 467.791 516.083 467.779C515.375 467.779 513.401 468.049 509.716 474.134C508.077 476.839 506.7 479.693 505.601 482.657L499.966 485.97Z" fill="#FF3E3E" stroke="black" stroke-width="3" stroke-miterlimit="10"/>
<path d="M509.715 484.46L513.694 481.283" stroke="#820000" stroke-miterlimit="10"/>
<path d="M500.563 490.418L494.521 494.104" stroke="#820000" stroke-miterlimit="10"/>
<path d="M394.306 540.859C391.08 538.271 388.145 535.341 385.551 532.121C380.84 526.237 377.326 519.491 375.204 512.263C374.902 511.468 372.657 505.614 366.449 503.525C363.605 502.599 360.539 502.599 357.694 503.525C352.497 498.155 345.707 495.272 340.98 497.17C334.453 499.784 330.203 512.167 337 524.972C334.819 526.037 329.415 529.063 326.653 535.299C323 543.552 325.483 554.014 333.02 561.512C333.729 564.062 338.528 580.338 355.306 588.52C369.744 595.558 383.259 591.841 386.347 590.903C383.47 584.409 382.109 577.347 382.368 570.25C382.988 554.713 391.377 544.219 394.306 540.859Z" fill="#FFEEDC" stroke="black" stroke-width="5" stroke-miterlimit="10"/>
<path d="M500.165 486.049C500.127 487.402 500.393 488.747 500.944 489.984C501.495 491.221 502.316 492.32 503.348 493.198L510.934 489.735C510.933 488.186 510.527 486.664 509.755 485.321C508.983 483.978 507.872 482.859 506.532 482.077L500.165 486.049Z" fill="#FF3E3E" stroke="black" stroke-width="2" stroke-miterlimit="10"/>
</g>
<defs>
<clipPath id="clip0_767_7">
<rect width="240" height="294" fill="white" transform="translate(817 312)"/>
</clipPath>
<clipPath id="clip1_767_7">
<rect width="201" height="246" fill="white" transform="translate(1215 337)"/>
</clipPath>
<clipPath id="clip2_767_7">
<rect width="250.119" height="291.004" fill="white" transform="translate(1000 320)"/>
</clipPath>
<clipPath id="clip3_767_7">
<rect width="242.904" height="129.869" fill="white" transform="translate(1125 506)"/>
</clipPath>
<clipPath id="clip4_767_7">
<rect width="124" height="272" fill="white" transform="translate(1480 301)"/>
</clipPath>
<clipPath id="clip5_767_7">
<rect width="219" height="103" fill="white" transform="translate(1350 502)"/>
</clipPath>
<clipPath id="clip6_767_7">
<rect width="311.446" height="301.826" fill="white" transform="translate(536 305)"/>
</clipPath>
<clipPath id="clip7_767_7">
<rect width="234.487" height="242.904" fill="white" transform="translate(323 376)"/>
</clipPath>
</defs>
</svg>
