<svg width="1920" height="1883" viewBox="0 0 1920 1883" fill="none" xmlns="http://www.w3.org/2000/svg">
<rect width="1920" height="1883" fill="#FFFDF5"/>
<path d="M1941.15 1223.58C1987.8 1277.18 1900.05 1259.35 1845.06 1307.2C1790.08 1355.05 1779.48 1432.88 1732.83 1379.28C1686.18 1325.67 1680.28 1228.87 1735.26 1181.02C1790.25 1133.17 1894.51 1169.97 1941.15 1223.58Z" fill="#FFFBE3"/>
<circle cx="1641.2" cy="1188.38" r="43.2267" transform="rotate(-41.0298 1641.2 1188.38)" fill="#FFFBE3"/>
<circle cx="1641.25" cy="1320.13" r="43.2267" transform="rotate(-41.0298 1641.25 1320.13)" fill="#FFFBE3"/>
<circle cx="1748.81" cy="1094.74" r="43.2267" transform="rotate(-41.0298 1748.81 1094.74)" fill="#FFFBE3"/>
<circle cx="1879.3" cy="1112.99" r="43.2267" transform="rotate(-41.0298 1879.3 1112.99)" fill="#FFFBE3"/>
<path d="M221.069 972.624C207.814 1006.61 195.012 962.46 160.153 948.863C125.294 935.266 87.38 948.996 100.635 915.014C113.89 881.032 156.494 855.277 191.353 868.874C226.212 882.471 234.324 938.642 221.069 972.624Z" fill="#FFFBE3"/>
<circle cx="165.591" cy="827.863" r="22.1892" transform="rotate(21.3086 165.591 827.863)" fill="#FFFBE3"/>
<circle cx="105.701" cy="859.282" r="22.1892" transform="rotate(21.3086 105.701 859.282)" fill="#FFFBE3"/>
<circle cx="233.81" cy="854.471" r="22.1892" transform="rotate(21.3086 233.81 854.471)" fill="#FFFBE3"/>
<circle cx="256.608" cy="918.145" r="22.1892" transform="rotate(21.3086 256.608 918.145)" fill="#FFFBE3"/>
<path d="M1791.81 454.405C1795.79 490.662 1764 457.459 1726.81 461.544C1689.62 465.63 1662.37 495.352 1658.39 459.095C1654.4 422.837 1680.24 380.285 1717.44 376.199C1754.63 372.113 1787.82 418.147 1791.81 454.405Z" fill="#FFFBE3"/>
<circle cx="1675.62" cy="351.773" r="22.1892" transform="rotate(-6.26887 1675.62 351.773)" fill="#FFFBE3"/>
<circle cx="1637.08" cy="407.349" r="22.1892" transform="rotate(-6.26887 1637.08 407.349)" fill="#FFFBE3"/>
<circle cx="1748.4" cy="343.777" r="22.1892" transform="rotate(-6.26887 1748.4 343.777)" fill="#FFFBE3"/>
<circle cx="1798.09" cy="389.662" r="22.1892" transform="rotate(-6.26887 1798.09 389.662)" fill="#FFFBE3"/>
<path d="M178.568 1648.41C152.746 1714.61 127.806 1628.61 59.8977 1602.12C-8.01083 1575.63 -81.8704 1602.38 -56.0484 1536.18C-30.2264 1469.98 52.7705 1419.8 120.679 1446.29C188.588 1472.78 204.39 1582.2 178.568 1648.41Z" fill="#FFFBE3"/>
<circle cx="70.494" cy="1366.4" r="43.2267" transform="rotate(21.3086 70.494 1366.4)" fill="#FFFBE3"/>
<circle cx="-46.1788" cy="1427.6" r="43.2267" transform="rotate(21.3086 -46.1788 1427.6)" fill="#FFFBE3"/>
<circle cx="203.391" cy="1418.23" r="43.2267" transform="rotate(21.3086 203.391 1418.23)" fill="#FFFBE3"/>
<circle cx="247.803" cy="1542.28" r="43.2267" transform="rotate(21.3086 247.803 1542.28)" fill="#FFFBE3"/>
</svg>
