<svg width="47" height="48" viewBox="0 0 47 48" fill="none" xmlns="http://www.w3.org/2000/svg">
<path fill-rule="evenodd" clip-rule="evenodd" d="M26.3789 18C26.3789 8.05888 34.4378 0 44.3789 0H46.578V44.5773H44.3789C34.4378 44.5773 26.3789 36.5184 26.3789 26.5773V18ZM36.1302 3.93322C36.1302 3.20912 36.7172 2.62212 37.4413 2.62212H46.578V5.24432H37.4413C36.7172 5.24432 36.1302 4.65732 36.1302 3.93322ZM37.4413 7.86653C36.7172 7.86653 36.1302 8.45353 36.1302 9.17763C36.1302 9.90172 36.7172 10.4887 37.4413 10.4887H46.578V7.86653H37.4413ZM36.1302 14.422C36.1302 13.6979 36.7172 13.1109 37.4413 13.1109H46.578V15.7331H37.4413C36.7172 15.7331 36.1302 15.1461 36.1302 14.422ZM37.4413 18.3553C36.7172 18.3553 36.1302 18.9423 36.1302 19.6664C36.1302 20.3905 36.7172 20.9775 37.4413 20.9775H46.578V18.3553H37.4413ZM36.1302 24.9108C36.1302 24.1867 36.7172 23.5997 37.4413 23.5997H46.578V26.2219H37.4413C36.7172 26.2219 36.1302 25.6349 36.1302 24.9108ZM37.4413 28.8439C36.7172 28.8439 36.1302 29.4309 36.1302 30.155C36.1302 30.8791 36.7172 31.4661 37.4413 31.4661H46.578V28.8439H37.4413ZM36.1302 35.3994C36.1302 34.6753 36.7172 34.0883 37.4413 34.0883H46.578V36.7105H37.4413C36.7172 36.7105 36.1302 36.1235 36.1302 35.3994ZM37.4413 39.333C36.7172 39.333 36.1302 39.9199 36.1302 40.644C36.1302 41.3681 36.7172 41.9551 37.4413 41.9551H46.578V39.333H37.4413Z" fill="#FED700"/>
<g filter="url(#filter0_d_733_91)">
<path fill-rule="evenodd" clip-rule="evenodd" d="M22.5749 34.8511L23.1175 27.7184L25.2491 3.54005C25.3488 2.40996 23.7743 2.04625 23.3502 3.10139L23.2701 3.30057C20.8417 9.34276 19.2948 15.6913 18.6734 22.1506L10.6858 26.5445C9.84088 26.0953 8.86489 25.839 7.8253 25.839C4.60807 25.839 2 28.2937 2 31.3217C2 34.3497 4.60807 36.8043 7.8253 36.8043C11.0425 36.8043 13.6506 34.3497 13.6506 31.3217C13.6506 31.0892 13.6352 30.8602 13.6054 30.6353L18.7644 27.7974L18.316 33.6922C18.207 33.7049 18.0977 33.7207 17.9883 33.7395C14.9238 34.2679 12.8946 37.0343 13.4559 39.9185C14.0173 42.8028 16.9566 44.7126 20.0211 44.1843C23.0856 43.6559 25.1148 40.8895 24.5535 38.0053C24.3024 36.7153 23.5757 35.6203 22.5749 34.8511ZM11.1535 31.3219C11.1535 33.0521 9.66317 34.4548 7.82476 34.4548C5.98634 34.4548 4.49602 33.0521 4.49602 31.3219C4.49602 29.5916 5.98634 28.1889 7.82476 28.1889C9.66317 28.1889 11.1535 29.5916 11.1535 31.3219ZM22.1758 38.4149C22.4966 40.063 21.337 41.6438 19.5859 41.9457C17.8347 42.2476 16.1551 41.1563 15.8343 39.5082C15.5135 37.86 16.6731 36.2792 18.4242 35.9773C20.1754 35.6754 21.855 36.7667 22.1758 38.4149ZM38.0419 9.62312L24.4699 19.5727L24.0538 25.8386L32.3344 18.2785C34.9091 15.9278 37.0965 13.2254 38.8257 10.2588C39.0988 9.79011 38.4889 9.29543 38.0419 9.62312Z" fill="#FED700"/>
</g>
<defs>
<filter id="filter0_d_733_91" x="0" y="1.47412" width="40.8936" height="45.7981" filterUnits="userSpaceOnUse" color-interpolation-filters="sRGB">
<feFlood flood-opacity="0" result="BackgroundImageFix"/>
<feColorMatrix in="SourceAlpha" type="matrix" values="0 0 0 0 0 0 0 0 0 0 0 0 0 0 0 0 0 0 127 0" result="hardAlpha"/>
<feOffset dy="1"/>
<feGaussianBlur stdDeviation="1"/>
<feComposite in2="hardAlpha" operator="out"/>
<feColorMatrix type="matrix" values="0 0 0 0 0 0 0 0 0 0 0 0 0 0 0 0 0 0 0.15 0"/>
<feBlend mode="normal" in2="BackgroundImageFix" result="effect1_dropShadow_733_91"/>
<feBlend mode="normal" in="SourceGraphic" in2="effect1_dropShadow_733_91" result="shape"/>
</filter>
</defs>
</svg>
